<svg width="51" height="43" viewBox="0 0 51 43" fill="none" xmlns="http://www.w3.org/2000/svg">
<path d="M14.1843 3.13281C15.888 2.77796 17.2446 3.33415 15.0704 5.97148C14.2281 6.00093 13.5449 5.90515 13.2462 5.71408C13.1375 6.04565 13.0522 6.3464 12.9862 6.61882C13.4189 6.72331 13.9341 6.81417 14.5419 6.88776C18.7158 7.39316 18.3874 2.82438 14.5419 2.10269C21.2604 -2.0625 19.1586 9.11816 17.1056 11.2886C16.2226 12.2221 15.1835 12.7138 14.1187 12.8798C14.6556 14.006 15.03 15.3921 15.0704 17.0921C15.1378 19.9279 15.1196 23.1414 15.057 26.1762C15.2818 26.9645 15.4919 27.799 15.6815 28.6691C16.2692 31.3656 16.6609 34.405 16.6891 37.4762C16.7683 46.122 15.2906 41.0786 14.5419 37.4762C14.6548 36.6025 14.809 34.0014 14.9288 30.6966C11.3048 37.1349 0.608956 25.1307 0.813953 20.0454C0.0672122 19.6366 -0.0156325 19.2717 1.04047 19.0514C1.44943 18.2009 2.42789 17.7594 4.15683 17.9822C15.6509 14.2903 15.6243 17.9897 12.2422 19.8552C13.1928 20.9792 14.2258 23.2622 15.057 26.1762C15.1196 23.1414 15.1378 19.9279 15.0704 17.0921C15.03 15.3921 14.6556 14.006 14.1187 12.8798C11.6098 13.2711 8.95897 11.8537 7.87585 10.1457C4.50983 4.83755 16.4439 -4.4961 14.1843 3.13281Z" fill="url(#paint0_linear_19_151)" fill-opacity="0.75"/>
<path d="M44.9274 30.3941C65.184 11.618 21.5199 37.4762 15.5184 17.0921C21.0564 55.4677 -14.6418 8.98277 8.97375 19.5237C22.6256 25.6173 -4.86268 20.1897 1.11366 19.0368C20.2673 11.964 14.6183 21.4652 7.87585 20.7522C1.80959 20.1107 7.75864 18.2643 11.5466 19.2364C13.6497 20.4372 16.6098 28.8305 16.689 37.4762C16.7683 46.122 15.2906 41.0786 14.5419 37.4762C14.7951 35.5178 15.2554 24.8802 15.0704 17.0921C14.8854 9.30409 7.6907 8.10341 9.97442 8.3131C15.5184 8.82215 11.091 10.875 13.6789 4.54613C17.8004 -5.53305 4.32503 4.54613 7.87585 10.1457C9.41861 12.5786 14.142 14.4217 17.1056 11.2886C19.1586 9.11816 21.2604 -2.0625 14.5419 2.10269C18.3874 2.82438 18.7158 7.39316 14.5419 6.88776C4.26184 5.64302 20.442 -0.54436 15.0704 5.97148C13.1291 6.03935 12.0331 5.44206 14.5419 4.54613" stroke="black" stroke-width="0.5"/>
<defs>
<linearGradient id="paint0_linear_19_151" x1="25.2501" y1="0.250004" x2="25.2501" y2="42.25" gradientUnits="userSpaceOnUse">
<stop stop-color="#E04444"/>
<stop offset="0.528846" stop-color="#7A2525"/>
<stop offset="0.980769" stop-color="#1C6648"/>
</linearGradient>
</defs>
</svg>
