<svg width="193" height="82" viewBox="0 0 193 82" fill="none" xmlns="http://www.w3.org/2000/svg">
<path d="M45.0312 81.7812C44.8229 81.7812 44.625 81.6146 44.4375 81.2812C44.375 81.1354 44.3438 80.9792 44.3438 80.8125L44.375 80.3125L44.5312 79.375L45 77.5938C45 77.4896 45 77.4167 45 77.375C45.0208 77.3333 45.0625 77.25 45.125 77.125L45.1562 76.875C45.2812 76.5208 45.3958 76.1458 45.5 75.75C45.6458 75.25 45.8021 74.7812 45.9688 74.3438L46.0312 74.0938C46.2396 73.5104 46.4375 72.9167 46.625 72.3125C46.8542 71.6042 47.1042 70.9167 47.375 70.25V70.125C47.4167 70.0417 47.4479 69.9479 47.4688 69.8438C47.4896 69.7396 47.5104 69.6667 47.5312 69.625C47.5729 69.6042 47.5938 69.5833 47.5938 69.5625C47.6354 69.4167 47.6562 69.3333 47.6562 69.3125C47.6562 69.2917 47.6875 69.25 47.75 69.1875V69L47.9062 68.6562L48.0312 68.25C48.0312 68.2292 48.0625 68.1875 48.125 68.125V68C48.1458 67.9583 48.1562 67.9271 48.1562 67.9062C48.1562 67.8854 48.1667 67.8646 48.1875 67.8438C48.2083 67.8229 48.2188 67.8021 48.2188 67.7812C48.2396 67.7604 48.25 67.7396 48.25 67.7188C48.25 67.6146 48.2917 67.5208 48.375 67.4375C48.375 67.3333 48.375 67.2604 48.375 67.2188C48.3958 67.1979 48.4375 67.1562 48.5 67.0938V66.875C48.5208 66.8542 48.5417 66.8333 48.5625 66.8125C48.5833 66.8125 48.5938 66.7917 48.5938 66.75C48.6146 66.7083 48.625 66.6667 48.625 66.625C48.6458 66.6042 48.6562 66.5729 48.6562 66.5312C48.6562 66.5104 48.6667 66.4792 48.6875 66.4375C48.7083 66.4167 48.7292 66.3854 48.75 66.3438V66.25C48.7708 66.2292 48.7812 66.2083 48.7812 66.1875C48.7812 66.1667 48.8125 66.125 48.875 66.0625V65.875C48.8958 65.8542 48.9167 65.8229 48.9375 65.7812C48.9792 65.7604 49 65.6979 49 65.5938C49.0208 65.5729 49.0312 65.5417 49.0312 65.5C49.0312 65.4792 49.0625 65.4375 49.125 65.375C49.125 65.2708 49.125 65.2083 49.125 65.1875C49.1458 65.1667 49.1875 65.0938 49.25 64.9688L49.2812 64.8125C49.2812 64.7917 49.2917 64.7708 49.3125 64.75C49.3333 64.75 49.3438 64.7292 49.3438 64.6875C49.3646 64.6667 49.375 64.6042 49.375 64.5C49.3958 64.4792 49.4167 64.4583 49.4375 64.4375C49.4583 64.4375 49.4688 64.4167 49.4688 64.375C49.4688 64.3542 49.4688 64.3229 49.4688 64.2812C49.4896 64.2396 49.5 64.1979 49.5 64.1562C49.5208 64.1146 49.5625 64.0625 49.625 64V63.8125L49.6875 63.7188C49.7292 63.6771 49.75 63.6042 49.75 63.5C49.8125 63.4375 49.8438 63.3958 49.8438 63.375C49.8438 63.3542 49.8438 63.3229 49.8438 63.2812C49.8646 63.2396 49.875 63.1979 49.875 63.1562C49.8958 63.1354 49.9167 63.1146 49.9375 63.0938C49.9583 63.0938 49.9688 63.0833 49.9688 63.0625C49.9896 63.0417 50 62.9792 50 62.875L50.125 62.625V62.4688C50.0417 62.4479 49.9375 62.4375 49.8125 62.4375L49.25 62.4062L48.875 62.3438C48.5417 62.3438 48.3125 62.3229 48.1875 62.2812H47.9688C47.7396 62.2396 47.5104 62.2188 47.2812 62.2188C47.0521 62.2188 46.8333 62.1979 46.625 62.1562C46.5417 62.1354 46.375 62.125 46.125 62.125C46.0417 62.1042 45.9271 62.0833 45.7812 62.0625C45.6562 62.0417 45.5104 62.0208 45.3438 62C45.1771 61.9792 44.9896 61.9583 44.7812 61.9375C44.5938 61.9167 44.4062 61.8958 44.2188 61.875C44.0521 61.8542 43.9479 61.8333 43.9062 61.8125H43.6562C43.4479 61.75 43.2292 61.7083 43 61.6875C42.7708 61.6667 42.5625 61.625 42.375 61.5625C42.2708 61.5417 42.1979 61.5312 42.1562 61.5312C42.1146 61.5312 41.8854 61.4896 41.4688 61.4062C41.0729 61.3438 40.8438 61.3125 40.7812 61.3125C40.7396 61.3125 40.3438 61.2292 39.5938 61.0625C39.2188 61 38.8542 60.9167 38.5 60.8125H38.3125C37.6458 60.6458 37.1771 60.5104 36.9062 60.4062C36.8021 60.4062 36.7188 60.3958 36.6562 60.375C36.5938 60.375 36.5312 60.3438 36.4688 60.2812L36.2188 60.25C36.0938 60.1667 36.0104 60.1042 35.9688 60.0625C35.9271 60.0417 35.8646 60.0312 35.7812 60.0312C35.7188 60.0312 35.625 59.9167 35.5 59.6875C35.4167 59.5625 35.375 59.4479 35.375 59.3438C35.375 59.2812 35.3854 59.2292 35.4062 59.1875V59.125C35.4479 59.0625 35.4896 58.9792 35.5312 58.875C35.5729 58.7917 35.6562 58.6979 35.7812 58.5938C35.9271 58.5104 36.0729 58.4688 36.2188 58.4688C36.3646 58.4688 36.6042 58.5417 36.9375 58.6875C37.0833 58.7292 37.2083 58.7604 37.3125 58.7812C37.4375 58.8021 37.7083 58.875 38.125 59L39.0625 59.25C40.9792 59.7083 41.9688 59.9375 42.0312 59.9375C42.1146 59.9583 42.1667 59.9688 42.1875 59.9688C42.2292 59.9896 42.3229 60 42.4688 60C42.7188 60.0833 42.9792 60.1458 43.25 60.1875C43.5417 60.25 43.8125 60.3125 44.0625 60.375H44.3125C44.375 60.3958 44.4479 60.4062 44.5312 60.4062C44.6146 60.4271 44.6771 60.4479 44.7188 60.4688H44.9375C45.1875 60.5312 45.4583 60.5833 45.75 60.625C46.375 60.7292 46.75 60.7917 46.875 60.8125C47.0208 60.8333 47.1562 60.8438 47.2812 60.8438C47.5521 60.9062 47.8229 60.9479 48.0938 60.9688C48.3854 60.9896 48.6667 61.0208 48.9375 61.0625C49.0208 61.0833 49.1042 61.0938 49.1875 61.0938C49.2917 61.0938 49.5104 61.1146 49.8438 61.1562L50.4688 61.1875C50.5312 61.1875 50.5729 61.1771 50.5938 61.1562C50.6146 61.1562 50.6354 61.1458 50.6562 61.125C50.6979 61.1042 50.7292 61.0729 50.75 61.0312C50.75 60.8646 50.7604 60.7708 50.7812 60.75C50.8229 60.75 50.8438 60.7396 50.8438 60.7188C50.8646 60.6979 50.875 60.6354 50.875 60.5312C50.8958 60.5104 50.9167 60.4896 50.9375 60.4688C50.9792 60.4688 51 60.3958 51 60.25C51.0625 60.1875 51.0938 60.1354 51.0938 60.0938C51.1146 60.0729 51.125 60 51.125 59.875C51.1875 59.8125 51.2188 59.7604 51.2188 59.7188C51.2396 59.6979 51.25 59.6562 51.25 59.5938C51.2708 59.5312 51.2917 59.4896 51.3125 59.4688C51.3542 59.4688 51.375 59.4062 51.375 59.2812C51.375 59.2604 51.375 59.2396 51.375 59.2188C51.3958 59.1979 51.4375 59.1562 51.5 59.0938V58.9688C51.5208 58.9479 51.5312 58.9167 51.5312 58.875C51.5312 58.8542 51.5417 58.8333 51.5625 58.8125C51.5833 58.8125 51.5938 58.8021 51.5938 58.7812C51.6146 58.7604 51.625 58.6979 51.625 58.5938C51.6667 58.5312 51.6979 58.4688 51.7188 58.4062C51.7396 58.3438 51.75 58.2917 51.75 58.25C51.7708 58.2292 51.8125 58.1875 51.875 58.125V57.9375C51.8958 57.9167 51.9167 57.8854 51.9375 57.8438C51.9792 57.8229 52 57.75 52 57.625C52.0417 57.5625 52.0729 57.5 52.0938 57.4375C52.1146 57.375 52.125 57.3229 52.125 57.2812C52.1458 57.2604 52.1875 57.2188 52.25 57.1562V56.9688C52.3125 56.9062 52.3438 56.8646 52.3438 56.8438C52.3854 56.7396 52.4062 56.6667 52.4062 56.625C52.4062 56.6042 52.4375 56.5625 52.5 56.5V56.4062L52.5625 56.25L52.625 56.2188V56.0312C52.6458 56.0104 52.6562 55.9896 52.6562 55.9688C52.6771 55.9688 52.6979 55.9479 52.7188 55.9062C52.7396 55.8854 52.75 55.8542 52.75 55.8125C52.75 55.7708 52.75 55.7292 52.75 55.6875C52.7708 55.6667 52.8125 55.625 52.875 55.5625V55.4062L53 55.25V55.1562C53.0208 55.1146 53.0312 55.0833 53.0312 55.0625C53.0312 55.0417 53.0417 55.0208 53.0625 55C53.0833 54.9792 53.0938 54.9479 53.0938 54.9062C53.1146 54.8854 53.125 54.8542 53.125 54.8125C53.125 54.7917 53.125 54.7604 53.125 54.7188C53.1458 54.6979 53.1875 54.6562 53.25 54.5938C53.25 54.5104 53.25 54.4479 53.25 54.4062C53.2708 54.3854 53.2917 54.3646 53.3125 54.3438C53.3333 54.3438 53.3542 54.3333 53.375 54.3125V54.1875C53.3958 54.1667 53.4062 54.1354 53.4062 54.0938C53.4062 54.0729 53.4375 54.0312 53.5 53.9688V53.8125C53.5208 53.7917 53.5417 53.7604 53.5625 53.7188C53.6042 53.6979 53.625 53.6562 53.625 53.5938C53.625 53.5521 53.6354 53.5104 53.6562 53.4688C53.6771 53.4479 53.6979 53.4271 53.7188 53.4062C53.7396 53.3854 53.75 53.3438 53.75 53.2812C53.75 53.2396 53.75 53.2083 53.75 53.1875C53.7708 53.1667 53.7917 53.1458 53.8125 53.125C53.8333 53.1042 53.8542 53.0625 53.875 53C53.8958 52.9583 53.9062 52.9167 53.9062 52.875C53.9062 52.8333 53.9375 52.7812 54 52.7188C54 52.6354 54 52.5833 54 52.5625C54.0208 52.5417 54.0625 52.5 54.125 52.4375V52.25C54.1875 52.1875 54.2188 52.1354 54.2188 52.0938C54.2396 52.0729 54.25 52.0417 54.25 52C54.25 51.9583 54.2604 51.9271 54.2812 51.9062C54.3021 51.8854 54.3125 51.8646 54.3125 51.8438C54.3333 51.8229 54.3438 51.7812 54.3438 51.7188C54.3646 51.6771 54.375 51.6458 54.375 51.625C54.3958 51.6042 54.4375 51.5625 54.5 51.5V51.375L54.5938 51.2188C54.6354 51.1146 54.6562 51.0417 54.6562 51C54.6562 50.9792 54.6667 50.9583 54.6875 50.9375C54.7083 50.9375 54.7188 50.9271 54.7188 50.9062C54.7396 50.8854 54.75 50.8646 54.75 50.8438C54.75 50.8229 54.7708 50.7604 54.8125 50.6562L54.875 50.5938V50.4062C54.9375 50.3438 54.9688 50.2917 54.9688 50.25C54.9896 50.2292 55 50.1979 55 50.1562C55 50.1354 55.0104 50.1042 55.0312 50.0625C55.0521 50.0417 55.0625 50.0208 55.0625 50C55.0833 49.9792 55.0938 49.9375 55.0938 49.875C55.1146 49.8333 55.125 49.8021 55.125 49.7812C55.1458 49.7604 55.1562 49.7396 55.1562 49.7188C55.1771 49.7188 55.1979 49.7083 55.2188 49.6875C55.2396 49.6667 55.25 49.625 55.25 49.5625C55.2708 49.4792 55.2917 49.4271 55.3125 49.4062C55.3333 49.3854 55.3542 49.3542 55.375 49.3125V49.1875C55.4167 49.125 55.4479 49.0625 55.4688 49C55.4896 48.9375 55.5 48.8958 55.5 48.875C55.5208 48.8542 55.5625 48.8125 55.625 48.75V48.5625C55.6875 48.5 55.7188 48.4583 55.7188 48.4375C55.7396 48.4167 55.75 48.3646 55.75 48.2812C55.8125 48.2188 55.8438 48.1771 55.8438 48.1562C55.8646 48.1146 55.875 48.0833 55.875 48.0625C55.875 48.0208 55.875 47.9896 55.875 47.9688C55.8958 47.9479 55.9375 47.9062 56 47.8438V47.75C56.0208 47.7083 56.0312 47.6771 56.0312 47.6562C56.0312 47.6354 56.0417 47.6042 56.0625 47.5625C56.1042 47.5208 56.125 47.4792 56.125 47.4375C56.1458 47.375 56.1562 47.3438 56.1562 47.3438C56.1771 47.3229 56.1979 47.3021 56.2188 47.2812C56.2396 47.2396 56.25 47.1979 56.25 47.1562C56.25 47.1146 56.25 47.0833 56.25 47.0625C56.2708 47.0417 56.3125 47 56.375 46.9375V46.75C56.4375 46.6875 56.4688 46.6458 56.4688 46.625C56.4896 46.6042 56.5104 46.5625 56.5312 46.5C56.5521 46.4375 56.5833 46.375 56.625 46.3125V46.1562L56.75 46.0312C56.75 45.8646 56.7708 45.7708 56.8125 45.75H56.8438C56.8854 45.6458 56.9062 45.5833 56.9062 45.5625C56.9062 45.5208 56.9271 45.4792 56.9688 45.4375C57.0104 45.375 57.0417 45.2917 57.0625 45.1875C57 45.1458 56.8958 45.125 56.75 45.125L56.1875 45.1562C56.1458 45.1354 56.0729 45.125 55.9688 45.125L55.6562 45.1562H53.6562C53.6146 45.1771 53.5208 45.1875 53.375 45.1875C53.2708 45.1667 53.1042 45.1562 52.875 45.1562L52.625 45.1875L52.2812 45.1562C51.8021 45.1562 51.5104 45.1667 51.4062 45.1875H50.9375C50.6458 45.1875 50.4479 45.1979 50.3438 45.2188L42.25 45.25C41.8958 45.25 41.6458 45.2604 41.5 45.2812C41.1875 45.2812 40.9688 45.2708 40.8438 45.25C40.4688 45.25 40.2083 45.2604 40.0625 45.2812C39.4792 45.2812 39.1354 45.2917 39.0312 45.3125C38.9688 45.3125 38.9167 45.3021 38.875 45.2812L38.5 45.3125L36.75 45.3438C36.5833 45.3438 36.4479 45.3542 36.3438 45.375L36.2188 45.3438C36.1354 45.3438 36.0625 45.3542 36 45.375H34.9375L34.875 45.3438L34.7812 45.375H31.9375C31.625 45.375 31.3958 45.3854 31.25 45.4062H29.7188C29.6146 45.4271 29.3542 45.4375 28.9375 45.4375C28.5417 45.4375 28.1667 45.4479 27.8125 45.4688H27.0625C26.75 45.4688 26.4896 45.4792 26.2812 45.5L24.5625 45.4688L23.9062 45.5L19.7188 45.5312C19.4896 45.5312 19.3542 45.5417 19.3125 45.5625L18.875 45.5312L18.3125 45.5625L18.1875 45.5312H18.0312C17.9062 45.5521 17.6875 45.5625 17.375 45.5625H15.8438L15.375 45.5938C15.2292 45.5938 15.0938 45.5833 14.9688 45.5625C14.0521 45.5625 13.5208 45.5521 13.375 45.5312H13.125C11.8542 45.5312 11.0104 45.5208 10.5938 45.5H10.0938C9.76042 45.5 9.54167 45.4896 9.4375 45.4688C9.35417 45.4479 9.20833 45.4375 9 45.4375L7.75 45.375C7.4375 45.375 7.20833 45.3646 7.0625 45.3438H6.84375L5.9375 45.25L5.3125 45.2188C5.1875 45.1979 5.05208 45.1875 4.90625 45.1875C4.78125 45.1667 4.625 45.1354 4.4375 45.0938C4.27083 45.0521 4.08333 45.0208 3.875 45C3.6875 44.9792 3.51042 44.9479 3.34375 44.9062C3.17708 44.8646 3.02083 44.8333 2.875 44.8125C2.72917 44.7917 2.57292 44.7604 2.40625 44.7188C1.17708 44.4062 0.40625 43.8958 0.09375 43.1875C0.0520833 43.125 0.03125 43.0625 0.03125 43C0.03125 42.9375 0.0208333 42.8854 0 42.8438C0 42.7396 0.0104167 42.6667 0.03125 42.625V42.5938L0.0625 42.4688C0.0625 42.3021 0.125 42.1458 0.25 42V41.9375C0.75 41.1667 1.40625 40.5625 2.21875 40.125C3.23958 39.5208 3.77083 39.2083 3.8125 39.1875C3.875 39.1667 3.92708 39.1354 3.96875 39.0938C4.30208 38.9062 4.64583 38.7292 5 38.5625L5.5625 38.2812L6.0625 38.0938C6.64583 37.8021 7.5625 37.3958 8.8125 36.875L9 36.8438C9.29167 36.7188 9.58333 36.6042 9.875 36.5C10.1875 36.375 10.4792 36.25 10.75 36.125C11.1875 36 11.4792 35.9062 11.625 35.8438C12.125 35.6354 12.6458 35.4479 13.1875 35.2812L14.3438 34.875H14.5C14.5833 34.8333 14.6562 34.8021 14.7188 34.7812C14.8021 34.7396 14.8958 34.7188 15 34.7188C15.7917 34.4062 16.4583 34.1979 17 34.0938C17.8125 33.8229 18.4062 33.6562 18.7812 33.5938C19.8229 33.2604 20.9167 32.9688 22.0625 32.7188C22.6875 32.5729 23.3021 32.4167 23.9062 32.25H24.125L24.8438 32.0938C25.3438 31.9688 25.8438 31.8646 26.3438 31.7812C26.8646 31.6979 27.3438 31.6042 27.7812 31.5H28.0938C28.5521 31.375 29.0208 31.2917 29.5 31.25C30 31.1875 30.4688 31.1042 30.9062 31C31.0938 31 31.2812 30.9896 31.4688 30.9688C31.6562 30.9271 31.8646 30.8958 32.0938 30.875C32.3438 30.8542 32.5625 30.8229 32.75 30.7812C32.8542 30.7604 33.0625 30.75 33.375 30.75C33.5417 30.7083 33.7188 30.6875 33.9062 30.6875C34.0938 30.6875 34.2812 30.6667 34.4688 30.625C34.7604 30.625 35.0521 30.6042 35.3438 30.5625L35.875 30.5312L35.9375 30.5C35.9792 30.5 36.0104 30.5104 36.0312 30.5312C36.0938 30.5312 36.1354 30.5208 36.1562 30.5H36.875C37.1875 30.5 37.3854 30.4896 37.4688 30.4688C38.0312 30.4688 38.4062 30.4583 38.5938 30.4375H39.5625C39.8542 30.4375 40.0417 30.4479 40.125 30.4688C40.25 30.4688 40.3229 30.4583 40.3438 30.4375C40.5104 30.4583 40.8438 30.4688 41.3438 30.4688C41.5938 30.4688 42 30.5 42.5625 30.5625C42.8542 30.6042 43.1562 30.6354 43.4688 30.6562C43.7812 30.6562 44.0729 30.6875 44.3438 30.75C44.5312 30.75 44.8125 30.7917 45.1875 30.875L45.8125 30.9688C45.8958 30.9896 45.9792 31 46.0625 31C46.1458 31 46.2396 31.0208 46.3438 31.0625C46.4479 31.0833 46.5625 31.1042 46.6875 31.125C46.9167 31.1458 47.0938 31.1875 47.2188 31.25H47.375L48 31.4062C48.625 31.5521 49.2188 31.7396 49.7812 31.9688C49.9271 31.9688 50.2917 32.1042 50.875 32.375C51.8125 32.75 52.4062 33.0208 52.6562 33.1875L52.6875 33.2188C52.7083 33.2396 52.7396 33.25 52.7812 33.25C52.8438 33.25 52.9583 33.3125 53.125 33.4375C53.75 33.7917 54.2396 34.1042 54.5938 34.375C54.9479 34.625 55.2292 34.8542 55.4375 35.0625C55.5208 35.125 55.6562 35.25 55.8438 35.4375C56.0521 35.6042 56.2396 35.7917 56.4062 36L56.6875 36.25C56.8125 36.3542 56.9479 36.5208 57.0938 36.75C57.6354 37.4375 58.1146 38.1875 58.5312 39C58.5312 39.0208 58.5417 39.0521 58.5625 39.0938C58.6042 39.1146 58.625 39.1458 58.625 39.1875L58.9688 39.9375C58.9896 39.9583 59 40.0104 59 40.0938C59 40.1562 59.0521 40.1875 59.1562 40.1875H59.1875C59.2917 39.9792 59.3854 39.75 59.4688 39.5L59.6562 39.0625C59.6562 39.0417 59.6875 39 59.75 38.9375V38.7812C59.8125 38.7188 59.8438 38.6771 59.8438 38.6562C59.8646 38.6354 59.875 38.5833 59.875 38.5L60 38.3438C60.2292 37.8021 60.3542 37.5 60.375 37.4375C60.3958 37.3542 60.4167 37.3021 60.4375 37.2812C60.4583 37.2604 60.4792 37.2292 60.5 37.1875V37.0625C60.5625 37 60.5938 36.9583 60.5938 36.9375C60.6146 36.9167 60.625 36.8646 60.625 36.7812C60.6875 36.7188 60.7188 36.6771 60.7188 36.6562C60.7396 36.6146 60.75 36.5833 60.75 36.5625C60.75 36.5208 60.7604 36.4792 60.7812 36.4375C60.8021 36.3958 60.8333 36.3438 60.875 36.2812C60.9167 36.1979 60.9479 36.1354 60.9688 36.0938C60.9896 36.0521 61 36.0208 61 36C61 35.9583 61.0104 35.9167 61.0312 35.875C61.2604 35.4167 61.375 35.1771 61.375 35.1562C61.375 35.1146 61.375 35.0833 61.375 35.0625C61.3958 35.0208 61.4167 35 61.4375 35C61.4583 34.9792 61.4688 34.9375 61.4688 34.875C61.4896 34.8125 61.5 34.7708 61.5 34.75C61.5208 34.7292 61.5625 34.6875 61.625 34.625V34.5L61.75 34.3438C61.75 34.2812 61.75 34.2396 61.75 34.2188C61.7708 34.1771 61.8125 34.125 61.875 34.0625V33.9688L62 33.8125V33.6562C62.0625 33.5938 62.0938 33.5521 62.0938 33.5312C62.1146 33.4896 62.125 33.4479 62.125 33.4062C62.125 33.3646 62.1354 33.3333 62.1562 33.3125C62.1771 33.2917 62.1875 33.2812 62.1875 33.2812C62.2083 33.2604 62.2292 33.2396 62.25 33.2188V33.125L62.3125 33.0312C62.3333 32.9896 62.3542 32.9688 62.375 32.9688V32.7812L62.5 32.625L62.75 31.9375L62.875 31.8125C62.875 31.75 62.875 31.7083 62.875 31.6875C62.8958 31.6458 62.9375 31.5938 63 31.5312C63 31.4479 63 31.3958 63 31.375C63.0208 31.3542 63.0625 31.3125 63.125 31.25L63.1562 31.0625L63.2812 30.8438C63.4062 30.5938 63.4688 30.4479 63.4688 30.4062C63.4479 30.3646 63.3958 30.3438 63.3125 30.3438C63.2083 30.4271 63.0208 30.4688 62.75 30.4688L61.7812 30.7188C61.6979 30.7188 61.625 30.7292 61.5625 30.75H61.3125C60.9792 30.8333 60.625 30.9062 60.25 30.9688C59.8958 31.0312 59.5521 31.1042 59.2188 31.1875H58.9688C58.8646 31.2292 58.75 31.2604 58.625 31.2812C58.5 31.2812 58.375 31.3021 58.25 31.3438L57.5625 31.4375C57.3958 31.4375 57.2396 31.4583 57.0938 31.5H56.9062C56.7396 31.5417 56.5625 31.5729 56.375 31.5938C56.2083 31.5938 56.0625 31.6042 55.9375 31.625C55.8125 31.6458 55.6979 31.6562 55.5938 31.6562C55.4896 31.6562 55.3958 31.6667 55.3125 31.6875H54.8438C54.7188 31.7083 54.5729 31.7188 54.4062 31.7188C54.2188 31.7188 54.0729 31.7083 53.9688 31.6875L53.5938 31.6562C53.0938 31.5521 52.8125 31.3646 52.75 31.0938L52.7812 30.9375C52.7812 30.6667 52.8542 30.4792 53 30.375L53.2188 30.2812C53.5729 30.0938 53.9792 29.9583 54.4375 29.875L55.2812 29.7188C55.5938 29.6562 55.9167 29.6042 56.25 29.5625C56.5833 29.5208 56.8958 29.4583 57.1875 29.375C57.5 29.375 57.8229 29.3333 58.1562 29.25C58.3854 29.25 58.6146 29.2292 58.8438 29.1875L59.9688 29.0938C60.2812 29.0312 60.6146 29 60.9688 29C61.3438 29 61.6875 28.9688 62 28.9062L62.9062 28.875C63.4688 28.875 63.8958 28.8542 64.1875 28.8125L64.375 28.3438L64.5 28.1875L64.875 27.2812C64.9583 27.1979 65 27.0833 65 26.9375C65.0625 26.875 65.0938 26.8229 65.0938 26.7812C65.1146 26.7396 65.125 26.7083 65.125 26.6875C65.1458 26.6458 65.1667 26.625 65.1875 26.625C65.2083 26.6042 65.2188 26.5729 65.2188 26.5312C65.2396 26.4896 65.25 26.4583 65.25 26.4375C65.2708 26.3958 65.2917 26.3646 65.3125 26.3438C65.3333 26.3021 65.3542 26.2604 65.375 26.2188V26.125L65.4375 26.0625C65.5 25.9583 65.5417 25.8646 65.5625 25.7812C65.5833 25.6979 65.6458 25.5521 65.75 25.3438C65.8333 25.2604 65.8958 25.125 65.9375 24.9375L66.25 24.3438C66.3958 23.9688 66.5521 23.625 66.7188 23.3125L66.875 23V22.875L67 22.7188L67.4062 21.75L67.625 21.375L68.125 20.1875L68.25 20.0312L68.875 18.6562C69.2083 17.9896 69.375 17.6458 69.375 17.625C69.375 17.5833 69.375 17.5521 69.375 17.5312C69.3958 17.5104 69.4375 17.4688 69.5 17.4062L69.6562 16.9375C69.6771 16.9375 69.6875 16.9271 69.6875 16.9062C69.7083 16.8854 69.7292 16.8646 69.75 16.8438C69.7708 16.8021 69.7917 16.7396 69.8125 16.6562C69.8333 16.5729 69.8542 16.5104 69.875 16.4688C69.9167 16.4271 69.9479 16.3958 69.9688 16.375C69.9896 16.3542 70 16.3333 70 16.3125C70 16.2708 70.0104 16.2292 70.0312 16.1875C70.1562 16.0625 70.2292 15.8854 70.25 15.6562L70.0625 15.625L68.8125 15.75H68.3125C67.9792 15.8333 67.6458 15.8854 67.3125 15.9062C66.9792 15.9062 66.6562 15.9375 66.3438 16C66.1562 16 66.0104 16.0104 65.9062 16.0312C65.8229 16.0521 65.7083 16.0729 65.5625 16.0938C65.4167 16.0938 65.2812 16.1042 65.1562 16.125H65C64.9375 16.1458 64.8542 16.1562 64.75 16.1562C64.6667 16.1562 64.5833 16.1667 64.5 16.1875C64.2708 16.25 64.0417 16.2917 63.8125 16.3125C63.6042 16.3333 63.3958 16.3646 63.1875 16.4062C63.0833 16.4271 62.9792 16.4375 62.875 16.4375C62.7708 16.4375 62.6667 16.4583 62.5625 16.5C62.2708 16.5625 61.9583 16.6146 61.625 16.6562C61.3125 16.6979 60.9896 16.7604 60.6562 16.8438C60.4896 16.8438 60.3646 16.8542 60.2812 16.875C60.0312 16.9375 59.7708 16.9896 59.5 17.0312C59.2292 17.0729 58.9688 17.1354 58.7188 17.2188C58.6354 17.2188 58.5625 17.2292 58.5 17.25H58.2812C57.6979 17.4167 57.1042 17.5625 56.5 17.6875C55.3542 17.8958 54.4062 18.125 53.6562 18.375C53.5104 18.375 53.3125 18.4271 53.0625 18.5312C52.9583 18.5729 52.8542 18.5938 52.75 18.5938C52.7292 18.6146 52.6979 18.625 52.6562 18.625C52.2604 18.75 51.875 18.8958 51.5 19.0625H51.4688C51.3021 19.125 51.1354 19.1875 50.9688 19.25C50.8021 19.2917 50.625 19.3542 50.4375 19.4375C50.2708 19.5 50.0729 19.5417 49.8438 19.5625C49.6146 19.5625 49.4375 19.4792 49.3125 19.3125C49.2708 19.25 49.25 19.1875 49.25 19.125C49.25 18.9583 49.3125 18.8021 49.4375 18.6562C49.5833 18.4896 49.9062 18.3542 50.4062 18.25C50.6771 18.1667 51.0104 18.0417 51.4062 17.875C52.2188 17.5625 53.0104 17.2292 53.7812 16.875C53.9271 16.8125 54.0729 16.7604 54.2188 16.7188C54.3854 16.6562 54.5521 16.5833 54.7188 16.5C55.1562 16.2708 55.6042 16.0521 56.0625 15.8438L56.6875 15.5625L58.4375 14.6875L59 14.3438C59.5417 14.1146 60.1875 13.7708 60.9375 13.3125C61 13.2708 61.0729 13.2396 61.1562 13.2188C61.3438 13.0938 61.5625 12.9688 61.8125 12.8438C62.1667 12.6146 62.375 12.4896 62.4375 12.4688C62.5 12.4479 62.5625 12.4167 62.625 12.375L63.5312 11.8125C65.6146 10.5833 66.7917 9.83333 67.0625 9.5625C67.1042 9.52083 67.1667 9.47917 67.25 9.4375C67.3542 9.39583 67.5729 9.25 67.9062 9L68.0625 8.90625L70.625 7.0625L70.9062 6.8125L72.6875 5.40625L72.8125 5.25C73.1042 5.04167 73.375 4.8125 73.625 4.5625C73.8958 4.3125 74.1667 4.08333 74.4375 3.875L74.9062 3.40625C75.2188 3.15625 75.5104 2.875 75.7812 2.5625L76.1875 2.21875L76.4062 1.96875L76.4688 1.9375L77.625 0.65625C77.6875 0.59375 77.7396 0.541667 77.7812 0.5C77.8229 0.4375 77.8646 0.385417 77.9062 0.34375C77.9688 0.302083 78 0.270833 78 0.25C78.1042 0.145833 78.1875 0.09375 78.25 0.09375C78.3125 0.0729167 78.375 0.0416667 78.4375 0C78.9375 0.0208333 79.1875 0.260417 79.1875 0.71875C79.1875 0.947917 79.125 1.15625 79 1.34375C78.9375 1.40625 78.8958 1.45833 78.875 1.5C78.875 1.54167 78.8646 1.58333 78.8438 1.625C78.8229 1.66667 78.7708 1.72917 78.6875 1.8125C78.625 1.89583 78.4896 2.14583 78.2812 2.5625C78.1771 2.77083 78.0521 2.98958 77.9062 3.21875C77.6354 3.65625 77.3854 4.09375 77.1562 4.53125C76.8646 5.05208 76.5729 5.54167 76.2812 6C76.2604 6.04167 76.2396 6.08333 76.2188 6.125C76.2188 6.14583 76.2188 6.17708 76.2188 6.21875L75.5 7.40625L75.3438 7.8125L75.0938 8.25C74.8438 8.64583 74.6875 8.91667 74.625 9.0625C74.5833 9.1875 74.5208 9.3125 74.4375 9.4375C74.375 9.54167 74.3021 9.66667 74.2188 9.8125C74.1562 9.95833 74.0833 10.0938 74 10.2188C73.9792 10.2812 73.9583 10.3438 73.9375 10.4062C73.9167 10.4479 73.8958 10.4896 73.875 10.5312C73.8542 10.5729 73.8333 10.6042 73.8125 10.625C73.7917 10.625 73.7708 10.6458 73.75 10.6875C73.75 10.7083 73.7396 10.7396 73.7188 10.7812C73.7188 10.8021 73.7083 10.8333 73.6875 10.875L73.4062 11.375L73.3125 11.5938C73.0417 12.0729 72.7812 12.5729 72.5312 13.0938C72.5104 13.1146 72.5 13.1562 72.5 13.2188C72.3542 13.4271 72.2292 13.6667 72.125 13.9375C72.1042 13.9792 72.0729 14.0208 72.0312 14.0625C71.9896 14.1042 71.9688 14.1667 71.9688 14.25C72.0104 14.2708 72.1354 14.2812 72.3438 14.2812C72.3646 14.2604 72.3958 14.25 72.4375 14.25H72.6875C72.8542 14.2292 73.1667 14.2188 73.625 14.2188C73.6875 14.1979 73.8333 14.1875 74.0625 14.1875H74.1875C74.4167 14.1667 74.9062 14.1562 75.6562 14.1562C75.9271 14.1562 76.125 14.1458 76.25 14.125L76.5938 14.1562C76.6146 14.1354 76.7292 14.125 76.9375 14.125C77 14.1458 77.1042 14.1562 77.25 14.1562L77.375 14.125L77.75 14.1875H78.125L78.2812 14.1562L78.4062 14.1875C78.5521 14.2083 78.7083 14.2188 78.875 14.2188C79.125 14.2188 79.3646 14.2396 79.5938 14.2812H79.8438C80.0521 14.3229 80.2604 14.3542 80.4688 14.375C80.6979 14.375 80.9167 14.3958 81.125 14.4375H81.3125C81.5208 14.5 81.7396 14.5521 81.9688 14.5938C82.2188 14.6146 82.4583 14.6562 82.6875 14.7188H82.9062C83.0312 14.7604 83.1667 14.8021 83.3125 14.8438C83.4792 14.8854 83.6354 14.9375 83.7812 15L84.0625 15.0312C85.0625 15.3229 85.9167 15.7812 86.625 16.4062C86.6667 16.4271 86.7083 16.4583 86.75 16.5C86.8125 16.5208 86.8542 16.5521 86.875 16.5938C86.9167 16.6354 86.9375 16.6667 86.9375 16.6875C86.9792 16.7917 87.0312 16.8542 87.0938 16.875C87.3021 17.0833 87.4688 17.4479 87.5938 17.9688C87.6146 18.0104 87.625 18.0729 87.625 18.1562V18.375C87.625 18.625 87.6146 18.8021 87.5938 18.9062V19.0938C87.3646 19.8021 87.0417 20.3958 86.625 20.875L86.4375 21.125L86.3438 21.2188C86.2604 21.2812 86.1979 21.3333 86.1562 21.375C86.1354 21.4167 86.0938 21.4583 86.0312 21.5C85.9896 21.5208 85.9479 21.5521 85.9062 21.5938C85.2396 22.2188 84.5 22.7708 83.6875 23.25L83.6562 23.2812L83.0938 23.5625C82.5104 23.9167 81.8854 24.2396 81.2188 24.5312C81.1354 24.5729 81.0938 24.6146 81.0938 24.6562C81.0312 24.6771 80.9792 24.6979 80.9375 24.7188C80.8958 24.7188 80.8438 24.7292 80.7812 24.75C80.7396 24.7708 80.6667 24.8229 80.5625 24.9062C80.4792 24.9688 80.2708 25.0417 79.9375 25.125C79.6875 25.2917 79.5104 25.375 79.4062 25.375C79.1562 25.5 78.3542 25.8333 77 26.375C76.9792 26.3958 76.9479 26.4062 76.9062 26.4062C76.8646 26.4062 76.8229 26.4167 76.7812 26.4375C76.3229 26.625 75.8542 26.8021 75.375 26.9688C74.9167 27.1146 74.4688 27.2708 74.0312 27.4375L73.5625 27.5625C73.3542 27.6667 73.2083 27.7188 73.125 27.7188C73.0625 27.7188 73 27.7292 72.9375 27.75L71.7812 28.125C71.2396 28.3333 70.8542 28.4583 70.625 28.5C70.3958 28.5417 70.1875 28.6042 70 28.6875V28.7188C70.0417 28.7396 70.1146 28.7604 70.2188 28.7812C70.3438 28.7812 70.4583 28.7917 70.5625 28.8125C70.6875 28.8125 70.7812 28.8125 70.8438 28.8125C70.8646 28.7917 70.9271 28.7812 71.0312 28.7812L71.4062 28.8125C71.7396 28.8125 72 28.8333 72.1875 28.875H73.375C73.5625 28.9167 73.75 28.9375 73.9375 28.9375C74.1458 28.9375 74.3438 28.9583 74.5312 29H75.1875C75.375 29.0417 75.5729 29.0625 75.7812 29.0625C75.9896 29.0625 76.1979 29.0833 76.4062 29.125H76.6875C76.8333 29.1667 76.9792 29.1875 77.125 29.1875C77.3958 29.2292 77.6146 29.25 77.7812 29.25C77.9688 29.25 78.0938 29.2604 78.1562 29.2812C78.5104 29.3646 78.8854 29.4167 79.2812 29.4375C79.9271 29.4792 80.3854 29.5417 80.6562 29.625H81.0312L81.5 29.75H81.8125C82.2292 29.8542 82.6562 29.9375 83.0938 30C83.5521 30.0625 83.9896 30.1458 84.4062 30.25H84.6562L86.875 30.75H87.0625C87.2292 30.8125 87.4062 30.8646 87.5938 30.9062L87.875 31C88 31 88.0833 31.0104 88.125 31.0312L89.625 31.4688L90.7188 31.75C90.7812 31.8125 90.8438 31.8542 90.9062 31.875C90.9896 31.8958 91.0833 31.9167 91.1875 31.9375C91.2917 31.9375 91.3958 31.9583 91.5 32L92.6875 32.4062C93.1875 32.6562 93.5104 32.7812 93.6562 32.7812C95.4688 33.5104 97.0417 34.3229 98.375 35.2188C98.7917 35.4479 99.1042 35.6458 99.3125 35.8125C99.5208 35.9792 99.7292 36.1562 99.9375 36.3438C100.792 36.9896 101.521 37.7708 102.125 38.6875L102.219 38.7812C102.719 39.5104 103.094 40.3646 103.344 41.3438C103.406 41.5312 103.438 41.7604 103.438 42.0312C103.438 42.1771 103.458 42.3229 103.5 42.4688C103.5 42.6562 103.49 42.7708 103.469 42.8125L103.438 43.625L103.375 44C103.354 44.0417 103.333 44.1042 103.312 44.1875C103.292 44.25 103.281 44.3438 103.281 44.4688C103.615 44.4688 103.823 44.4583 103.906 44.4375H104.125L104.25 44.4062C104.312 44.4062 104.365 44.4167 104.406 44.4375C104.51 44.4375 104.604 44.4271 104.688 44.4062C104.854 44.4062 105.646 44.3438 107.062 44.2188C107.292 44.2188 107.438 44.2083 107.5 44.1875L108.188 44.1562L108.656 44.125C108.927 44.125 109.094 44.2604 109.156 44.5312C109.156 44.6354 109.115 44.7396 109.031 44.8438C108.969 44.9271 108.906 44.9792 108.844 45C108.635 45.0208 108.427 45.0417 108.219 45.0625C108.01 45.0625 107.823 45.0729 107.656 45.0938C107.49 45.0938 106.979 45.1042 106.125 45.125L104.938 45.1875C104.917 45.1667 104.885 45.1562 104.844 45.1562L104.75 45.1875H103.875L103.031 45.2188C102.781 45.8646 102.521 46.4062 102.25 46.8438C101.417 48.1771 100.417 49.3438 99.25 50.3438C98.1042 51.3646 96.8646 52.2917 95.5312 53.125C95.2604 53.2708 95.0208 53.4062 94.8125 53.5312C94.625 53.6771 94.4375 53.7917 94.25 53.875C93.5833 54.2917 93.1979 54.5104 93.0938 54.5312C92.9896 54.5729 92.9062 54.6146 92.8438 54.6562C92.4062 54.9271 91.9375 55.1667 91.4375 55.375L91.2812 55.5H91.1875C91.1667 55.5208 91.125 55.5417 91.0625 55.5625C91.0208 55.6042 90.9792 55.625 90.9375 55.625C90.9167 55.6458 90.8958 55.6562 90.875 55.6562L90.4375 55.875C90.1042 56.0417 89.9062 56.125 89.8438 56.125C89.8021 56.125 89.7292 56.1562 89.625 56.2188C89.5208 56.2812 89.4375 56.3229 89.375 56.3438C88.7292 56.5938 88.2396 56.8021 87.9062 56.9688C87.8646 56.9688 87.8333 56.9792 87.8125 57H87.6875C87.5208 57.1042 87.3646 57.1875 87.2188 57.25L84.9375 58.0625L84.1875 58.3438C84.0417 58.3438 83.8646 58.3958 83.6562 58.5C83.5729 58.5208 83.4896 58.5417 83.4062 58.5625C83.3438 58.6042 83.2604 58.625 83.1562 58.625L80.9062 59.3438C80.7812 59.3438 80.6771 59.3646 80.5938 59.4062C79.5104 59.7188 78.9271 59.875 78.8438 59.875C78.6771 59.9375 78.2708 60.0417 77.625 60.1875L76.9062 60.375H76.6562C76.6354 60.3958 76.5833 60.4167 76.5 60.4375C76.4375 60.4583 76.3646 60.4688 76.2812 60.4688C76.1979 60.4896 76.1146 60.5104 76.0312 60.5312C75.9688 60.5521 75.8854 60.5729 75.7812 60.5938C75.6979 60.6146 75.6146 60.6354 75.5312 60.6562C75.4688 60.6771 75.1771 60.7292 74.6562 60.8125C74.1979 60.9375 73.8958 61 73.75 61C73.625 61 73.4167 61.0417 73.125 61.125C72.9792 61.1458 72.8333 61.1667 72.6875 61.1875C72.5417 61.2292 72.3854 61.2604 72.2188 61.2812C72.0729 61.3021 71.9062 61.3229 71.7188 61.3438C71.5521 61.3854 71.3958 61.4167 71.25 61.4375C71.125 61.4792 70.9271 61.5 70.6562 61.5C70.4688 61.5625 70.2604 61.6042 70.0312 61.625C69.8229 61.6458 69.625 61.6667 69.4375 61.6875C69.25 61.7292 69.0625 61.7604 68.875 61.7812C68.4792 61.8646 68.0729 61.9167 67.6562 61.9375C67.2396 61.9583 66.8438 62.0104 66.4688 62.0938H66.0938C65.9479 62.1354 65.7708 62.1667 65.5625 62.1875C65.3542 62.2083 65.1458 62.2292 64.9375 62.25C64.75 62.2708 64.5521 62.2812 64.3438 62.2812C64.1562 62.2812 63.9688 62.3021 63.7812 62.3438H63.25C63.0625 62.3854 62.8646 62.4062 62.6562 62.4062C62.4688 62.4062 62.2812 62.4271 62.0938 62.4688H61.625C61.375 62.5104 61.0417 62.5312 60.625 62.5312C60.2083 62.5312 59.8021 62.5521 59.4062 62.5938H59L58.8125 62.5625C58.75 62.5625 58.6771 62.5729 58.5938 62.5938C58.5312 62.6146 58.3438 62.625 58.0312 62.625L57.0938 62.5938L56.4688 62.6562C56.3229 62.9479 56.2083 63.2188 56.125 63.4688C56.0417 63.7396 55.9479 63.9792 55.8438 64.1875L54.5 67.25L54.3438 67.5312L53.9062 68.4688C53.8021 68.6562 53.7083 68.8438 53.625 69.0312C53.5417 69.2396 53.4583 69.3958 53.375 69.5C53.1667 70.0417 53 70.375 52.875 70.5C52.875 70.5417 52.8646 70.5729 52.8438 70.5938C52.7604 70.7812 52.6667 70.9583 52.5625 71.125C52.4583 71.2917 52.3646 71.4896 52.2812 71.7188C52.1562 71.9062 52.0417 72.1042 51.9375 72.3125C51.7917 72.6458 51.6771 72.8542 51.5938 72.9375C51.5938 73.0208 51.4688 73.25 51.2188 73.625C51.0729 73.9167 51 74.0625 51 74.0625L50.1562 75.5C49.6771 76.375 49.1562 77.2188 48.5938 78.0312L47.8438 79.1875C47.8438 79.2083 47.8229 79.2292 47.7812 79.25C47.7604 79.2708 47.75 79.2917 47.75 79.3125C47.2917 80 46.7812 80.625 46.2188 81.1875C45.8438 81.5625 45.5417 81.75 45.3125 81.75L45.0312 81.7812ZM57.7812 16.3438L58.5 16.1875C58.8125 16.1042 59.1354 16.0417 59.4688 16C59.8021 15.9375 60.1354 15.8646 60.4688 15.7812L60.9375 15.7188C61.2292 15.6354 61.5208 15.5833 61.8125 15.5625C62.125 15.5208 62.4271 15.4583 62.7188 15.375C62.8646 15.375 63.0312 15.3542 63.2188 15.3125C63.4062 15.2708 63.6146 15.2396 63.8438 15.2188C64.0729 15.1979 64.2708 15.1771 64.4375 15.1562C64.625 15.1146 64.8021 15.0833 64.9688 15.0625C65.1979 15 65.4375 14.9583 65.6875 14.9375C65.9375 14.9167 66.1771 14.8854 66.4062 14.8438C66.5521 14.8229 66.7083 14.8021 66.875 14.7812C67.0417 14.7604 67.2292 14.7396 67.4375 14.7188C67.6458 14.6979 67.8438 14.6771 68.0312 14.6562C68.2188 14.6354 68.4271 14.6042 68.6562 14.5625H69.0312C69.4062 14.4792 69.7917 14.4271 70.1875 14.4062C70.4375 14.4062 70.6771 14.3854 70.9062 14.3438C71.0312 14.1146 71.1562 13.8646 71.2812 13.5938C71.4271 13.3229 71.5625 13.0625 71.6875 12.8125C71.8125 12.5625 71.9167 12.3333 72 12.125C72.1042 11.8958 72.1979 11.6979 72.2812 11.5312L73.7188 8.625C73.8021 8.47917 73.8854 8.3125 73.9688 8.125C74.0729 7.91667 74.1875 7.70833 74.3125 7.5L74.375 7.25C74.6042 6.89583 74.7917 6.53125 74.9375 6.15625C75.1042 5.78125 75.2917 5.42708 75.5 5.09375L75.8125 4.46875C75.8333 4.42708 75.8542 4.39583 75.875 4.375C75.9167 4.33333 75.9375 4.26042 75.9375 4.15625L75.875 4.1875C75.7708 4.22917 75.6667 4.3125 75.5625 4.4375C75.4792 4.5625 75.2604 4.75 74.9062 5C74.8229 5.0625 74.7396 5.13542 74.6562 5.21875C74.5938 5.30208 74.5104 5.38542 74.4062 5.46875C74.3021 5.55208 74.1875 5.64583 74.0625 5.75C73.9375 5.85417 73.8021 5.94792 73.6562 6.03125L73.5312 6.1875C73.1146 6.5 72.6979 6.82292 72.2812 7.15625C71.8854 7.46875 71.4583 7.79167 71 8.125L70.5625 8.5C68.6875 9.8125 67.6771 10.5104 67.5312 10.5938C67.3854 10.6562 67.25 10.7396 67.125 10.8438C67.0208 10.9271 66.9167 11 66.8125 11.0625L65.0938 12.1562C64.9896 12.2188 64.875 12.2812 64.75 12.3438C64.625 12.4062 64.0729 12.75 63.0938 13.375L62.6875 13.5625C62.3125 13.7917 61.9375 14.0104 61.5625 14.2188C61.2083 14.4062 60.875 14.5938 60.5625 14.7812L59.875 15.125C59.1667 15.5625 58.4271 15.9583 57.6562 16.3125V16.3438H57.7812ZM65.2188 28.6875C65.2604 28.6667 65.3021 28.6562 65.3438 28.6562C65.3854 28.6354 65.4062 28.6146 65.4062 28.5938C66.0938 28.4479 66.4688 28.3646 66.5312 28.3438C66.6146 28.3021 66.6979 28.2708 66.7812 28.25C66.9479 28.25 67.3438 28.1458 67.9688 27.9375L68.1875 27.9062L71.4375 26.9062C71.9375 26.7604 72.4271 26.5938 72.9062 26.4062L73.4375 26.25L75.8438 25.375L77.4062 24.7188C78.0521 24.4688 78.6875 24.1979 79.3125 23.9062C79.4167 23.8646 79.4792 23.8229 79.5 23.7812C79.7708 23.6979 79.9167 23.6458 79.9375 23.625C79.9792 23.5833 80.0104 23.5521 80.0312 23.5312C80.0521 23.5104 80.0833 23.5 80.125 23.5C80.5208 23.3125 80.8958 23.1146 81.25 22.9062C81.2917 22.8854 81.3229 22.875 81.3438 22.875C81.3854 22.8542 81.4271 22.8333 81.4688 22.8125C81.5312 22.7917 81.5833 22.7604 81.625 22.7188C81.7917 22.5938 81.9062 22.5208 81.9688 22.5C82.0312 22.4792 82.0729 22.4583 82.0938 22.4375C82.1354 22.4167 82.1771 22.3854 82.2188 22.3438C82.3021 22.3438 82.3646 22.3229 82.4062 22.2812C82.4479 22.2188 82.4896 22.1771 82.5312 22.1562C82.9896 21.9062 83.4271 21.625 83.8438 21.3125C83.8646 21.2708 84.0312 21.1354 84.3438 20.9062L84.5 20.75C84.7708 20.5625 85 20.3333 85.1875 20.0625C85.2083 20.0417 85.2396 20.0208 85.2812 20C85.3229 19.9583 85.3542 19.9167 85.375 19.875C85.3958 19.8333 85.4167 19.8021 85.4375 19.7812C85.7292 19.4896 85.9167 19.0938 86 18.5938L86.0312 18.4375C86.0312 18.3125 85.9583 18.1562 85.8125 17.9688L85.7812 17.9062C85.3438 17.3854 84.7604 17.0104 84.0312 16.7812C83.7188 16.6146 83.1562 16.4271 82.3438 16.2188H82.3125C82.2083 16.2188 82.1458 16.2083 82.125 16.1875L81.625 16.0625H81.4062L80.9375 15.9688L80.5625 15.875H80.375C79.875 15.8125 79.5625 15.7708 79.4375 15.75C79.3125 15.7083 79.1979 15.6875 79.0938 15.6875C79.0104 15.6875 78.9271 15.6771 78.8438 15.6562C78.7812 15.6354 78.7188 15.625 78.6562 15.625L78.5 15.6562C78.4167 15.6562 78.3021 15.6458 78.1562 15.625C78.0312 15.6042 77.875 15.5938 77.6875 15.5938C77.5 15.5938 77.3229 15.5729 77.1562 15.5312L76.2812 15.5H75.5625C75.4375 15.4792 75.25 15.4688 75 15.4688H74.125C74.0833 15.4896 74.0312 15.5 73.9688 15.5L73.75 15.4688L73.1562 15.5H72.3125C72.125 15.5417 71.7917 15.5625 71.3125 15.5625C71.1042 15.8958 70.9167 16.25 70.75 16.625C70.75 16.6667 70.7292 16.7083 70.6875 16.75C70.6667 16.7708 70.6458 16.7917 70.625 16.8125C70.5833 16.9792 70.4271 17.3333 70.1562 17.875C69.9062 18.3125 69.6875 18.7708 69.5 19.25C69.3333 19.5 69.25 19.6458 69.25 19.6875C69.25 19.7083 69.2396 19.7396 69.2188 19.7812C69.1979 19.8229 69.1667 19.875 69.125 19.9375C69.0833 19.9792 69.0521 20.0312 69.0312 20.0938C69.0312 20.1354 69.0208 20.1667 69 20.1875V20.25C68.875 20.4375 68.8021 20.5625 68.7812 20.625C68.7812 20.6667 68.7708 20.7083 68.75 20.75C68.75 20.7708 68.7292 20.7917 68.6875 20.8125C68.6667 20.8333 68.6458 20.875 68.625 20.9375C68.6042 20.9792 68.5625 21.0938 68.5 21.2812C68.4375 21.3438 68.3958 21.4062 68.375 21.4688C68.3542 21.5104 68.3125 21.625 68.25 21.8125C68.125 21.9375 68 22.1875 67.875 22.5625L67.75 22.7188C67.75 22.8021 67.7396 22.8542 67.7188 22.875C67.7188 22.8958 67.6875 22.9375 67.625 23V23.125L67.5 23.2812V23.375C67.4583 23.4792 67.3958 23.5729 67.3125 23.6562C67.25 23.7396 67.1979 23.8646 67.1562 24.0312C67.1146 24.1771 67.0208 24.3646 66.875 24.5938C66.7708 24.9062 66.6146 25.2396 66.4062 25.5938C66.3646 25.6562 66.3333 25.7292 66.3125 25.8125C66.2917 25.8958 66.2708 25.9688 66.25 26.0312C66.2292 26.0729 66.2083 26.1042 66.1875 26.125C66.1667 26.125 66.1458 26.1354 66.125 26.1562V26.3125C65.625 27.25 65.2917 27.9583 65.125 28.4375C65.1042 28.4583 65.0833 28.4792 65.0625 28.5C65.0417 28.5 65.0312 28.5312 65.0312 28.5938C65.0312 28.6562 65.0625 28.6875 65.125 28.6875H65.2188ZM58.5938 44.625C58.8021 44.625 58.9792 44.6146 59.125 44.5938C59.1458 44.5729 59.1562 44.5625 59.1562 44.5625C59.1562 44.5417 59.1562 44.4896 59.1562 44.4062L59.125 44L58.875 42.625L58.8438 42.5938H58.7812L58.6875 42.8125C58.6458 43 58.6042 43.125 58.5625 43.1875C58.5208 43.2292 58.4896 43.2812 58.4688 43.3438C58.4688 43.3854 58.4479 43.4271 58.4062 43.4688C58.3854 43.5104 58.375 43.5625 58.375 43.625C58.375 43.6667 58.3542 43.7083 58.3125 43.75C58.2708 43.7917 58.25 43.8438 58.25 43.9062C58.25 43.9479 58.2292 43.9896 58.1875 44.0312C58.1458 44.0729 58.125 44.125 58.125 44.1875C58.125 44.25 58.1042 44.3021 58.0625 44.3438C58.0208 44.3854 58 44.4583 58 44.5625V44.5938C58.0208 44.5938 58.0312 44.6042 58.0312 44.625C58.0521 44.625 58.1042 44.625 58.1875 44.625H58.5938ZM32.5625 44.75C32.8125 44.75 33.0417 44.7396 33.25 44.7188H34.2188C34.9271 44.7188 35.375 44.7083 35.5625 44.6875H36.7812C36.9896 44.6667 37.2188 44.6562 37.4688 44.6562C37.6146 44.6562 37.6979 44.6667 37.7188 44.6875H38.125C38.2292 44.6667 38.5 44.6562 38.9375 44.6562H40.1875L40.6875 44.625L40.9375 44.6562L41.125 44.625H56.3125L57.1562 44.5938H57.3438C57.3438 44.5104 57.3646 44.4271 57.4062 44.3438L57.5 44.1875V44.0625C57.5208 44.0417 57.5417 44.0208 57.5625 44C57.6042 43.9583 57.625 43.8854 57.625 43.7812C57.6458 43.7604 57.6562 43.7396 57.6562 43.7188C57.6771 43.6979 57.6979 43.6771 57.7188 43.6562C57.7396 43.6354 57.75 43.6146 57.75 43.5938C57.75 43.5521 57.75 43.5208 57.75 43.5C57.7708 43.4583 57.8125 43.4062 57.875 43.3438V43.1562C57.8958 43.1562 57.9062 43.1458 57.9062 43.125C57.9271 43.1042 57.9375 43.0729 57.9375 43.0312C57.9583 42.9896 57.9896 42.9271 58.0312 42.8438L58.125 42.75C58.125 42.625 58.1354 42.5521 58.1562 42.5312C58.1979 42.5104 58.2292 42.4896 58.25 42.4688V42.2812C58.2708 42.2604 58.2812 42.25 58.2812 42.25C58.3021 42.2292 58.3229 42.2083 58.3438 42.1875C58.3646 42.1667 58.375 42.1042 58.375 42C58.3958 42 58.4062 41.9896 58.4062 41.9688C58.4271 41.9479 58.4375 41.9271 58.4375 41.9062C58.4583 41.8854 58.4688 41.8542 58.4688 41.8125C58.4896 41.7708 58.5 41.7396 58.5 41.7188C58.5208 41.6771 58.5417 41.6458 58.5625 41.625L58.5938 41.5938C58.5938 41.5312 58.5625 41.4375 58.5 41.3125L58.4688 41.25L58.1562 40.375C57.6146 39.125 57.0312 38.125 56.4062 37.375L56.125 37.0625C55.9583 36.8542 55.7812 36.6562 55.5938 36.4688C54.8438 35.7188 54 35.0625 53.0625 34.5C49.4583 32.3542 44.8125 31.2708 39.125 31.25H38.0625C37.5833 31.25 37.2083 31.2708 36.9375 31.3125H36.625C36.5208 31.3125 36.4271 31.3229 36.3438 31.3438H35.6562C35.5938 31.3646 35.5208 31.375 35.4375 31.375H35.1562C34.9688 31.4167 34.7812 31.4375 34.5938 31.4375C34.4271 31.4375 34.2604 31.4583 34.0938 31.5H33.4375C33.3125 31.5417 33.1875 31.5729 33.0625 31.5938C32.9375 31.5938 32.8229 31.6042 32.7188 31.625L31.1875 31.7812C30.75 31.8229 30.3438 31.8854 29.9688 31.9688C29.7604 31.9688 29.4896 32.0104 29.1562 32.0938L28.875 32.125H28.7812C28.6979 32.125 28.625 32.1354 28.5625 32.1562C28.2708 32.2188 27.9688 32.2812 27.6562 32.3438C27.3646 32.3854 27.0938 32.4375 26.8438 32.5L26.5 32.5312L25 32.8438L24.625 32.9062L21.4062 33.6562C21.1562 33.7188 20.9167 33.7812 20.6875 33.8438C20.4583 33.8854 20.3333 33.9167 20.3125 33.9375C20.2917 33.9583 20.2604 33.9792 20.2188 34C20.0729 34 19.9167 34.0417 19.75 34.125H19.5C19 34.3125 18.4792 34.4792 17.9375 34.625C17.3958 34.75 16.8646 34.9062 16.3438 35.0938L16.1562 35.125C16.1146 35.1458 16.0729 35.1667 16.0312 35.1875C16.0104 35.2083 15.9792 35.2188 15.9375 35.2188C15.9167 35.2188 15.8854 35.2292 15.8438 35.25H15.6875C15.3125 35.3958 14.9167 35.5312 14.5 35.6562C13.9792 35.8229 13.4792 36.0104 13 36.2188C12.8542 36.2188 12.75 36.2396 12.6875 36.2812C12.6458 36.3229 12.5938 36.3542 12.5312 36.375C12.4688 36.375 12.4062 36.3854 12.3438 36.4062C12.0521 36.5521 11.75 36.6667 11.4375 36.75L10.75 37C10.1667 37.25 9.84375 37.375 9.78125 37.375C9.71875 37.375 9.63542 37.4062 9.53125 37.4688C9.44792 37.5312 9.35417 37.5833 9.25 37.625C9.16667 37.6458 8.79167 37.8021 8.125 38.0938C6 38.9479 4.07292 39.9896 2.34375 41.2188C1.92708 41.4896 1.57292 41.8229 1.28125 42.2188C1.28125 42.2396 1.21875 42.3333 1.09375 42.5L1.0625 42.6562C1.0625 42.8229 1.14583 42.9688 1.3125 43.0938C1.47917 43.2188 1.60417 43.2812 1.6875 43.2812C2.04167 43.4688 2.4375 43.6146 2.875 43.7188L3.03125 43.7812C3.17708 43.8229 3.32292 43.8542 3.46875 43.875C3.61458 43.875 3.75 43.8854 3.875 43.9062C4.20833 43.9896 4.55208 44.0521 4.90625 44.0938C5.26042 44.1146 5.59375 44.1667 5.90625 44.25L6.5625 44.2812L7.375 44.375H7.84375C8.07292 44.4167 8.30208 44.4375 8.53125 44.4375C8.78125 44.4375 9.02083 44.4583 9.25 44.5H9.5625C9.8125 44.5417 10.0938 44.5625 10.4062 44.5625H10.875C11.0833 44.5625 11.2812 44.5833 11.4688 44.625L14.4062 44.6562L14.7812 44.6875H15.6562C15.8021 44.7083 15.9688 44.7188 16.1562 44.7188H17.0625C17.2917 44.7396 17.5417 44.75 17.8125 44.75H19.9062L20.375 44.7188C20.4167 44.7188 20.4688 44.7292 20.5312 44.75C20.5938 44.75 20.6562 44.7396 20.7188 44.7188L20.9688 44.75H22H23.9375L24.2188 44.7188L24.3125 44.75H30.5625C30.7708 44.75 30.9271 44.7396 31.0312 44.7188C31.1146 44.7188 31.1875 44.7292 31.25 44.75H31.5C31.5417 44.7292 31.6042 44.7188 31.6875 44.7188L32.0625 44.75L32.2812 44.7188L32.5625 44.75ZM45.3438 80.6562L45.6562 80.3125C45.7604 80.2292 45.8438 80.1458 45.9062 80.0625L46.4062 79.4062C47.2396 78.3854 48.1562 77 49.1562 75.25L50.125 73.6562C50.3125 73.3021 50.5208 72.9479 50.75 72.5938L50.7812 72.4688C50.9479 72.1979 51.1146 71.8958 51.2812 71.5625C51.4479 71.25 51.6354 70.9271 51.8438 70.5938C51.8438 70.5521 51.8438 70.5104 51.8438 70.4688C51.8646 70.4479 51.9479 70.3125 52.0938 70.0625C52.1354 69.9792 52.1667 69.9062 52.1875 69.8438C52.2292 69.7812 52.2604 69.7083 52.2812 69.625C52.4062 69.4583 52.5104 69.2708 52.5938 69.0625H52.625V68.9688L52.6562 68.9062C52.8854 68.5104 53.0833 68.1042 53.25 67.6875L53.4688 67.3125C53.5729 67.1042 53.625 66.9792 53.625 66.9375C53.625 66.9167 53.6354 66.8958 53.6562 66.875C53.6771 66.8542 53.6875 66.8333 53.6875 66.8125C53.7083 66.7917 53.7292 66.7708 53.75 66.75C54.1042 65.9792 54.4479 65.1979 54.7812 64.4062L55.0625 63.75C55.1667 63.5208 55.2604 63.2812 55.3438 63.0312L55.5 62.75L55.4688 62.6562L55.375 62.625H54.4375L52.8438 62.5938C52.6979 62.5729 52.4062 62.5625 51.9688 62.5625H51.4375C51.25 62.5208 51.0417 62.5 50.8125 62.5V62.5312C50.7917 62.5521 50.7708 62.5729 50.75 62.5938C50.75 62.6146 50.75 62.6771 50.75 62.7812C50.6875 62.8438 50.6458 62.8854 50.625 62.9062C50.625 62.9271 50.625 62.9896 50.625 63.0938C50.5625 63.1562 50.5208 63.2083 50.5 63.25C50.5 63.3125 50.4896 63.3542 50.4688 63.375C50.4688 63.4167 50.4479 63.4688 50.4062 63.5312L50.375 63.7812C50.3125 63.8438 50.2708 63.8854 50.25 63.9062C50.25 63.9271 50.2396 63.9688 50.2188 64.0312C50.2188 64.1146 50.2083 64.1667 50.1875 64.1875C50.1667 64.2083 50.1458 64.2292 50.125 64.25C50.125 64.2917 50.125 64.3333 50.125 64.375C50.125 64.4375 50.1042 64.4792 50.0625 64.5C50.0417 64.5417 50.0208 64.5833 50 64.625V64.8125C49.9375 64.875 49.8958 64.9167 49.875 64.9375C49.875 64.9583 49.875 65.0208 49.875 65.125C49.8125 65.1875 49.7812 65.2396 49.7812 65.2812C49.7812 65.3229 49.7604 65.3958 49.7188 65.5C49.7188 65.5208 49.6875 65.5625 49.625 65.625V65.75C49.6042 65.7917 49.5938 65.8229 49.5938 65.8438C49.5938 65.8646 49.5833 65.8854 49.5625 65.9062C49.5417 65.9271 49.5208 65.9479 49.5 65.9688C49.5 65.9896 49.4896 66.0312 49.4688 66.0938C49.4688 66.1562 49.4583 66.1979 49.4375 66.2188C49.4167 66.2604 49.3958 66.3125 49.375 66.375C49.375 66.4583 49.3646 66.5104 49.3438 66.5312C49.3438 66.5729 49.3333 66.5938 49.3125 66.5938C49.2917 66.6146 49.2812 66.6354 49.2812 66.6562C49.2812 66.6979 49.2708 66.7396 49.25 66.7812V66.875C49.2292 66.8958 49.1979 66.9167 49.1562 66.9375C49.1354 66.9792 49.125 67.0521 49.125 67.1562C49.1042 67.1771 49.0938 67.1979 49.0938 67.2188C49.0938 67.2604 49.0833 67.2917 49.0625 67.3125C49.0417 67.3333 49.0208 67.375 49 67.4375C49 67.5208 48.9896 67.5729 48.9688 67.5938C48.9688 67.6354 48.9375 67.6875 48.875 67.75V67.9375C48.8125 68 48.7812 68.0417 48.7812 68.0625C48.7812 68.0833 48.7708 68.1146 48.75 68.1562C48.75 68.2188 48.7083 68.3333 48.625 68.5C48.625 68.625 48.5833 68.7292 48.5 68.8125V68.9375C48.4375 69.0625 48.3958 69.1354 48.375 69.1562C48.375 69.1979 48.375 69.2708 48.375 69.375C48.3125 69.4375 48.2708 69.4792 48.25 69.5C48.25 69.5417 48.25 69.5938 48.25 69.6562L48.125 69.9062C48.125 70.0312 48.1042 70.1146 48.0625 70.1562C48.0417 70.1979 48.0208 70.2292 48 70.25C48 70.2917 48 70.3646 48 70.4688L47.875 70.6562C47.875 70.7604 47.8646 70.8229 47.8438 70.8438C47.8438 70.8646 47.8229 70.8958 47.7812 70.9375C47.7604 71 47.75 71.0938 47.75 71.2188C47.6875 71.2812 47.6458 71.3333 47.625 71.375C47.625 71.4167 47.6146 71.4583 47.5938 71.5C47.5938 71.5625 47.5938 71.6042 47.5938 71.625C47.2188 72.6667 46.875 73.75 46.5625 74.875C46.2708 75.75 46.125 76.25 46.125 76.375C46.1042 76.4167 46.0833 76.4583 46.0625 76.5C46.0417 76.5417 46.0208 76.5833 46 76.625C46 76.6875 46 76.7708 46 76.875C45.7708 77.625 45.5625 78.4583 45.375 79.375C45.375 79.5417 45.3646 79.6979 45.3438 79.8438C45.3229 80.0104 45.2917 80.1458 45.25 80.25C45.25 80.4792 45.2708 80.6042 45.3125 80.625V80.6562H45.3438ZM55.625 61.5312L55.9688 61.5L56.2188 60.875L56.625 59.7812L57.0938 58.375C57.2188 58.0833 57.2812 57.8854 57.2812 57.7812C57.6562 56.7396 57.9688 55.6354 58.2188 54.4688L58.625 52.9062V52.75L58.9062 51.4375L58.875 51.3438L58.9062 51.0938C58.9688 50.8854 59.0104 50.6562 59.0312 50.4062C59.0521 50.1771 59.0833 49.9583 59.125 49.75V49.5312L59.2188 48.75L59.2812 47.6875L59.25 47.5312C59.25 47.4062 59.2604 47.2917 59.2812 47.1875C59.3021 47.0625 59.3125 46.9271 59.3125 46.7812C59.3125 46.6146 59.3021 46.4688 59.2812 46.3438L59.25 45.5938V45.1875L59.1875 45.125H57.8125L57.625 45.3125V45.4062C57.6042 45.4271 57.5833 45.4479 57.5625 45.4688C57.5625 45.4896 57.5521 45.5 57.5312 45.5C57.5312 45.6042 57.5104 45.6875 57.4688 45.75C57.4271 45.7917 57.3958 45.8333 57.375 45.875C57.375 45.8958 57.375 45.9479 57.375 46.0312C57.3333 46.0729 57.3021 46.125 57.2812 46.1875C57.2604 46.25 57.2396 46.3021 57.2188 46.3438C57.2188 46.3646 57.2083 46.3854 57.1875 46.4062C57.1667 46.4271 57.1562 46.4479 57.1562 46.4688C57.1562 46.4896 57.1458 46.5208 57.125 46.5625V46.6562C57.1042 46.6771 57.0833 46.6979 57.0625 46.7188C57.0625 46.7188 57.0521 46.7292 57.0312 46.75C57.0104 46.7708 56.9896 46.8229 56.9688 46.9062C56.9688 46.9688 56.9479 47.0104 56.9062 47.0312C56.8854 47.0312 56.875 47.0938 56.875 47.2188C56.875 47.2396 56.8646 47.2604 56.8438 47.2812C56.8438 47.3021 56.8333 47.3229 56.8125 47.3438C56.7917 47.3438 56.7708 47.3542 56.75 47.375V47.5625L56.6875 47.625C56.6458 47.6875 56.6146 47.75 56.5938 47.8125C56.5729 47.875 56.5417 47.9375 56.5 48C56.5 48.0833 56.4896 48.1354 56.4688 48.1562C56.4688 48.1771 56.4375 48.2188 56.375 48.2812V48.4688C56.3542 48.4896 56.3333 48.5104 56.3125 48.5312C56.2917 48.5312 56.2708 48.5521 56.25 48.5938C56.25 48.6146 56.25 48.6667 56.25 48.75C56.1875 48.8125 56.1458 48.875 56.125 48.9375C56.125 49 56.1146 49.0417 56.0938 49.0625C56.0938 49.0625 56.0729 49.0938 56.0312 49.1562C56.0104 49.1979 56 49.25 56 49.3125C56 49.3542 55.9896 49.3854 55.9688 49.4062C55.9479 49.4271 55.9375 49.4479 55.9375 49.4688H55.9062V49.5C55.8854 49.5417 55.8646 49.5833 55.8438 49.625C55.8438 49.6458 55.8438 49.6667 55.8438 49.6875C55.8438 49.7083 55.8333 49.7396 55.8125 49.7812C55.7917 49.8229 55.7708 49.8542 55.75 49.875C55.75 49.9167 55.7396 49.9479 55.7188 49.9688C55.7188 50.0104 55.6875 50.0625 55.625 50.125V50.2812C55.5625 50.3438 55.5208 50.3854 55.5 50.4062C55.5 50.4479 55.4896 50.5 55.4688 50.5625C55.4479 50.625 55.4167 50.6875 55.375 50.75C55.375 50.8333 55.3646 50.8854 55.3438 50.9062C55.3438 50.9271 55.3333 50.9375 55.3125 50.9375C55.3125 50.9583 55.3021 50.9792 55.2812 51C55.2812 51.0208 55.2708 51.0521 55.25 51.0938V51.2188C55.1875 51.2812 55.1458 51.3229 55.125 51.3438C55.125 51.3646 55.125 51.3854 55.125 51.4062C55.125 51.4479 55.1146 51.4792 55.0938 51.5C55.0938 51.5417 55.0625 51.5938 55 51.6562C55 51.7396 54.9896 51.7917 54.9688 51.8125C54.9688 51.8333 54.9583 51.8542 54.9375 51.875C54.9167 51.8958 54.9062 51.9167 54.9062 51.9375C54.9062 51.9583 54.8958 51.9896 54.875 52.0312V52.125C54.8125 52.1875 54.7708 52.2292 54.75 52.25C54.75 52.2917 54.7396 52.3333 54.7188 52.375C54.7188 52.4375 54.6979 52.4792 54.6562 52.5C54.6354 52.5417 54.625 52.6146 54.625 52.7188C54.625 52.7396 54.6146 52.7604 54.5938 52.7812C54.5938 52.8021 54.5625 52.8438 54.5 52.9062C54.5 53.0104 54.4792 53.0729 54.4375 53.0938C54.4167 53.1354 54.3958 53.1667 54.375 53.1875C54.375 53.2292 54.375 53.2917 54.375 53.375C54.3125 53.4375 54.2708 53.5 54.25 53.5625C54.25 53.625 54.2396 53.6667 54.2188 53.6875C54.2188 53.7083 54.1875 53.75 54.125 53.8125V53.9688C54.0625 54.0312 54.0208 54.0729 54 54.0938C54 54.1354 54 54.2083 54 54.3125C53.9375 54.375 53.8958 54.4167 53.875 54.4375C53.875 54.4583 53.875 54.5104 53.875 54.5938C53.8125 54.6562 53.7812 54.6979 53.7812 54.7188C53.7812 54.7604 53.7708 54.8021 53.75 54.8438V54.9688C53.7292 54.9896 53.6979 55.0104 53.6562 55.0312C53.6354 55.0521 53.625 55.0833 53.625 55.125C53.625 55.1875 53.6146 55.2292 53.5938 55.25C53.5938 55.2917 53.5729 55.3333 53.5312 55.375C53.5104 55.4375 53.4896 55.4896 53.4688 55.5312C53.4688 55.5729 53.4583 55.6042 53.4375 55.625C53.4167 55.6458 53.4062 55.6667 53.4062 55.6875C53.4062 55.7292 53.3958 55.7708 53.375 55.8125V55.9062C53.3125 55.9688 53.2708 56.0104 53.25 56.0312C53.25 56.0521 53.25 56.1146 53.25 56.2188L53.125 56.375V56.4688L53 56.6562V56.8438C52.9375 56.9062 52.8958 56.9479 52.875 56.9688C52.875 57.0104 52.8646 57.0625 52.8438 57.125C52.8438 57.1875 52.8333 57.2292 52.8125 57.25C52.7917 57.2708 52.7708 57.3021 52.75 57.3438V57.4688L52.625 57.625V57.8125C52.5625 57.875 52.5208 57.9167 52.5 57.9375C52.5 57.9792 52.5 58.0417 52.5 58.125L52.4688 58.2188C52.4271 58.2812 52.3958 58.3229 52.375 58.3438C52.375 58.3854 52.3646 58.4167 52.3438 58.4375C52.3438 58.4792 52.3125 58.5312 52.25 58.5938V58.8125C52.2292 58.8125 52.2083 58.8229 52.1875 58.8438C52.1875 58.8646 52.1771 58.875 52.1562 58.875C52.1354 58.9583 52.1146 59.0208 52.0938 59.0625C52.0729 59.125 52.0417 59.1875 52 59.25C52 59.3542 51.9896 59.4271 51.9688 59.4688C51.9688 59.5104 51.9375 59.5625 51.875 59.625C51.875 59.6875 51.8646 59.7396 51.8438 59.7812V59.8125C51.8438 59.8333 51.8333 59.8438 51.8125 59.8438C51.7917 59.8646 51.7708 59.8854 51.75 59.9062C51.75 59.9479 51.7396 60 51.7188 60.0625C51.7188 60.125 51.6875 60.1875 51.625 60.25C51.625 60.3542 51.6146 60.4167 51.5938 60.4375C51.5938 60.4583 51.5625 60.5 51.5 60.5625V60.75C51.4792 60.7917 51.4583 60.8229 51.4375 60.8438C51.4167 60.8854 51.3854 60.9167 51.3438 60.9375C51.3229 60.9792 51.3125 61.0312 51.3125 61.0938C51.3125 61.1562 51.3125 61.1979 51.3125 61.2188C51.3125 61.2604 51.3438 61.2812 51.4062 61.2812C51.4896 61.2812 51.5625 61.2917 51.625 61.3125C51.7083 61.3333 51.8021 61.3438 51.9062 61.3438C52.0104 61.3438 52.1146 61.3542 52.2188 61.375L52.9375 61.4062H53.1875C53.4583 61.4062 53.7083 61.4271 53.9375 61.4688H54.375C54.5208 61.4896 54.8229 61.5 55.2812 61.5L55.625 61.5312ZM58.1562 61.5625C58.9062 61.5625 59.7188 61.5417 60.5938 61.5L60.75 61.5312C60.8958 61.5312 61.0521 61.5208 61.2188 61.5C61.3854 61.5 61.5104 61.4896 61.5938 61.4688C61.6979 61.4479 61.7812 61.4375 61.8438 61.4375L62.0312 61.4688C62.1562 61.4688 62.2708 61.4583 62.375 61.4375C62.5 61.4167 62.625 61.4062 62.75 61.4062H62.9375L63.625 61.375C63.8125 61.3333 64.0208 61.3125 64.25 61.3125C64.4792 61.3125 64.9375 61.2812 65.625 61.2188C65.9167 61.1771 66.2188 61.1458 66.5312 61.125C66.8646 61.1042 67.1771 61.0729 67.4688 61.0312C68.0938 60.9479 68.5417 60.8958 68.8125 60.875C69.1042 60.8542 69.3542 60.8125 69.5625 60.75L70.9688 60.5938C71.4896 60.5312 71.9167 60.4583 72.25 60.375H72.4688C73.1354 60.2083 73.5833 60.125 73.8125 60.125L75.375 59.7812C76 59.6771 76.6146 59.5417 77.2188 59.375H77.4062C77.4896 59.3542 77.5625 59.3229 77.625 59.2812C77.7083 59.2604 77.7812 59.2396 77.8438 59.2188C77.9271 59.2188 78 59.2188 78.0625 59.2188C78.6458 59.0729 79.0417 58.9583 79.25 58.875H79.375L80.2812 58.625L81.3125 58.3438C81.9583 58.1562 82.5833 57.9583 83.1875 57.75C83.3333 57.75 83.4167 57.7292 83.4375 57.6875C83.4583 57.6667 83.4792 57.6458 83.5 57.625C83.5417 57.625 83.5833 57.625 83.625 57.625C83.6667 57.625 83.6979 57.6146 83.7188 57.5938C83.7396 57.5938 83.7812 57.5729 83.8438 57.5312C83.9271 57.5104 83.9896 57.5 84.0312 57.5C84.0729 57.5 84.2188 57.4479 84.4688 57.3438L84.9062 57.2188C85.5521 56.9271 86.0938 56.7292 86.5312 56.625C86.5938 56.5625 86.6562 56.5208 86.7188 56.5C86.7812 56.4792 86.8438 56.4583 86.9062 56.4375C86.9688 56.4167 87.3125 56.2812 87.9375 56.0312L88.9062 55.625L89.2812 55.5L89.7188 55.25C90.0312 55.1458 90.4479 54.9479 90.9688 54.6562C90.9896 54.6354 91.0208 54.625 91.0625 54.625C91.1042 54.625 91.1354 54.6146 91.1562 54.5938C91.3438 54.5104 91.5208 54.4167 91.6875 54.3125L91.9375 54.2188C92.3333 53.9688 92.7396 53.7396 93.1562 53.5312C94.3646 52.8646 95.4792 52.1458 96.5 51.375L97.25 50.875L97.8438 50.4062L98.5938 49.7188C98.8021 49.5521 98.9792 49.3958 99.125 49.25C99.2708 49.0833 99.3646 48.9896 99.4062 48.9688C99.6146 48.7604 99.8125 48.5312 100 48.2812L100.25 48.0312C100.521 47.7396 100.76 47.4167 100.969 47.0625C101.031 46.9583 101.104 46.8646 101.188 46.7812C101.375 46.4688 101.49 46.2708 101.531 46.1875C101.573 46.0833 101.625 45.9792 101.688 45.875L101.719 45.8438C101.865 45.5729 101.948 45.375 101.969 45.25C101.948 45.2292 101.927 45.2188 101.906 45.2188C101.885 45.1979 101.802 45.1875 101.656 45.1875L101.25 45.2188H100.031C99.0104 45.2188 98.375 45.2292 98.125 45.25L97.9375 45.2188C97.8125 45.2188 97.6875 45.2292 97.5625 45.25C97.4583 45.25 97.3438 45.2396 97.2188 45.2188L96.9375 45.25H96.4375C96.2083 45.25 96.0729 45.2396 96.0312 45.2188H95.9062C95.8854 45.2396 95.8542 45.25 95.8125 45.25C95.7083 45.25 95.6146 45.2396 95.5312 45.2188L94.7188 45.25L94.6875 45.2188L94.2812 45.25C94.1771 45.25 94.0938 45.2396 94.0312 45.2188L92.3438 45.25C91.9688 45.25 91.7604 45.2396 91.7188 45.2188H91.5938C91.5312 45.2396 91.3646 45.25 91.0938 45.25H90.4375C90.375 45.25 90.3021 45.25 90.2188 45.25C90.1562 45.2292 90 45.2188 89.75 45.2188C89.7292 45.2396 89.6875 45.25 89.625 45.25C89.5 45.2292 89.3021 45.2188 89.0312 45.2188H87.2188L86.5312 45.1875C86.3021 45.1875 86.0625 45.1979 85.8125 45.2188C85.5833 45.2188 85.3333 45.2083 85.0625 45.1875L84.75 45.2188L83.75 45.1875L83.0625 45.2188L82.8125 45.1875L81.0938 45.1562C81.0104 45.1562 80.9167 45.1667 80.8125 45.1875C80.7083 45.1875 80.2083 45.1875 79.3125 45.1875C78.9167 45.1667 78.2396 45.1562 77.2812 45.1562H75.4688H72.1562C71.6146 45.1354 67.6354 45.125 60.2188 45.125C60.1771 45.1667 60.1458 45.2083 60.125 45.25C60.125 45.2917 60.125 45.3958 60.125 45.5625L60.1562 46C60.1562 46.3958 60.1667 46.625 60.1875 46.6875C60.1875 46.9375 60.1667 47.1771 60.125 47.4062C60.1458 47.4062 60.1562 47.4375 60.1562 47.5C60.1562 47.7083 60.1458 47.8438 60.125 47.9062V48.2188C60.1042 48.3229 60.0938 48.4375 60.0938 48.5625C60.0938 48.6667 60.0833 48.7604 60.0625 48.8438V49.0625C60.0417 49.1458 60.0312 49.2396 60.0312 49.3438C60.0312 49.4479 60.0208 49.5521 60 49.6562C59.9792 49.7812 59.9583 49.9062 59.9375 50.0312C59.9375 50.1771 59.9167 50.3125 59.875 50.4375V50.625C59.8333 50.8125 59.8021 51.0208 59.7812 51.25C59.6979 51.7708 59.6458 52.0521 59.625 52.0938C59.625 52.1562 59.5833 52.3542 59.5 52.6875C59.4792 52.8958 59.4375 53.0833 59.375 53.25C59.375 53.3333 59.3646 53.4062 59.3438 53.4688C59.3438 53.5521 59.3333 53.6354 59.3125 53.7188C59.25 53.9479 59.1979 54.1771 59.1562 54.4062C59.1146 54.6354 59.0521 54.875 58.9688 55.125C58.8854 55.3958 58.8021 55.6875 58.7188 56C58.6146 56.3958 58.5 56.7708 58.375 57.125C58.375 57.2917 58.3333 57.4583 58.25 57.625C58.0833 58.125 57.9896 58.3958 57.9688 58.4375C57.9688 58.4792 57.9688 58.5208 57.9688 58.5625C57.8646 58.8125 57.7708 59.0729 57.6875 59.3438C57.6042 59.6146 57.5104 59.8854 57.4062 60.1562C57.3646 60.2396 57.3333 60.3229 57.3125 60.4062C57.2917 60.5104 57.25 60.6146 57.1875 60.7188C57.1458 60.8438 57.1042 60.9792 57.0625 61.125C57.0208 61.1875 57 61.25 57 61.3125C56.9583 61.3542 56.9375 61.4167 56.9375 61.5C56.9583 61.5208 56.9792 61.5312 57 61.5312H57.0312C57.0729 61.5312 57.0938 61.5312 57.0938 61.5312C57.1146 61.5521 57.1667 61.5625 57.25 61.5625C57.2708 61.5417 57.3021 61.5312 57.3438 61.5312C57.5312 61.5521 57.8021 61.5625 58.1562 61.5625ZM92.9062 44.625C93.4062 44.6042 94.0417 44.5938 94.8125 44.5938L96.1875 44.5625L96.6562 44.5938C96.9271 44.5729 97.2083 44.5625 97.5 44.5625C97.7083 44.5625 97.875 44.5521 98 44.5312C98.1875 44.5312 98.3125 44.5417 98.375 44.5625C98.5 44.5417 98.9271 44.5312 99.6562 44.5312C99.8438 44.5312 99.9896 44.5208 100.094 44.5H102.062C102.229 44.5 102.312 44.4167 102.312 44.25C102.333 44.0625 102.365 43.875 102.406 43.6875C102.469 43.375 102.5 43.0521 102.5 42.7188C102.5 42.1979 102.417 41.6667 102.25 41.125L102.062 40.5312C101.104 38.6146 99.7292 37.1146 97.9375 36.0312L96.5625 35.1562L96.1562 34.9688L95.4688 34.5938C95.2604 34.4688 95.0417 34.3542 94.8125 34.25L94.4688 34.125C93.7604 33.7917 93.2188 33.5625 92.8438 33.4375C92.5938 33.3542 92.3542 33.2604 92.125 33.1562C91.9583 33.1146 91.8542 33.0833 91.8125 33.0625C91.7917 33.0417 91.7604 33.0208 91.7188 33L91.5312 32.9688C90.9062 32.7188 90.1146 32.4688 89.1562 32.2188L88.9375 32.125L88.7188 32.0938C88.0938 31.8854 87.4479 31.7083 86.7812 31.5625C86.3438 31.4792 85.9167 31.375 85.5 31.25H85.3438C85.2604 31.25 85.0729 31.2083 84.7812 31.125L83.5938 30.875H83.375C82.9375 30.7708 82.4792 30.6875 82 30.625C81.5417 30.5625 81.1042 30.4792 80.6875 30.375C80.5625 30.375 80.3542 30.3542 80.0625 30.3125L79.3438 30.2188H79.0312C78.5938 30.1146 78.1354 30.0521 77.6562 30.0312C77.1771 30.0104 76.7188 29.9583 76.2812 29.875L75.5625 29.8438L74.8125 29.75L72.9062 29.6562L72.5312 29.625H71.6562C71.5312 29.5833 71.2396 29.5625 70.7812 29.5625L69.4375 29.5312H67.5C67.2708 29.5312 67.0938 29.5417 66.9688 29.5625L66.9062 29.5312C66.6979 29.5312 66.3438 29.6146 65.8438 29.7812L64.7188 30.0625C64.5104 30.0625 64.3646 30.1042 64.2812 30.1875L64.25 30.375L64.1875 30.4688C64.125 30.5521 64.0833 30.6354 64.0625 30.7188C64.0417 30.8021 64 30.875 63.9375 30.9375C63.8958 30.9792 63.875 31.0521 63.875 31.1562V31.1875C63.8542 31.2083 63.8333 31.2292 63.8125 31.25C63.7917 31.25 63.7708 31.2604 63.75 31.2812C63.75 31.3021 63.75 31.3542 63.75 31.4375C63.7083 31.5 63.6771 31.5625 63.6562 31.625C63.6354 31.6667 63.6146 31.6979 63.5938 31.7188C63.5938 31.7396 63.5833 31.7604 63.5625 31.7812C63.5417 31.7812 63.5208 31.7917 63.5 31.8125C63.5 31.8333 63.5 31.8958 63.5 32C63.4375 32.0625 63.3958 32.1146 63.375 32.1562C63.375 32.1771 63.375 32.1979 63.375 32.2188C63.375 32.2396 63.3646 32.2708 63.3438 32.3125C63.3438 32.3333 63.3333 32.3542 63.3125 32.375C63.2917 32.375 63.2708 32.3854 63.25 32.4062C63.25 32.4271 63.25 32.4583 63.25 32.5C63.25 32.5208 63.2396 32.5417 63.2188 32.5625C63.2188 32.5833 63.2083 32.6042 63.1875 32.625C63.1667 32.625 63.1458 32.6354 63.125 32.6562V32.8125C63.0625 32.875 63.0208 32.9271 63 32.9688C63 32.9896 62.9896 33.0208 62.9688 33.0625C62.9688 33.0833 62.9688 33.1042 62.9688 33.125C62.9271 33.2292 62.8542 33.3646 62.75 33.5312V33.6875C62.6875 33.6875 62.6458 33.7083 62.625 33.75C62.625 33.7917 62.625 33.8333 62.625 33.875C62.625 33.8958 62.6146 33.9271 62.5938 33.9688C62.4688 34.1979 62.3646 34.4167 62.2812 34.625C62.2604 34.6458 62.25 34.6979 62.25 34.7812L62.125 34.9062C62.125 34.9896 62.1146 35.0417 62.0938 35.0625C62.0938 35.0833 62.0625 35.125 62 35.1875V35.3438C61.9792 35.3646 61.9479 35.3854 61.9062 35.4062C61.8854 35.4271 61.875 35.5 61.875 35.625C61.8542 35.6458 61.8333 35.6667 61.8125 35.6875C61.7917 35.6875 61.7708 35.7083 61.75 35.75C61.75 35.7708 61.75 35.8021 61.75 35.8438C61.75 35.8854 61.7396 35.9167 61.7188 35.9375C61.7188 35.9583 61.7083 35.9792 61.6875 36C61.6667 36 61.6458 36.0104 61.625 36.0312V36.1875C61.5625 36.25 61.5208 36.3021 61.5 36.3438C61.5 36.3646 61.5 36.4062 61.5 36.4688C61.4375 36.5312 61.3958 36.5729 61.375 36.5938C61.375 36.6146 61.375 36.6458 61.375 36.6875C61.375 36.7083 61.3646 36.7292 61.3438 36.75C61.3438 36.7708 61.3125 36.8125 61.25 36.875V37.0312C61.2083 37.0521 61.1771 37.1042 61.1562 37.1875C61.1354 37.25 61.1146 37.3021 61.0938 37.3438C61.0938 37.3646 61.0625 37.4062 61 37.4688C61 37.5521 60.9896 37.6042 60.9688 37.625C60.9688 37.6458 60.9583 37.6667 60.9375 37.6875C60.9167 37.7083 60.8958 37.7292 60.875 37.75V37.9062L60.75 38.0312C60.6042 38.4271 60.4479 38.8021 60.2812 39.1562C60.2604 39.1979 60.25 39.25 60.25 39.3125L60.125 39.4688V39.625C60.0625 39.6875 60.0208 39.7292 60 39.75C60 39.7708 59.9896 39.8125 59.9688 39.875C59.9688 39.9167 59.9375 39.9688 59.875 40.0312C59.875 40.0938 59.8646 40.1458 59.8438 40.1875C59.8438 40.2083 59.8333 40.2188 59.8125 40.2188C59.8125 40.2188 59.8021 40.2396 59.7812 40.2812C59.7812 40.3021 59.7708 40.3229 59.75 40.3438V40.4688L59.6875 40.5312C59.6458 40.5938 59.625 40.6667 59.625 40.75C59.5833 40.8125 59.5521 40.875 59.5312 40.9375C59.5104 41 59.4896 41.0417 59.4688 41.0625C59.4688 41.0833 59.4583 41.0938 59.4375 41.0938C59.4375 41.0938 59.4271 41.1146 59.4062 41.1562C59.4062 41.2604 59.4375 41.3438 59.5 41.4062L59.75 42.4375L59.7812 42.6875C59.9479 43.25 60.0417 43.8646 60.0625 44.5312C60.0833 44.5312 60.0938 44.5417 60.0938 44.5625C60.1146 44.5833 60.1354 44.6042 60.1562 44.625C60.1771 44.625 60.3646 44.625 60.7188 44.625H65.1562L65.8438 44.5938L66.5 44.625H92.9062ZM105.219 57.6875L104.906 57.625C104.573 57.375 104.406 57 104.406 56.5C104.406 56.2708 104.438 56.0312 104.5 55.7812V55.5625C104.583 55.25 104.625 55.0312 104.625 54.9062L105.031 53.5312C105.323 52.4896 105.521 51.8854 105.625 51.7188C105.958 50.6146 106.323 49.5625 106.719 48.5625L106.75 48.375L106.875 48.2188V48C106.958 47.9167 107 47.8125 107 47.6875L107.125 47.5C107.125 47.375 107.167 47.2396 107.25 47.0938C107.333 46.9271 107.385 46.8229 107.406 46.7812C107.406 46.7188 107.417 46.6771 107.438 46.6562C107.438 46.6354 107.458 46.5417 107.5 46.375C107.562 46.3125 107.594 46.2604 107.594 46.2188C107.594 46.1354 107.583 46.0625 107.562 46C107.521 45.9167 107.5 45.8229 107.5 45.7188C107.542 45.5729 107.615 45.4375 107.719 45.3125C107.969 45.0625 108.156 44.7604 108.281 44.4062C108.281 44.3854 108.292 44.375 108.312 44.375C108.333 44.3542 108.354 44.3125 108.375 44.25C108.396 44.1667 108.427 44.1042 108.469 44.0625C108.49 44.0208 108.5 43.9271 108.5 43.7812C108.562 43.7188 108.594 43.6771 108.594 43.6562C108.656 43.5521 108.698 43.4479 108.719 43.3438C108.74 43.2188 108.76 43.1458 108.781 43.125C108.823 43.0833 108.844 43.0521 108.844 43.0312C108.865 42.9896 108.885 42.9375 108.906 42.875C108.927 42.8125 108.958 42.75 109 42.6875C109 42.6042 109 42.5521 109 42.5312C109.021 42.4896 109.042 42.4583 109.062 42.4375C109.104 42.4167 109.135 42.3333 109.156 42.1875C109.219 42.125 109.25 42.0417 109.25 41.9375C109.271 41.9167 109.292 41.8958 109.312 41.875C109.333 41.8333 109.354 41.7708 109.375 41.6875C109.396 41.6042 109.427 41.5312 109.469 41.4688C109.51 41.3854 109.542 41.3021 109.562 41.2188C109.583 41.1146 109.677 40.9062 109.844 40.5938L109.875 40.375C109.938 40.3125 109.969 40.2708 109.969 40.25C110.01 40.1667 110.042 40.0833 110.062 40C110.083 39.8958 110.177 39.6979 110.344 39.4062L110.375 39.1875C110.5 38.9792 110.594 38.7604 110.656 38.5312L110.875 38.125C111.208 37.25 111.573 36.3854 111.969 35.5312C111.99 35.4688 112 35.4167 112 35.375C112.021 35.3333 112.062 35.2812 112.125 35.2188C112.458 34.3646 112.667 33.8854 112.75 33.7812L112.875 33.375C112.958 33.2917 113.01 33.1875 113.031 33.0625C113.031 33.0417 113.062 33 113.125 32.9375L113.25 32.5312L113.375 32.375C113.604 31.8125 113.844 31.2812 114.094 30.7812C114.115 30.6562 114.167 30.5417 114.25 30.4375C114.417 30.0208 114.531 29.7708 114.594 29.6875C114.615 29.5833 114.656 29.4896 114.719 29.4062C114.781 29.3021 114.833 29.1979 114.875 29.0938C115.25 28.2396 115.656 27.3958 116.094 26.5625L116.219 26.2812C117.031 24.5104 117.969 22.7812 119.031 21.0938L119.469 20.4688L119.531 20.2812C119.656 20.1562 119.719 20.0833 119.719 20.0625C119.74 20.0208 119.75 19.9896 119.75 19.9688C119.854 19.8854 119.917 19.8229 119.938 19.7812C119.958 19.7396 119.99 19.6979 120.031 19.6562C120.094 19.5938 120.156 19.5104 120.219 19.4062C120.344 19.3021 120.438 19.2083 120.5 19.125C120.583 19.0208 120.646 18.9583 120.688 18.9375C120.75 18.9167 120.896 18.8229 121.125 18.6562C121.208 18.6354 121.302 18.625 121.406 18.625C121.51 18.6042 121.604 18.5729 121.688 18.5312C121.917 18.5312 122.083 18.5729 122.188 18.6562C122.312 18.7188 122.417 18.8229 122.5 18.9688L122.562 19.0312C122.771 19.1979 122.875 19.4792 122.875 19.875C122.875 20.125 122.844 20.3542 122.781 20.5625C122.781 20.7708 122.75 20.9792 122.688 21.1875C122.417 22.4583 121.812 24.1354 120.875 26.2188L120 28.1875L119.75 28.5938C119.542 29.0938 119.302 29.5729 119.031 30.0312C119.031 30.0938 118.969 30.2292 118.844 30.4375C118.74 30.625 118.677 30.75 118.656 30.8125C118.635 30.875 118.604 30.9375 118.562 31L118.062 31.9062C117.854 32.3229 117.625 32.7292 117.375 33.125C117.354 33.1875 117.323 33.2708 117.281 33.375C117.24 33.4583 117.177 33.5625 117.094 33.6875L116.594 34.5938C116.177 35.3438 115.74 36.0729 115.281 36.7812C115.198 36.9271 115.115 37.0625 115.031 37.1875C114.969 37.3125 114.625 37.875 114 38.875C113.375 39.8542 113.021 40.3958 112.938 40.5C112.812 40.75 112.667 40.9792 112.5 41.1875C111.562 42.6667 110.792 43.7708 110.188 44.5C109.979 44.75 109.75 45.0417 109.5 45.375C109.271 45.6875 109.021 45.9479 108.75 46.1562C108.688 46.2188 108.625 46.2812 108.562 46.3438C108.521 46.4062 108.469 46.4479 108.406 46.4688C108.344 46.4688 108.292 46.4792 108.25 46.5C108.188 46.5208 108.146 46.6146 108.125 46.7812C108.083 46.8438 108.052 46.9062 108.031 46.9688C108.01 47.0312 107.99 47.0938 107.969 47.1562C107.594 48.1354 107.385 48.6979 107.344 48.8438C107.344 48.8854 107.333 48.9167 107.312 48.9375C107.292 48.9583 107.271 48.9792 107.25 49C107.25 49.125 107.208 49.25 107.125 49.375V49.5312L107 49.6875C107 49.8333 106.927 50.0521 106.781 50.3438C106.76 50.4479 106.74 50.5417 106.719 50.625C106.698 50.7083 106.667 50.7708 106.625 50.8125C106.604 50.9375 106.562 51.0521 106.5 51.1562V51.3438L106.375 51.5625C106.375 51.6667 106.365 51.75 106.344 51.8125C106.01 52.8125 105.75 53.7188 105.562 54.5312L105.406 55.1562C105.385 55.2396 105.375 55.3333 105.375 55.4375C105.375 55.5417 105.365 55.6562 105.344 55.7812C105.302 55.9062 105.281 56.0625 105.281 56.25L105.312 56.5938H105.406C105.448 56.5521 105.51 56.5104 105.594 56.4688C105.76 56.3646 105.938 56.2083 106.125 56C106.208 55.9167 106.302 55.8229 106.406 55.7188C106.49 55.6354 106.594 55.5312 106.719 55.4062C106.844 55.3021 106.979 55.1562 107.125 54.9688C107.167 54.9062 107.302 54.75 107.531 54.5C107.74 54.25 107.875 54.0938 107.938 54.0312C107.979 53.9896 108.031 53.9271 108.094 53.8438C108.156 53.7604 108.219 53.6771 108.281 53.5938C108.469 53.3854 108.635 53.1771 108.781 52.9688C108.823 52.9271 108.865 52.8854 108.906 52.8438C108.969 52.8021 109.021 52.75 109.062 52.6875L110 51.4688C110.479 50.8854 110.938 50.2917 111.375 49.6875C112.042 48.875 112.688 48.0312 113.312 47.1562C113.375 47.0729 113.448 46.9896 113.531 46.9062C113.615 46.8229 113.698 46.7188 113.781 46.5938C114.094 46.1354 114.417 45.6979 114.75 45.2812C115.104 44.8438 115.438 44.3958 115.75 43.9375C115.875 43.7708 116.031 43.6875 116.219 43.6875C116.615 43.6875 116.812 43.8854 116.812 44.2812C116.812 44.4896 116.667 44.75 116.375 45.0625C116.271 45.1667 115.948 45.5833 115.406 46.3125L113.125 49.2812C112.375 50.1771 111.667 51.0938 111 52.0312C110.958 52.0938 110.896 52.1667 110.812 52.25C110.729 52.3333 110.5 52.6146 110.125 53.0938C109.812 53.5104 109.635 53.7292 109.594 53.75C109.552 53.7917 109.521 53.8229 109.5 53.8438C109.333 54.0729 109.146 54.3021 108.938 54.5312C108.729 54.7604 108.521 55.0208 108.312 55.3125L107.938 55.6875C107.708 56 107.427 56.2812 107.094 56.5312L106.938 56.6875C106.812 56.875 106.469 57.1458 105.906 57.5C105.719 57.625 105.49 57.6875 105.219 57.6875ZM109.562 43.1562C109.688 43.0521 109.938 42.75 110.312 42.25C110.5 42 110.667 41.7917 110.812 41.625C110.958 41.4375 111.271 40.9896 111.75 40.2812C112.042 39.8854 112.333 39.4688 112.625 39.0312C113.312 38.0104 113.719 37.4271 113.844 37.2812C115.969 33.9688 117.854 30.4271 119.5 26.6562C119.542 26.5521 119.594 26.4479 119.656 26.3438C119.719 26.2188 120 25.4792 120.5 24.125L120.844 23.0938C120.906 22.8438 120.99 22.5208 121.094 22.125C121.198 21.7292 121.25 21.5 121.25 21.4375V21.3438L121.281 21.125C121.323 21 121.344 20.7917 121.344 20.5H121.25C121.167 20.625 121.083 20.7292 121 20.8125C120.917 20.8958 120.688 21.1875 120.312 21.6875C120.062 21.875 119.469 22.7396 118.531 24.2812L118.312 24.6875C118.021 25.1458 117.74 25.625 117.469 26.125L116.781 27.3438L116.469 27.9688C116.156 28.4688 115.875 29.0104 115.625 29.5938C115.438 29.9479 115.344 30.1458 115.344 30.1875C115.135 30.5625 114.906 31.0208 114.656 31.5625L114.312 32.25L113.5 34C113.375 34.1875 113.292 34.375 113.25 34.5625L113.125 34.75V34.8438L113 35L112.875 35.4062C112.792 35.5104 112.698 35.6979 112.594 35.9688C112.594 36.0312 112.573 36.0729 112.531 36.0938C112.51 36.0938 112.5 36.1146 112.5 36.1562C112.5 36.1771 112.49 36.2188 112.469 36.2812C112.26 36.6979 112.062 37.1354 111.875 37.5938C111.688 38.0521 111.49 38.4896 111.281 38.9062C111.26 38.9271 111.24 38.9688 111.219 39.0312C111.219 39.0938 111.198 39.1458 111.156 39.1875C111.135 39.2292 111.115 39.2812 111.094 39.3438C111.073 39.4062 111.042 39.4792 111 39.5625C110.979 39.625 110.958 39.6875 110.938 39.75C110.917 39.8125 110.896 39.8854 110.875 39.9688C110.75 40.1771 110.656 40.3854 110.594 40.5938L110.375 41C110.375 41.1042 110.365 41.1667 110.344 41.1875C110.323 41.2083 110.292 41.25 110.25 41.3125V41.4688C110.229 41.4688 110.198 41.4792 110.156 41.5C110.135 41.5 110.125 41.5833 110.125 41.75C110.062 41.8125 110.021 41.8958 110 42C109.979 42.1042 109.948 42.1562 109.906 42.1562L109.875 42.1875C109.875 42.3333 109.833 42.4896 109.75 42.6562C109.667 42.8021 109.594 42.9688 109.531 43.1562H109.562ZM115.406 50L115.25 49.9688C115.042 49.9062 114.875 49.8333 114.75 49.75C114.625 49.6667 114.531 49.5312 114.469 49.3438C114.385 49.1354 114.344 48.9167 114.344 48.6875C114.385 48.4167 114.406 48.1562 114.406 47.9062C114.698 46.7812 115.125 45.5417 115.688 44.1875C115.938 43.6458 116.219 43.375 116.531 43.375C116.635 43.375 116.75 43.4271 116.875 43.5312C117 43.6354 117.062 43.7604 117.062 43.9062C117.062 44.1562 116.927 44.4792 116.656 44.875L116.625 44.9688C116.375 45.3229 116.219 45.5625 116.156 45.6875C116.115 45.8125 116.052 45.9375 115.969 46.0625C115.969 46.0833 115.958 46.1042 115.938 46.125C115.917 46.1458 115.896 46.1667 115.875 46.1875C115.625 46.7917 115.479 47.1875 115.438 47.375C115.271 47.75 115.188 48.1771 115.188 48.6562L115.219 49C115.26 49.0417 115.333 49.0625 115.438 49.0625C115.5 49.0208 115.583 48.9896 115.688 48.9688C115.792 48.9271 115.938 48.8229 116.125 48.6562L116.281 48.5312C116.49 48.3854 116.656 48.2083 116.781 48C116.844 47.9167 116.927 47.8438 117.031 47.7812C117.135 47.6979 117.219 47.6146 117.281 47.5312C117.365 47.4271 117.448 47.3125 117.531 47.1875C117.885 46.7292 118.094 46.4271 118.156 46.2812C118.156 46.2604 118.156 46.2396 118.156 46.2188C118.177 46.1979 118.208 46.1667 118.25 46.125C118.312 46.0833 118.417 45.8958 118.562 45.5625C118.583 45.5 118.615 45.4271 118.656 45.3438C118.719 45.2604 118.771 45.1562 118.812 45.0312L118.406 44.8125C118.115 44.5833 117.927 44.4167 117.844 44.3125C117.344 43.8125 117.094 43.1875 117.094 42.4375C117.094 41.8958 117.188 41.5312 117.375 41.3438L117.438 41.1562C117.5 41.0104 117.562 40.9167 117.625 40.875C117.708 40.8333 117.781 40.7604 117.844 40.6562C117.927 40.5521 118.021 40.4792 118.125 40.4375C118.25 40.3958 118.333 40.3646 118.375 40.3438C118.479 40.2396 118.604 40.1875 118.75 40.1875C118.917 40.1667 119.042 40.1354 119.125 40.0938C119.292 40.0938 119.427 40.1146 119.531 40.1562C119.635 40.1979 119.719 40.2292 119.781 40.25C119.865 40.25 119.948 40.2708 120.031 40.3125C120.552 40.6875 120.812 41.2188 120.812 41.9062C120.812 42.1146 120.781 42.3229 120.719 42.5312C120.719 42.6354 120.708 42.7188 120.688 42.7812C120.562 43.3646 120.448 43.7604 120.344 43.9688C120.302 44.0312 120.281 44.1042 120.281 44.1875C120.385 44.2292 120.5 44.25 120.625 44.25C120.979 44.25 121.333 44.1771 121.688 44.0312C121.771 43.9896 121.875 43.9583 122 43.9375C122.188 43.9375 122.333 44.0104 122.438 44.1562C122.562 44.2812 122.635 44.4271 122.656 44.5938C122.656 44.7188 122.604 44.8438 122.5 44.9688C122.396 45.0729 122.302 45.1354 122.219 45.1562C122.135 45.1771 122.042 45.1875 121.938 45.1875C121.542 45.2917 121.146 45.3438 120.75 45.3438L120.531 45.375C120.281 45.3333 120.042 45.3125 119.812 45.3125L119.5 45.875C118.792 47.2708 117.875 48.4375 116.75 49.375C116.5 49.5417 116.229 49.7083 115.938 49.875C115.875 49.875 115.792 49.8958 115.688 49.9375C115.583 49.9792 115.49 50 115.406 50ZM119.25 43.9062C119.438 43.5521 119.531 43.0833 119.531 42.5C119.531 42.1875 119.469 41.9375 119.344 41.75H119.219C119.198 41.7917 119.146 41.8229 119.062 41.8438C118.979 41.8646 118.885 41.9271 118.781 42.0312C118.594 42.2396 118.5 42.4896 118.5 42.7812C118.5 43.1562 118.646 43.4583 118.938 43.6875C118.979 43.7083 119.01 43.7396 119.031 43.7812C119.073 43.8229 119.146 43.8646 119.25 43.9062ZM120.469 49.3125H120.312C120.146 49.3333 119.979 49.2292 119.812 49C119.729 48.875 119.688 48.6979 119.688 48.4688C119.688 48.4062 119.719 48.3333 119.781 48.25C119.823 48.1667 119.865 48.0625 119.906 47.9375C120.01 47.625 120.156 47.3125 120.344 47L121.188 45.1875C121.271 45.0417 121.344 44.8854 121.406 44.7188C121.448 44.6354 121.5 44.5625 121.562 44.5C121.604 44.4167 121.635 44.3333 121.656 44.25C121.76 44 121.885 43.7708 122.031 43.5625L122.125 43.3125C122.125 43.2917 122.135 43.2708 122.156 43.25C122.198 43.2292 122.219 43.2083 122.219 43.1875C122.469 42.6667 122.688 42.3021 122.875 42.0938C122.938 42.0521 123 42.0104 123.062 41.9688C123.146 41.9271 123.219 41.9062 123.281 41.9062C123.469 41.9062 123.656 42 123.844 42.1875C123.927 42.2917 123.969 42.4062 123.969 42.5312C123.969 42.5938 123.948 42.6771 123.906 42.7812C123.865 42.8646 123.833 42.9167 123.812 42.9375C123.812 42.9375 123.812 42.9479 123.812 42.9688C123.812 42.9896 123.781 43.0521 123.719 43.1562C123.656 43.2396 123.604 43.3229 123.562 43.4062C123.542 43.4896 123.521 43.5625 123.5 43.625C123.479 43.6667 123.458 43.6979 123.438 43.7188C123.438 43.7188 123.427 43.7292 123.406 43.75H123.375C123.354 43.7917 123.333 43.8333 123.312 43.875C123.312 43.8958 123.219 44.0521 123.031 44.3438L122.75 44.9062C122.542 45.1771 122.438 45.375 122.438 45.5H122.5C122.542 45.4375 122.594 45.3854 122.656 45.3438C122.719 45.3021 122.771 45.2604 122.812 45.2188C123.042 44.9479 123.281 44.6875 123.531 44.4375C124.219 43.75 124.75 43.2604 125.125 42.9688C125.25 42.8438 125.417 42.6979 125.625 42.5312C126.083 42.1146 126.562 41.8646 127.062 41.7812C127.417 41.7812 127.677 41.9062 127.844 42.1562L127.938 42.5C128.021 42.625 128.062 42.75 128.062 42.875C128.062 42.8958 128.052 42.9375 128.031 43C128.01 43.0417 127.99 43.0833 127.969 43.125C127.948 43.1667 127.927 43.2188 127.906 43.2812C127.885 43.3229 127.875 43.3958 127.875 43.5L127.531 44.125V44.2188C127.51 44.2604 127.479 44.3021 127.438 44.3438C127.417 44.3646 127.396 44.4062 127.375 44.4688C127.375 44.5104 127.312 44.6042 127.188 44.75C127.062 44.8958 126.979 45.0521 126.938 45.2188H126.969C127.01 45.1771 127.062 45.1458 127.125 45.125C127.188 45.1042 127.24 45.0625 127.281 45L127.625 44.625C127.688 44.5833 127.74 44.5417 127.781 44.5C127.823 44.4375 127.875 44.3854 127.938 44.3438C128.146 44.1146 128.375 43.8958 128.625 43.6875C128.708 43.6042 128.76 43.5417 128.781 43.5C128.969 43.375 129.146 43.2292 129.312 43.0625C129.917 42.5417 130.302 42.25 130.469 42.1875C130.656 42.1042 130.792 42.0625 130.875 42.0625C131.062 42.0625 131.26 42.125 131.469 42.25C131.698 42.4792 131.812 42.7396 131.812 43.0312C131.812 43.3021 131.76 43.5729 131.656 43.8438L131.219 45.0312C131.156 45.0938 131.115 45.1458 131.094 45.1875C131.094 45.2292 131.083 45.2708 131.062 45.3125V45.375C131.042 45.3958 131.01 45.4271 130.969 45.4688C130.948 45.5104 130.938 45.5625 130.938 45.625C130.938 45.6875 130.917 45.75 130.875 45.8125C130.854 45.8542 130.823 45.9062 130.781 45.9688C130.76 46.0312 130.729 46.0938 130.688 46.1562C130.688 46.3021 130.667 46.4062 130.625 46.4688C130.583 46.5312 130.552 46.5938 130.531 46.6562C130.51 46.6979 130.5 46.75 130.5 46.8125C130.625 46.8125 130.854 46.6771 131.188 46.4062L131.406 46.25C131.865 45.9167 132.302 45.5833 132.719 45.25C132.948 45.0625 133.073 44.9583 133.094 44.9375C133.135 44.8958 133.188 44.8438 133.25 44.7812C133.417 44.6771 133.552 44.5729 133.656 44.4688L133.969 44.1562C134.156 43.9688 134.354 43.875 134.562 43.875C134.854 43.875 135.052 43.9792 135.156 44.1875C135.177 44.2292 135.198 44.2812 135.219 44.3438C135.26 44.3854 135.281 44.4792 135.281 44.625C135.281 44.8958 135.094 45.125 134.719 45.3125C134.594 45.3958 134.49 45.4792 134.406 45.5625C134.323 45.6458 134.25 45.7083 134.188 45.75C134.042 45.8542 133.906 45.9688 133.781 46.0938C133.656 46.1979 133.531 46.3021 133.406 46.4062L132.156 47.5H132.125C132.083 47.5625 132.01 47.6354 131.906 47.7188C131.802 47.7812 131.688 47.8646 131.562 47.9688C131.438 48.0729 131.354 48.1354 131.312 48.1562C131.292 48.1562 131.26 48.1667 131.219 48.1875C131.198 48.2083 131.167 48.2396 131.125 48.2812C131.083 48.3229 131.031 48.3542 130.969 48.375C130.927 48.3958 130.865 48.4375 130.781 48.5C130.719 48.5625 130.656 48.5938 130.594 48.5938C130.531 48.5938 130.438 48.625 130.312 48.6875C130.271 48.7292 130.219 48.7604 130.156 48.7812H129.906C129.781 48.7812 129.698 48.7604 129.656 48.7188C129.219 48.7188 128.938 48.5312 128.812 48.1562C128.792 48.0938 128.771 48.0104 128.75 47.9062C128.729 47.8021 128.719 47.7083 128.719 47.625C128.719 47.4792 128.729 47.3542 128.75 47.25C128.75 47.0625 128.76 46.9583 128.781 46.9375C128.802 46.8958 128.812 46.8542 128.812 46.8125C128.833 46.7708 128.844 46.7292 128.844 46.6875C128.844 46.6458 128.938 46.3646 129.125 45.8438C129.208 45.5521 129.323 45.2604 129.469 44.9688C129.51 44.9271 129.531 44.8854 129.531 44.8438C129.552 44.8021 129.562 44.7604 129.562 44.7188C129.583 44.6771 129.615 44.6354 129.656 44.5938C129.698 44.5521 129.719 44.4792 129.719 44.375L129.875 44.0625C129.875 44.0417 129.854 44.0312 129.812 44.0312L129.375 44.375L128.594 45.1562C128.469 45.2604 128.385 45.3333 128.344 45.375C128.302 45.4167 128.01 45.75 127.469 46.375L127.312 46.5C127.042 46.875 126.771 47.2292 126.5 47.5625C126.229 47.8958 125.969 48.2292 125.719 48.5625C125.573 48.7083 125.479 48.7917 125.438 48.8125C125.417 48.8333 125.396 48.8542 125.375 48.875C125.375 48.8958 125.365 48.9271 125.344 48.9688C125.323 48.9896 125.292 49.0104 125.25 49.0312C125.104 49.1354 124.948 49.1875 124.781 49.1875C124.552 49.1875 124.312 49.1042 124.062 48.9375C123.917 48.8333 123.844 48.6562 123.844 48.4062C123.844 48.2812 123.865 48.1875 123.906 48.125C123.948 48.0625 123.969 47.9583 123.969 47.8125L124.156 47.4375L124.438 46.8438C124.646 46.4062 124.865 45.9896 125.094 45.5938C125.115 45.5729 125.125 45.5521 125.125 45.5312C125.125 45.4896 125.135 45.4583 125.156 45.4375C125.198 45.3333 125.24 45.2604 125.281 45.2188C125.323 45.1562 125.344 45.1042 125.344 45.0625C125.531 44.7292 125.708 44.3854 125.875 44.0312C125.958 43.9479 126 43.8542 126 43.75C125.938 43.75 125.896 43.7604 125.875 43.7812C125.875 43.7812 125.823 43.8333 125.719 43.9375C125.615 44.0208 125.438 44.1562 125.188 44.3438C125.083 44.4479 125.021 44.5208 125 44.5625C124.729 44.75 124.49 44.9792 124.281 45.25C124.198 45.3333 124.104 45.4167 124 45.5C123.917 45.5625 123.844 45.6354 123.781 45.7188C123.719 45.7812 123.594 45.9062 123.406 46.0938C123.052 46.5312 122.823 46.8021 122.719 46.9062C122.615 47.0104 122.521 47.125 122.438 47.25C122.396 47.2708 122.365 47.3021 122.344 47.3438L122.094 47.625C121.677 48.1458 121.469 48.4167 121.469 48.4375C121.469 48.4375 121.458 48.4375 121.438 48.4375C121.354 48.5208 121.302 48.5833 121.281 48.625C121.115 48.875 120.917 49.0938 120.688 49.2812C120.625 49.3021 120.552 49.3125 120.469 49.3125ZM138.031 56.4375C137.552 56.3333 137.312 56.0833 137.312 55.6875C137.312 55.4375 137.365 55.1771 137.469 54.9062C137.594 54.4688 137.667 54.1458 137.688 53.9375C137.729 53.75 137.792 53.5417 137.875 53.3125V53.1875C138.083 52.3958 138.229 51.6146 138.312 50.8438L138.406 50.1875C138.406 49.7083 138.448 49.2812 138.531 48.9062C138.531 48.8438 138.521 48.8021 138.5 48.7812L138.562 48.4375L138.531 48.1875C138.552 48.1667 138.562 48.125 138.562 48.0625C138.562 47.5417 138.552 47.2188 138.531 47.0938L138.562 46.75C138.458 45.6042 138.281 44.6458 138.031 43.875C137.427 42.0208 136.146 40.5104 134.188 39.3438L133.406 38.9062C133.115 38.7188 132.833 38.5729 132.562 38.4688C132.271 38.3438 131.917 38.2604 131.5 38.2188L130.969 38.25C130.323 38.25 129.938 38.2604 129.812 38.2812C128.729 38.2812 128.115 38.2917 127.969 38.3125C127.948 38.3125 127.896 38.3229 127.812 38.3438C127.729 38.3438 127.198 38.3438 126.219 38.3438L125.125 38.4062C124.771 38.4062 124.5 38.4167 124.312 38.4375L124.25 38.4688L123.656 38.4375L123.125 38.4688L121.969 38.375C121.344 38.2917 120.938 38.1354 120.75 37.9062C120.646 37.7812 120.594 37.6458 120.594 37.5L120.656 37.0312C120.74 36.7188 121.104 36.5 121.75 36.375L122.156 36.2812H122.344C122.698 36.1771 123.01 36.1146 123.281 36.0938C123.531 36.0521 124.719 36.0208 126.844 36L127.125 36.0312C127.438 36.0312 127.812 36.0833 128.25 36.1875C128.583 36.25 128.823 36.2812 128.969 36.2812C129.094 36.2812 129.177 36.2917 129.219 36.3125L129.781 36.4375C130.698 36.6042 131.573 36.8333 132.406 37.125C132.51 37.1667 132.594 37.2083 132.656 37.25C132.719 37.2708 132.802 37.3021 132.906 37.3438C132.99 37.3646 133.812 37.3854 135.375 37.4062C135.667 37.4062 135.833 37.4167 135.875 37.4375C135.938 37.4167 136.208 37.4062 136.688 37.4062C137.271 37.4271 137.625 37.4479 137.75 37.4688L137.906 37.4375L138.062 37.4688L139.562 37.4375L139.75 37.4688L142.062 37.5312L142.875 37.5C144.104 37.5 144.771 37.4896 144.875 37.4688C145.396 36.3229 145.896 35.1771 146.375 34.0312C147.292 31.8438 148 30.2708 148.5 29.3125L148.531 29.2188C148.74 28.6771 148.99 28.3646 149.281 28.2812L149.406 28.2188C149.885 28.2188 150.125 28.4167 150.125 28.8125C150.083 29.0208 149.99 29.25 149.844 29.5C149.698 29.7292 149.594 29.8958 149.531 30C149.49 30.1042 149.438 30.2188 149.375 30.3438C148.667 31.7188 148.042 33 147.5 34.1875C146.771 35.7708 146.312 36.7292 146.125 37.0625C146.021 37.1875 145.969 37.3229 145.969 37.4688C149.594 37.5104 151.479 37.5417 151.625 37.5625L152 37.5312L152.219 37.5625C153.906 37.5625 155.26 37.5729 156.281 37.5938C157.323 37.6146 158.698 37.625 160.406 37.625C168.073 37.625 173.562 37.6146 176.875 37.5938L177.5 37.625L177.938 37.5625L180.875 37.5312C181.958 37.5104 183.583 37.5 185.75 37.5C185.917 37.5 186.042 37.5 186.125 37.5C186.229 37.4792 186.323 37.4583 186.406 37.4375L186.812 37.4688C186.979 37.4479 187.24 37.4375 187.594 37.4375L188.781 37.4062C189.51 37.4062 190.031 37.3958 190.344 37.375C190.677 37.3542 191.146 37.3229 191.75 37.2812C191.938 37.2812 192.073 37.3438 192.156 37.4688C192.24 37.5729 192.281 37.6875 192.281 37.8125C192.219 38.1667 192.01 38.3438 191.656 38.3438C191.552 38.3438 191.458 38.3438 191.375 38.3438C191.292 38.3229 191.208 38.3021 191.125 38.2812L188.75 38.25L188.25 38.2188L188 38.1875L187.281 38.2188C186.969 38.2188 186.75 38.2083 186.625 38.1875L186.219 38.2188L185.219 38.1562L184.938 38.1875L184.219 38.1562C182.031 38.1562 180.896 38.1458 180.812 38.125L180.406 38.1562C180.323 38.1354 180.167 38.125 179.938 38.125C157.875 38.125 146.708 38.1146 146.438 38.0938C146.312 38.1146 146.052 38.125 145.656 38.125C145.552 38.3125 144.958 39.6458 143.875 42.125C143.042 44.0833 142.604 45.0833 142.562 45.125C142.542 45.1458 142.531 45.1979 142.531 45.2812C142.406 45.4688 142.312 45.6771 142.25 45.9062L140.875 49.4375C140.562 50.3125 140.219 51.2083 139.844 52.125C139.469 53.0625 139.198 53.9062 139.031 54.6562L138.688 55.9688C138.521 56.2812 138.302 56.4375 138.031 56.4375ZM139.812 49.4375L139.906 49.2812C139.99 49.1771 140.042 49.0729 140.062 48.9688C140.083 48.8646 140.104 48.7708 140.125 48.6875C140.75 47.2917 141.312 45.9583 141.812 44.6875C142.312 43.3958 142.865 42.0938 143.469 40.7812L144.219 38.9688L144.5 38.3438C144.542 38.3021 144.562 38.2396 144.562 38.1562L144.375 38.125C139.104 38.125 135.927 38.1458 134.844 38.1875V38.2188C135.01 38.3229 135.146 38.3958 135.25 38.4375L135.812 38.8125C137.208 39.8958 138.146 40.9583 138.625 42C139.125 43.0208 139.479 44.1146 139.688 45.2812C139.688 45.6146 139.708 45.8646 139.75 46.0312C139.792 46.2812 139.812 46.5417 139.812 46.8125C139.833 46.8958 139.844 47 139.844 47.125V47.4688L139.875 47.5938C139.854 47.8229 139.844 48.0625 139.844 48.3125C139.844 48.75 139.823 49.125 139.781 49.4375H139.812ZM132.75 52.7812L132.5 52.6875C132.042 52.6875 131.75 52.5729 131.625 52.3438C131.5 52.1354 131.438 51.8021 131.438 51.3438C131.604 50.7188 131.979 50.0833 132.562 49.4375L134.188 47.5625C134.188 47.4167 134.167 47.3021 134.125 47.2188C134.062 47.1146 134.031 47.0417 134.031 47C133.865 46.5833 133.781 46.1771 133.781 45.7812C133.781 45.6771 133.76 45.5833 133.719 45.5C133.802 44.7917 134 44.1979 134.312 43.7188C134.625 43.2188 135.042 42.7083 135.562 42.1875C136.104 41.6667 136.635 41.2708 137.156 41L138.125 41.9375C137.583 42.2917 137.052 42.6979 136.531 43.1562C135.635 43.9688 135.188 44.7604 135.188 45.5312C135.188 45.7396 135.198 45.875 135.219 45.9375C135.26 46 135.292 46.1042 135.312 46.25C135.333 46.25 135.344 46.2604 135.344 46.2812C135.365 46.2812 135.385 46.2708 135.406 46.25C135.448 46.2083 135.49 46.1667 135.531 46.125C135.573 46.0625 135.615 46.0208 135.656 46C135.74 45.8958 135.823 45.7812 135.906 45.6562C136.01 45.5312 136.135 45.4062 136.281 45.2812C136.573 45.0312 136.844 44.75 137.094 44.4375C137.344 44.1042 137.615 43.8125 137.906 43.5625C138.323 43.0208 138.708 42.5729 139.062 42.2188L140.062 41.0938C140.938 40.1771 141.646 39.3333 142.188 38.5625L143.031 37.5C143.073 37.3958 143.104 37.3438 143.125 37.3438C143.146 37.3229 143.188 37.2917 143.25 37.25C143.354 37.0833 143.469 36.9271 143.594 36.7812C143.719 36.6146 143.833 36.4479 143.938 36.2812L144.094 36.0938C144.219 35.9688 144.312 35.8333 144.375 35.6875C144.542 35.5625 144.688 35.3854 144.812 35.1562C144.938 34.9271 145.021 34.8021 145.062 34.7812C145.125 34.7396 145.219 34.6146 145.344 34.4062C145.49 34.1771 145.583 34.0417 145.625 34C145.667 33.9583 145.708 33.9167 145.75 33.875C145.979 33.5625 146.167 33.2812 146.312 33.0312C146.5 32.7188 146.802 32.2708 147.219 31.6875C147.302 31.4375 147.417 31.1979 147.562 30.9688C147.688 30.8438 147.792 30.6979 147.875 30.5312C148.229 29.8229 148.417 29.4167 148.438 29.3125C148.5 29 148.646 28.8438 148.875 28.8438L149 28.8125C149.167 28.8125 149.302 28.8646 149.406 28.9688C149.531 29.0729 149.604 29.1979 149.625 29.3438C149.625 29.5938 149.531 29.7917 149.344 29.9375C149.24 30.0208 149.146 30.125 149.062 30.25C149 30.3542 148.927 30.4479 148.844 30.5312C148.76 30.5938 148.688 30.6771 148.625 30.7812C148.375 31.1771 148.083 31.5833 147.75 32C147.438 32.3958 147.135 32.8229 146.844 33.2812L146.594 33.5938C146.385 33.8854 146.156 34.1875 145.906 34.5C145.656 34.8125 145.438 35.125 145.25 35.4375C145.229 35.4792 145.188 35.5208 145.125 35.5625C145.083 35.6042 145.052 35.6458 145.031 35.6875C144.677 36.2083 144.292 36.7083 143.875 37.1875C143.542 37.5833 143.229 37.9896 142.938 38.4062C142.833 38.4479 142.781 38.4896 142.781 38.5312C142.781 38.5521 142.76 38.5938 142.719 38.6562C142.615 38.7812 142.531 38.8854 142.469 38.9688C142.427 39.0312 142.365 39.0833 142.281 39.125C142.094 39.3958 141.896 39.6562 141.688 39.9062C141.479 40.1354 141.292 40.3542 141.125 40.5625C141.083 40.6667 141.021 40.7604 140.938 40.8438C140.854 40.9062 140.792 40.9792 140.75 41.0625C140.646 41.25 140.49 41.4375 140.281 41.625C139.906 42.0208 139.594 42.375 139.344 42.6875L138.812 43.3438C138.75 43.4479 138.667 43.5521 138.562 43.6562C138.146 44.0729 137.875 44.3646 137.75 44.5312C137.688 44.6354 137.604 44.7396 137.5 44.8438C137.417 44.9271 137.344 45.0417 137.281 45.1875C136.927 45.6042 136.688 45.875 136.562 46C136.438 46.1042 136.229 46.3438 135.938 46.7188C135.917 46.7396 135.875 46.7812 135.812 46.8438C135.771 46.9062 135.729 46.9896 135.688 47.0938C135.688 47.1146 135.74 47.2083 135.844 47.375C135.948 47.5208 136.094 47.8542 136.281 48.375C136.281 48.5 136.292 48.5938 136.312 48.6562C136.354 48.7188 136.385 48.9688 136.406 49.4062C136.385 49.6146 136.354 49.7708 136.312 49.875C136.292 50 136.281 50.1667 136.281 50.375C136.26 50.3958 136.219 50.4271 136.156 50.4688C136.115 50.5312 136.083 50.6146 136.062 50.7188C136.042 50.8438 135.99 50.9271 135.906 50.9688C135.844 51.0104 135.802 51.0625 135.781 51.125C135.781 51.2083 135.729 51.2812 135.625 51.3438C135.542 51.4271 135.479 51.4896 135.438 51.5312C135.396 51.5938 135.354 51.6458 135.312 51.6875C134.708 52.1875 134.094 52.5 133.469 52.625C133.427 52.6667 133.375 52.6875 133.312 52.6875L132.75 52.7812ZM132.875 51.1875C133.188 51.1458 133.479 51.0312 133.75 50.8438C134.458 50.4479 134.812 49.9375 134.812 49.3125L134.75 48.8438C134.688 48.7396 134.656 48.6562 134.656 48.5938C134.656 48.5104 134.625 48.4688 134.562 48.4688C134.458 48.5938 134.354 48.7083 134.25 48.8125C134.167 48.9167 134.083 49.0312 134 49.1562C133.917 49.2604 133.823 49.3854 133.719 49.5312C133.51 49.8229 133.333 50.1354 133.188 50.4688C132.958 50.6979 132.844 50.9167 132.844 51.125L132.875 51.1875ZM128.25 37.3125L128.562 37.25V37.2188C128.312 37.2188 128.115 37.2083 127.969 37.1875C127.802 37.1667 127.667 37.1562 127.562 37.1562C127.438 37.1354 127.177 37.1146 126.781 37.0938C126.385 37.0521 126.167 37.0312 126.125 37.0312C126.062 37.0521 126.021 37.0729 126 37.0938C125.958 37.0938 125.698 37.1042 125.219 37.125C125.115 37.125 125 37.1354 124.875 37.1562C124.75 37.1771 124.552 37.1875 124.281 37.1875V37.2188C126.594 37.2396 127.917 37.2708 128.25 37.3125ZM149.969 49.9375C149.844 49.9375 149.729 49.9062 149.625 49.8438C149.542 49.7812 149.469 49.6979 149.406 49.5938C149.344 49.4896 149.302 49.3646 149.281 49.2188C149.281 49.1354 149.292 49.0729 149.312 49.0312C149.333 48.9896 149.354 48.9583 149.375 48.9375V48.9062C149.417 48.8229 149.448 48.7396 149.469 48.6562C149.49 48.5729 149.781 47.9688 150.344 46.8438C150.802 45.8646 151.125 45.1979 151.312 44.8438C151.396 44.7188 151.458 44.5938 151.5 44.4688H151.406C151.365 44.5521 151.312 44.625 151.25 44.6875C150.979 44.9792 150.729 45.2812 150.5 45.5938C150.458 45.6354 150.406 45.6771 150.344 45.7188C150.302 45.7396 150.26 45.7812 150.219 45.8438C149.969 46.1771 149.688 46.4896 149.375 46.7812C149.208 47.0104 149 47.2292 148.75 47.4375C148.667 47.5 148.594 47.5729 148.531 47.6562L148.375 47.8125C148.312 47.8125 148.271 47.8333 148.25 47.875C148.229 47.9167 148.177 47.9688 148.094 48.0312C148.031 48.0729 147.958 48.1354 147.875 48.2188C147.146 48.7188 146.75 48.9792 146.688 49C146.646 49 146.604 49 146.562 49L145.969 49.2188L145.656 49.1875L145.312 49.2188C145.25 49.1771 145.188 49.1458 145.125 49.125C145.042 49.1042 144.969 49.0833 144.906 49.0625C144.823 49.0417 144.688 48.9375 144.5 48.75C144.375 48.6667 144.271 48.5625 144.188 48.4375C144.167 48.3333 144.135 48.2604 144.094 48.2188C144.01 48.0312 143.958 47.7396 143.938 47.3438C143.938 46.9896 144 46.6667 144.125 46.375L144.156 46.0938C144.219 45.9896 144.271 45.8854 144.312 45.7812C144.354 45.6562 144.406 45.5417 144.469 45.4375C144.927 44.5625 145.531 43.8229 146.281 43.2188L146.406 43.0625C146.802 42.7708 147.073 42.5938 147.219 42.5312L147.406 42.375C147.573 42.3333 147.729 42.2604 147.875 42.1562C147.958 42.1354 148.042 42.1146 148.125 42.0938C148.208 42.0729 148.292 42.0417 148.375 42C148.562 42 148.677 41.9896 148.719 41.9688C148.781 41.9479 148.854 41.9375 148.938 41.9375C149.062 41.9375 149.177 41.9688 149.281 42.0312C149.385 42.0938 149.5 42.1354 149.625 42.1562C149.833 42.2604 149.969 42.4375 150.031 42.6875C150.031 42.7917 150.042 42.8646 150.062 42.9062L150.094 43.3438C149.906 43.7188 149.792 43.9271 149.75 43.9688C148.979 44.7812 147.99 45.3125 146.781 45.5625C146.635 45.5833 146.5 45.6146 146.375 45.6562C146.333 45.6771 146.281 45.6875 146.219 45.6875H146.125L145.969 45.7188C145.656 46.1979 145.458 46.7083 145.375 47.25C145.375 47.3542 145.396 47.4688 145.438 47.5938C145.5 47.6979 145.604 47.75 145.75 47.75C145.875 47.75 146.031 47.7188 146.219 47.6562L146.312 47.625C146.812 47.4375 147.24 47.2083 147.594 46.9375C147.719 46.875 147.823 46.7917 147.906 46.6875C148.448 46.2917 148.938 45.8646 149.375 45.4062C149.833 44.9479 150.135 44.625 150.281 44.4375L151.094 43.5C151.198 43.4375 151.583 42.9792 152.25 42.125C152.521 41.7708 152.698 41.5625 152.781 41.5C152.885 41.3542 152.958 41.2812 153 41.2812C153.062 41.2812 153.115 41.2604 153.156 41.2188C153.365 41.2188 153.51 41.2604 153.594 41.3438C153.677 41.4062 153.75 41.5 153.812 41.625C153.833 41.6667 153.865 41.7188 153.906 41.7812C153.948 41.8438 153.969 41.9167 153.969 42C153.74 42.6667 153.417 43.3229 153 43.9688L152.125 45.5625H152.188L152.406 45.3438C152.948 44.7188 153.375 44.2917 153.688 44.0625L153.812 43.9375C153.917 43.8125 154.062 43.6875 154.25 43.5625C154.708 43.1667 155.062 42.9688 155.312 42.9688C155.333 42.9688 155.354 42.9583 155.375 42.9375C155.396 42.9167 155.417 42.9062 155.438 42.9062C155.479 42.8854 155.615 42.8854 155.844 42.9062C156.073 42.9062 156.208 42.9167 156.25 42.9375C156.312 42.9375 156.406 43.0104 156.531 43.1562L156.781 43.4062C156.927 43.5938 157.021 43.8229 157.062 44.0938C157.062 44.2188 157.083 44.4062 157.125 44.6562C157.167 44.9062 157.188 45.1354 157.188 45.3438L157.25 45.4062C157.521 45.4062 158.031 44.9792 158.781 44.125C158.823 44.1042 158.865 44.0729 158.906 44.0312C158.948 43.9896 159 43.9583 159.062 43.9375C159.146 43.8958 159.219 43.875 159.281 43.875C159.427 43.875 159.573 43.9375 159.719 44.0625C159.865 44.1667 159.938 44.3229 159.938 44.5312C159.938 44.7188 159.885 44.8646 159.781 44.9688C159.594 45.1562 159.25 45.5625 158.75 46.1875C158.646 46.2708 158.583 46.3125 158.562 46.3125C158.542 46.3125 158.5 46.3438 158.438 46.4062C158.292 46.5521 158.021 46.7083 157.625 46.875C157.604 46.8958 157.542 46.9167 157.438 46.9375C157.188 47.0208 157.01 47.0625 156.906 47.0625C156.823 47.0625 156.656 47.0104 156.406 46.9062C156.156 46.8021 155.99 46.6667 155.906 46.5L155.781 46.25C155.635 46.1042 155.562 45.75 155.562 45.1875C155.542 45.0625 155.531 44.9271 155.531 44.7812V44.5625C155.531 44.4375 155.521 44.3229 155.5 44.2188H155.375C155.312 44.2812 155.229 44.3229 155.125 44.3438L154.75 44.5625C154.542 44.7292 154.354 44.8958 154.188 45.0625C154.042 45.2083 153.896 45.3438 153.75 45.4688L152.406 47C151.344 48.5 150.719 49.3542 150.531 49.5625L150.5 49.625C150.354 49.8333 150.177 49.9375 149.969 49.9375ZM147.438 44.2188L147.5 44.1875C147.542 44.1667 147.573 44.1354 147.594 44.0938H147.531L147.438 44.2188Z" fill="#FBFBFB"/>
</svg>
