<svg width="143" height="91" viewBox="0 0 143 91" fill="none" xmlns="http://www.w3.org/2000/svg">
<path d="M48.4062 76.4062C48.0312 76.4062 47.8021 76.2188 47.7188 75.8438L47.75 75.6875C47.7708 75.5 47.7917 75.3958 47.8125 75.375C47.8333 75.125 47.8958 74.875 48 74.625C48.0625 74.2083 48.6146 72.6667 49.6562 70L50.125 68.7812C50.375 68.1354 50.6354 67.5104 50.9062 66.9062C50.9688 66.6562 51.0208 66.4896 51.0625 66.4062L51.0938 66.375C51.1146 66.3542 51.125 66.3229 51.125 66.2812C51.1458 66.2604 51.1562 66.2292 51.1562 66.1875C51.1562 66.1667 51.1667 66.1458 51.1875 66.125C51.2708 65.9375 51.3333 65.7604 51.375 65.5938C51.4375 65.4479 51.5 65.3125 51.5625 65.1875C51.8125 64.5625 52 64.1458 52.125 63.9375V63.7812L52.4375 63.0938C52.6667 62.6146 52.875 62.125 53.0625 61.625L53.4062 60.8125C55.8646 55.1875 57.1875 52.2812 57.375 52.0938C57.375 52.0104 57.3854 51.9583 57.4062 51.9375C57.4271 51.8958 57.4375 51.8646 57.4375 51.8438C57.4583 51.8229 57.4688 51.7917 57.4688 51.75C57.4896 51.7083 57.5208 51.6667 57.5625 51.625C57.6042 51.5833 57.625 51.5417 57.625 51.5C57.6458 51.4375 57.6562 51.3958 57.6562 51.375C57.8021 51.2083 57.875 51.0521 57.875 50.9062C57.9167 50.8854 57.9583 50.8229 58 50.7188V50.6875L58.0312 50.625C58.1146 50.4583 58.1667 50.3438 58.1875 50.2812C58.2083 50.2188 58.2292 50.1771 58.25 50.1562C58.2708 50.1146 58.3125 50.0625 58.375 50C58.4583 49.75 58.5625 49.5208 58.6875 49.3125C58.75 49.1875 58.7812 49.1146 58.7812 49.0938C58.7812 49.0729 58.7812 49.0625 58.7812 49.0625C58.8021 49.0625 58.8125 49.0521 58.8125 49.0312C58.8333 48.9896 58.8542 48.9583 58.875 48.9375V48.875L59.0625 48.5312L59.125 48.4688C59.1458 48.4271 59.1667 48.375 59.1875 48.3125C59.2292 48.1667 59.3021 48.0104 59.4062 47.8438C59.5729 47.5521 59.7188 47.25 59.8438 46.9375C59.8646 46.8958 59.8958 46.8542 59.9375 46.8125C59.9792 46.75 60.0104 46.6771 60.0312 46.5938L60 46.5L54.625 46.4375L51.75 46.4688H49.5L48.9375 46.5H46.7812H46.0938L45.7188 46.4688L45.4375 46.5L43.0312 46.4688L42.4375 46.5L41.875 46.4688C41.6875 46.4688 41.5208 46.4792 41.375 46.5H37.8125L37.2188 46.5312H35.1875C34.3333 46.5312 33.9062 46.5417 33.9062 46.5625H32.3125L31.3438 46.5938L30.9062 46.5625C30.8229 46.5625 30.7396 46.5729 30.6562 46.5938C30.5729 46.6146 30.4688 46.625 30.3438 46.625L29.875 46.5938L29.5 46.625L26.7812 46.6562C26.6354 46.6562 26.5104 46.6667 26.4062 46.6875C26.3229 46.6875 26.25 46.6771 26.1875 46.6562L26.125 46.6875H25.0938L24.375 46.7188L24.25 46.6875C24.0208 46.7083 23.7917 46.7188 23.5625 46.7188C23.3542 46.7188 23.1979 46.7292 23.0938 46.75C22.9896 46.75 22.9062 46.7396 22.8438 46.7188L22.7812 46.75H21.5625C21.3542 46.7708 21.1042 46.7812 20.8125 46.7812L18.375 46.8125C17.2708 46.8125 16.2812 46.8333 15.4062 46.875H10.6875C10.4375 46.875 10.25 46.8646 10.125 46.8438H9.25C8.875 46.8438 8.65625 46.8333 8.59375 46.8125C8.53125 46.7917 8.46875 46.7812 8.40625 46.7812C8.28125 46.8021 8.16667 46.8125 8.0625 46.8125C7.95833 46.7917 7.86458 46.7812 7.78125 46.7812H7.25C6.9375 46.7812 6.72917 46.7708 6.625 46.75H6.28125C6.13542 46.7083 5.98958 46.6875 5.84375 46.6875C5.69792 46.6875 5.55208 46.6771 5.40625 46.6562H5.21875L4.59375 46.5938C4.38542 46.5521 4.16667 46.5208 3.9375 46.5C3.70833 46.4792 3.51042 46.4479 3.34375 46.4062C3.19792 46.3646 3.07292 46.3438 2.96875 46.3438C2.23958 46.2188 1.57292 45.9792 0.96875 45.625C0.510417 45.3542 0.197917 44.9062 0.03125 44.2812V43.9375C0.03125 43.6458 0.145833 43.3229 0.375 42.9688C0.375 42.8229 0.5625 42.5417 0.9375 42.125C1.04167 42 1.125 41.8958 1.1875 41.8125C1.27083 41.7083 1.34375 41.6354 1.40625 41.5938C1.48958 41.5312 1.55208 41.4688 1.59375 41.4062C1.80208 41.1562 2.03125 40.9375 2.28125 40.75C2.44792 40.5833 2.54167 40.5 2.5625 40.5L3.25 39.9062L4.03125 39.2812L5.40625 38.25L5.6875 38C5.70833 38 5.72917 38 5.75 38C5.79167 37.9792 5.82292 37.9583 5.84375 37.9375C5.86458 37.9167 5.88542 37.8958 5.90625 37.875C5.94792 37.8333 5.97917 37.8021 6 37.7812C6.20833 37.6562 6.35417 37.5625 6.4375 37.5C6.54167 37.4167 7.5625 36.6979 9.5 35.3438L9.875 35.125C10.2917 34.8333 10.5104 34.6875 10.5312 34.6875C10.5521 34.6875 10.5833 34.6667 10.625 34.625C11.7708 33.8333 13.1146 32.9583 14.6562 32C14.7604 31.9375 14.8542 31.8646 14.9375 31.7812C15.0417 31.6979 15.1979 31.6042 15.4062 31.5C15.6146 31.3958 15.8646 31.2292 16.1562 31C16.1979 31 16.2292 30.9896 16.25 30.9688H16.3125C16.3542 30.9271 16.4062 30.875 16.4688 30.8125C16.5312 30.75 17.0208 30.4479 17.9375 29.9062L19.3438 29.0625L19.5312 28.875C20.5938 28.2917 21.6042 27.6771 22.5625 27.0312C22.625 26.9896 22.6875 26.9583 22.75 26.9375C22.8125 26.9167 22.8646 26.8958 22.9062 26.875C23.4688 26.5208 24.0208 26.1875 24.5625 25.875C25.125 25.5417 25.6562 25.2188 26.1562 24.9062L26.25 24.875C26.4583 24.7708 26.8021 24.5625 27.2812 24.25L27.5938 24.0938L30.0625 22.6562C30.8333 22.2396 31.5938 21.8021 32.3438 21.3438L32.5938 21.25L33.75 20.5625L34.1875 20.3438C34.6667 20.0729 35.1562 19.8125 35.6562 19.5625C36.1562 19.3125 36.6354 19.0417 37.0938 18.75L37.3125 18.6875C37.5833 18.5625 37.8958 18.3854 38.25 18.1562L39.5625 17.5C39.9375 17.3333 40.2917 17.1458 40.625 16.9375L41.375 16.5938C41.9375 16.2604 42.5208 15.9688 43.125 15.7188C43.1875 15.6979 43.3125 15.625 43.5 15.5C43.75 15.3958 43.9896 15.2917 44.2188 15.1875C44.4688 15.0625 44.7292 14.9479 45 14.8438C45.0417 14.8229 45.0833 14.7917 45.125 14.75C45.1875 14.7083 45.25 14.6771 45.3125 14.6562C48.9792 13.0312 51.3542 12.0312 52.4375 11.6562L53.875 11.125C53.9583 11.0833 54.0417 11.0625 54.125 11.0625L55.1562 10.6562C55.3021 10.6354 55.4375 10.6042 55.5625 10.5625C55.8958 10.4375 56.2188 10.3333 56.5312 10.25C56.8646 10.1667 57.1667 10.0833 57.4375 10C57.8958 9.85417 58.3854 9.71875 58.9062 9.59375C59.5938 9.44792 60.0729 9.33333 60.3438 9.25C60.4062 9.25 60.625 9.20833 61 9.125L61.4375 9.03125C61.6667 8.96875 61.9062 8.92708 62.1562 8.90625C62.4062 8.88542 62.6458 8.85417 62.875 8.8125C63.7083 8.6875 64.3542 8.625 64.8125 8.625L64.9688 8.65625C65.0729 8.65625 65.1875 8.64583 65.3125 8.625C65.4375 8.60417 65.6042 8.59375 65.8125 8.59375C66.0208 8.59375 66.1979 8.60417 66.3438 8.625H66.5L66.625 8.59375C66.6667 8.59375 66.7188 8.60417 66.7812 8.625C66.8438 8.64583 66.9271 8.65625 67.0312 8.65625L67.1875 8.625C67.25 8.625 67.3229 8.64583 67.4062 8.6875C67.4896 8.70833 67.6042 8.71875 67.75 8.71875L68.3125 8.8125C68.9375 8.9375 69.3646 9.04167 69.5938 9.125C70.3021 9.35417 70.9583 9.65625 71.5625 10.0312C71.8125 10.1771 72.0312 10.3333 72.2188 10.5C72.4062 10.6667 72.5833 10.8438 72.75 11.0312C72.7917 11.0938 72.9062 11.2188 73.0938 11.4062C73.7188 12.2396 74.1875 13.2604 74.5 14.4688C74.5417 14.6771 74.5625 14.8854 74.5625 15.0938C74.5833 15.3021 74.6146 15.5104 74.6562 15.7188C74.6771 15.8229 74.6875 16.0312 74.6875 16.3438C74.7083 16.4688 74.7188 16.6042 74.7188 16.75C74.7188 16.9167 74.7083 17.0625 74.6875 17.1875C74.6875 17.7292 74.6667 18.1042 74.625 18.3125V18.6562C74.5625 18.8646 74.5208 19.0833 74.5 19.3125C74.5 19.5208 74.4792 19.7396 74.4375 19.9688C74.3542 20.2812 74.2812 20.6042 74.2188 20.9375C74.1771 21.2708 74.1146 21.6042 74.0312 21.9375L73.9688 22.2812L73.6875 23.4375C73.6042 23.6042 73.5521 23.8125 73.5312 24.0625H73.5625C73.6042 24.0417 73.6771 23.9792 73.7812 23.875V23.8125C73.8021 23.8125 73.8229 23.7917 73.8438 23.75C73.8646 23.7083 73.9062 23.6667 73.9688 23.625C74.0312 23.5625 74.3021 23.2083 74.7812 22.5625C75.1771 22.0208 75.4479 21.6771 75.5938 21.5312L76.3438 20.625C76.3438 20.6042 76.3542 20.5833 76.375 20.5625C76.4167 20.5417 76.4479 20.5208 76.4688 20.5L77.0312 19.7812L77.375 19.4375C77.5 19.2708 77.6354 19.1146 77.7812 18.9688C77.9271 18.8229 78.0625 18.6667 78.1875 18.5L78.4688 18.2188C78.7812 17.8229 79.1146 17.4583 79.4688 17.125C79.6979 16.9167 79.9271 16.6875 80.1562 16.4375C80.3854 16.1875 80.6354 15.9479 80.9062 15.7188C81.3229 15.3021 81.5938 15.0521 81.7188 14.9688L82.0938 14.5938L83.125 13.6875L84.0625 12.9375L84.25 12.75C84.5 12.5625 84.7604 12.3646 85.0312 12.1562C85.3021 11.9271 85.5833 11.7083 85.875 11.5L86.1875 11.3438C86.2917 11.2396 86.3646 11.1771 86.4062 11.1562C87.6562 10.3021 88.5 9.78125 88.9375 9.59375L89.4688 9.28125C89.7188 9.13542 89.9688 9.02083 90.2188 8.9375C90.8229 8.64583 91.4583 8.36458 92.125 8.09375C92.2708 8.05208 92.3958 8.01042 92.5 7.96875C92.625 7.90625 92.7292 7.875 92.8125 7.875C93.1875 7.72917 93.5729 7.61458 93.9688 7.53125L94.4062 7.40625H94.5938C94.8646 7.32292 95.1354 7.27083 95.4062 7.25C95.9896 7.14583 96.3646 7.09375 96.5312 7.09375C96.6146 7.09375 96.6875 7.08333 96.75 7.0625H97.6562C97.9271 7.0625 98.1875 7.08333 98.4375 7.125H98.9062C99.0104 7.16667 99.125 7.1875 99.25 7.1875L99.9062 7.34375C101.677 7.76042 103.104 8.69792 104.188 10.1562L104.562 10.8438C104.75 11.1354 104.854 11.3438 104.875 11.4688C104.917 11.5729 104.958 11.6667 105 11.75C105.25 12.3333 105.417 12.8854 105.5 13.4062C105.5 13.6354 105.521 13.7917 105.562 13.875L105.625 14.5C105.625 14.7083 105.615 14.8854 105.594 15.0312L105.625 15.3438C105.604 15.4688 105.594 15.6146 105.594 15.7812C105.594 15.9479 105.583 16.1146 105.562 16.2812C105.5 16.5312 105.448 16.8021 105.406 17.0938C105.385 17.3646 105.333 17.6562 105.25 17.9688C104.542 20.6354 103.281 23.1667 101.469 25.5625L100.594 26.625C100.365 26.875 100.156 27.125 99.9688 27.375C99.9271 27.3958 99.8854 27.4271 99.8438 27.4688C99.8229 27.4896 99.7917 27.5312 99.75 27.5938C99.7083 27.6354 99.6562 27.6979 99.5938 27.7812L98.6875 28.7188C98.6667 28.7396 98.6458 28.7708 98.625 28.8125C98.6042 28.8333 98.5729 28.8542 98.5312 28.875C98.5104 28.875 98.4896 28.8854 98.4688 28.9062C98.2396 29.1979 97.9792 29.4479 97.6875 29.6562C97.6667 29.6979 97.6354 29.7396 97.5938 29.7812C97.5521 29.8021 97.5 29.8542 97.4375 29.9375C97.375 30 97.2917 30.0625 97.1875 30.125C97.1667 30.125 97.1354 30.1458 97.0938 30.1875C97.0729 30.2083 97.0312 30.2708 96.9688 30.375C96.8021 30.4792 96.6458 30.6042 96.5 30.75C96.375 30.875 96.2292 31 96.0625 31.125L95 31.9688C91.8333 34.4688 88.1042 36.6042 83.8125 38.375C83.7292 38.4167 83.6562 38.4479 83.5938 38.4688C83.5312 38.4688 83.4583 38.4896 83.375 38.5312C82.1042 39.0521 80.7917 39.5208 79.4375 39.9375L79 40.0938C78.25 40.2812 77.625 40.4583 77.125 40.625C77.0417 40.625 76.9688 40.6354 76.9062 40.6562C76.3854 40.8229 76.0208 40.9167 75.8125 40.9375L75.4375 41.0312C74.7083 41.2396 73.9479 41.4167 73.1562 41.5625C72.5521 41.6667 71.9479 41.7917 71.3438 41.9375C71.1979 41.9375 70.8646 41.9896 70.3438 42.0938L69.75 42.1875C69.6458 42.2083 69.5312 42.2188 69.4062 42.2188C68.9896 42.3021 68.5521 42.375 68.0938 42.4375C67.7396 42.4583 67.3958 42.5104 67.0625 42.5938L66.0938 42.7188C65.9479 42.9896 65.8229 43.2708 65.7188 43.5625L65.0938 44.9375C65.0104 45.0625 64.9167 45.2396 64.8125 45.4688L64.7188 45.7812C64.7396 45.7812 64.75 45.7917 64.75 45.8125C64.75 45.8125 64.7604 45.8229 64.7812 45.8438C64.8021 45.8438 65.0104 45.8438 65.4062 45.8438H67C72.3542 45.8438 75.8021 45.8333 77.3438 45.8125H79.1562L81.7812 45.7812L94.8125 45.6562C95.0417 45.6562 95.2604 45.6458 95.4688 45.625H96.25C96.5208 45.625 96.6875 45.6354 96.75 45.6562C96.9583 45.7604 97.0625 45.9271 97.0625 46.1562C97.0625 46.2604 97.0312 46.3333 96.9688 46.375C96.9271 46.4167 96.8854 46.4688 96.8438 46.5312C96.8021 46.5938 96.6875 46.625 96.5 46.625C96.375 46.625 96.2812 46.6146 96.2188 46.5938H94.7812L94.375 46.5625H93.7188C93.3854 46.5625 93.1458 46.5625 93 46.5625C92.875 46.5417 92.0729 46.5312 90.5938 46.5312C89.6979 46.5312 89.0729 46.5312 88.7188 46.5312C88.3854 46.5104 86.625 46.5 83.4375 46.5H77.4688C77.3229 46.4792 77.1562 46.4688 76.9688 46.4688L76.4375 46.5L76.2188 46.4688C76.0938 46.4688 75.9792 46.4792 75.875 46.5L75.5625 46.4688C75.2917 46.4688 75.0625 46.4792 74.875 46.5L74.6875 46.4688C74.6042 46.4688 74.5417 46.4792 74.5 46.5H68.4375C68.1042 46.5 67.7812 46.4896 67.4688 46.4688L66.9688 46.5C66.8646 46.4792 66.75 46.4688 66.625 46.4688H64.9375L64.9062 46.5625L65.9062 47.2188C66.4688 47.5729 66.8125 47.8021 66.9375 47.9062C67.0625 48.0104 67.1875 48.1042 67.3125 48.1875L69.0312 49.4375L70 50.1875C70.0417 50.2083 70.0729 50.2396 70.0938 50.2812C70.1146 50.3021 70.1354 50.3229 70.1562 50.3438C70.4688 50.5312 70.8854 50.8542 71.4062 51.3125C71.4688 51.3542 71.5938 51.4688 71.7812 51.6562C71.9479 51.7604 72.1042 51.875 72.25 52C72.4167 52.1458 72.5833 52.2812 72.75 52.4062L72.9688 52.625C73.3854 52.9375 73.7917 53.2917 74.1875 53.6875C74.5208 53.9792 74.8646 54.2604 75.2188 54.5312C75.5104 54.8229 75.6562 54.9688 75.6562 54.9688C75.6771 54.9688 75.6979 54.9896 75.7188 55.0312C75.7604 55.0729 75.8125 55.0938 75.875 55.0938C75.9583 55.1146 76.0417 55.1458 76.125 55.1875C76.2292 55.2292 76.3854 55.3958 76.5938 55.6875C76.6979 55.8333 76.8229 55.9583 76.9688 56.0625C77.3021 56.3958 77.5208 56.6042 77.625 56.6875C77.7292 56.7917 77.8333 56.8854 77.9375 56.9688C78.0417 57.0521 78.4479 57.4167 79.1562 58.0625C79.3229 58.1667 79.4583 58.3229 79.5625 58.5312L79.5938 58.75C79.5938 58.8958 79.5312 59.0312 79.4062 59.1562C79.2812 59.3021 79.1458 59.375 79 59.375L78.7188 59.3125C78.4896 59.2708 77.9688 58.8958 77.1562 58.1875L76.125 57.375C75.8542 57.1042 75.6667 56.9375 75.5625 56.875L75.4062 56.7188L74.25 55.7188L74.125 55.5625L73.1562 54.75L72.7812 54.375L71.8125 53.5938L71.6875 53.4375C71.5208 53.3125 71.3646 53.1875 71.2188 53.0625C71.0729 52.9375 70.9271 52.8125 70.7812 52.6875C70.6562 52.5833 70.3229 52.3229 69.7812 51.9062C69.5521 51.6979 69.3021 51.5 69.0312 51.3125C68.8646 51.1458 68.75 51.0417 68.6875 51C68.2917 50.7292 67.9062 50.4479 67.5312 50.1562C66.3646 49.2604 65.6562 48.75 65.4062 48.625C65.3229 48.5833 65.2396 48.5312 65.1562 48.4688C65.0729 48.4062 64.9688 48.3333 64.8438 48.25C64.7396 48.1667 64.6146 48.0833 64.4688 48L63.9375 47.625L63.7812 47.6562L63.3125 48.6562C63.0625 49.1354 62.8333 49.625 62.625 50.125C62.6042 50.1458 62.5833 50.1667 62.5625 50.1875C62.5625 50.1875 62.5104 50.2917 62.4062 50.5C62.4062 50.5625 62.3854 50.625 62.3438 50.6875C62.3229 50.7292 62.2917 50.7812 62.25 50.8438C62.2083 50.9062 62.1771 50.9688 62.1562 51.0312C61.8021 51.8438 61.5938 52.2917 61.5312 52.375C61.4688 52.4583 61.4167 52.5521 61.375 52.6562C61.3333 52.7604 61.25 52.9479 61.125 53.2188C60.7708 53.8854 60.4271 54.5729 60.0938 55.2812L59.9375 55.5938C59.5208 56.4062 59.2812 56.9062 59.2188 57.0938C59.0938 57.2812 59.0208 57.4062 59 57.4688C58.6042 58.3229 58.1875 59.1562 57.75 59.9688L57.0312 61.375C56.7812 61.9583 56.5 62.5104 56.1875 63.0312C56.1458 63.0938 56.1146 63.1667 56.0938 63.25L55.5625 64.25C55.5417 64.2708 55.5208 64.3021 55.5 64.3438C55.5 64.3854 55.5 64.4271 55.5 64.4688L55 65.3438C54.375 66.5312 54.0312 67.2083 53.9688 67.375C53.7812 67.75 53.5729 68.125 53.3438 68.5C53.2396 68.8125 52.9375 69.3958 52.4375 70.25C52.2917 70.4792 52.1667 70.7083 52.0625 70.9375C51.9583 71.1875 51.8438 71.4167 51.7188 71.625C51.5938 71.8333 51.4688 72.0417 51.3438 72.25C51.2396 72.4583 51.125 72.6667 51 72.875C51 72.9167 50.9896 72.9479 50.9688 72.9688V73.0312L50.625 73.5938C50.0208 74.6562 49.5208 75.4688 49.125 76.0312C49 76.1146 48.9375 76.1771 48.9375 76.2188C48.8125 76.3438 48.6354 76.4062 48.4062 76.4062ZM19.0938 45.9688C19.2188 45.9688 19.3229 45.9583 19.4062 45.9375C21.5938 45.9375 23.3542 45.9271 24.6875 45.9062H26.7188C28.4271 45.9062 29.5625 45.8958 30.125 45.875H36.7812L36.875 45.8438L37 45.875C37.2083 45.875 37.3333 45.8646 37.375 45.8438L37.6875 45.875C37.8333 45.8542 38.0521 45.8438 38.3438 45.8438H42.4062C43.2604 45.8229 44.1667 45.8125 45.125 45.8125C45.5208 45.8125 45.7604 45.8229 45.8438 45.8438H46.1562C46.2188 45.8229 46.2917 45.8125 46.375 45.8125C46.4375 45.8333 46.7604 45.8438 47.3438 45.8438H48.1875L48.4375 45.8125L48.6875 45.8438L54.375 45.8125L54.5312 45.8438C54.5938 45.8438 54.6458 45.8333 54.6875 45.8125H55.75C55.875 45.8333 56.0104 45.8438 56.1562 45.8438L56.2812 45.8125L56.6875 45.8438H59.7188C59.8021 45.8646 59.8958 45.875 60 45.875C60.2917 45.875 60.4375 45.8229 60.4375 45.7188C60.4375 45.6771 60.3646 45.6042 60.2188 45.5L59.8438 45.375C59.2604 45.0625 58.6562 44.7708 58.0312 44.5C57.9062 44.4583 57.7917 44.4062 57.6875 44.3438C56.9375 44.0312 56.5417 43.875 56.5 43.875C56.4792 43.875 56.4479 43.875 56.4062 43.875C56.3854 43.8542 56.3646 43.8333 56.3438 43.8125C55.8021 43.5833 55.4167 43.4688 55.1875 43.4688C55.1042 43.4688 55.0417 43.4792 55 43.5H54.0938C53.9896 43.5208 53.875 43.5312 53.75 43.5312C53.7083 43.5104 53.3854 43.5 52.7812 43.5H50.9062C50.8229 43.4792 50.6354 43.4688 50.3438 43.4688H49.8125C49.625 43.4271 49.4271 43.4062 49.2188 43.4062C49.0104 43.4062 48.8125 43.3958 48.625 43.375H48.3125C48.1042 43.3333 47.875 43.3021 47.625 43.2812C47.2083 43.2396 46.9062 43.1979 46.7188 43.1562C46.5521 43.1146 46.3854 43.0833 46.2188 43.0625C45.9271 43 45.6458 42.9167 45.375 42.8125C45.2917 42.7708 45.1667 42.6667 45 42.5C44.7917 42.375 44.6562 42.1667 44.5938 41.875C44.5729 41.8542 44.5625 41.8229 44.5625 41.7812C44.5625 41.5729 44.625 41.3958 44.75 41.25L45.0625 40.9688C45.1042 40.9479 45.1458 40.9062 45.1875 40.8438C45.25 40.7604 45.375 40.7188 45.5625 40.7188C45.6042 40.6979 45.6562 40.6875 45.7188 40.6875C45.8021 40.6042 45.9479 40.5625 46.1562 40.5625C46.2396 40.5625 46.3125 40.5521 46.375 40.5312L47 40.5L47.1875 40.4688L47.3125 40.5H47.6562C48.0729 40.5 48.3542 40.5104 48.5 40.5312H48.8438C48.9479 40.5521 49.0521 40.5625 49.1562 40.5625C49.2604 40.5625 49.3854 40.5833 49.5312 40.625C49.6771 40.6458 49.8438 40.6667 50.0312 40.6875C50.2396 40.6875 50.4375 40.7083 50.625 40.75C51.8333 40.9792 52.5208 41.125 52.6875 41.1875L53.25 41.2812L54.5938 41.6562C54.6146 41.6771 55.0417 41.8229 55.875 42.0938H56.9375C57.2083 42.0938 57.375 42.0833 57.4375 42.0625H58.4688C58.7396 42.0625 58.9375 42.0521 59.0625 42.0312L59.1875 42C59.25 42 59.3021 42.0104 59.3438 42.0312H59.5938L59.75 42C59.8125 42 59.8646 42.0104 59.9062 42.0312C60.0312 42.0312 60.1562 42.0208 60.2812 42C60.4062 41.9792 60.5417 41.9688 60.6875 41.9688C61.0417 41.9688 61.3229 41.9479 61.5312 41.9062C62.0729 41.9062 62.3854 41.8854 62.4688 41.8438C64.3438 38.3854 66.3021 35 68.3438 31.6875C68.6562 31.1875 68.9688 30.7083 69.2812 30.25C69.6146 29.7708 69.9271 29.3021 70.2188 28.8438C70.3438 28.6146 70.4896 28.3854 70.6562 28.1562L70.8438 27.9688C70.9479 27.8021 71.0521 27.625 71.1562 27.4375C71.2604 27.25 71.3854 27.0729 71.5312 26.9062C71.6771 26.7396 71.75 26.6042 71.75 26.5C71.7708 26.4792 71.7812 26.4583 71.7812 26.4375C71.7812 26.3958 71.7917 26.375 71.8125 26.375L72 25.8438V25.6562C72.25 25.0104 72.4479 24.3333 72.5938 23.625C72.6979 23.2083 72.8021 22.8021 72.9062 22.4062C73.0104 22.0104 73.0833 21.6042 73.125 21.1875C73.2917 20.2917 73.375 19.7917 73.375 19.6875C73.3958 19.5625 73.4167 19.4375 73.4375 19.3125C73.5 18.7917 73.5312 18.1146 73.5312 17.2812C73.5312 14.5104 72.7604 12.5521 71.2188 11.4062C70.4271 10.8646 69.5104 10.4479 68.4688 10.1562L67.75 10.0625C67.125 9.9375 66.4583 9.875 65.75 9.875H64.875C64.8542 9.89583 64.7396 9.90625 64.5312 9.90625C64.4896 9.88542 64.4375 9.875 64.375 9.875L64.25 9.90625C64.1042 9.92708 63.9271 9.94792 63.7188 9.96875C63.5104 9.98958 63.2917 10 63.0625 10C62.8958 10.0417 62.7188 10.0729 62.5312 10.0938C62.3646 10.0938 62.1875 10.1146 62 10.1562L60.875 10.3438C60.5208 10.3854 60.1771 10.4479 59.8438 10.5312C59.7396 10.5729 59.6458 10.5938 59.5625 10.5938C59.4792 10.5938 59.3854 10.6042 59.2812 10.625C58.9271 10.7292 58.5625 10.8229 58.1875 10.9062C57.6458 11.0312 57.125 11.1771 56.625 11.3438C56.5208 11.3854 56.3854 11.4271 56.2188 11.4688C56.0729 11.4896 55.875 11.5417 55.625 11.625C53.5417 12.2917 51.5312 13.0208 49.5938 13.8125C49.5521 13.8333 49.5 13.8438 49.4375 13.8438C49.3958 13.8438 49.3125 13.8854 49.1875 13.9688C49.0625 14.0521 48.9583 14.0938 48.875 14.0938C48.8125 14.0938 48.7708 14.1042 48.75 14.125L45.6875 15.4688C45.6667 15.4896 45.6354 15.5 45.5938 15.5C45.5729 15.5 45.5417 15.5104 45.5 15.5312C45.1875 15.6562 44.875 15.8125 44.5625 16C44.4792 16 44.4271 16.0104 44.4062 16.0312L43.4062 16.5L43.0938 16.6875C42.7812 16.8125 42.0521 17.1667 40.9062 17.75C40.6979 17.8333 40.5 17.9271 40.3125 18.0312L38.875 18.75C38.4792 18.9375 38.1042 19.1354 37.75 19.3438L37.5625 19.4375C37.3333 19.5208 37.0104 19.6979 36.5938 19.9688C36.4896 19.9688 36.4271 19.9792 36.4062 20C36.3854 20.0208 36.375 20.0417 36.375 20.0625L36.3438 20.0938L35.4062 20.5625C34.9688 20.8333 34.6875 20.9896 34.5625 21.0312C34.3333 21.1562 34.1146 21.2708 33.9062 21.375C33.7188 21.4792 33.6042 21.5417 33.5625 21.5625C33.5417 21.5625 33.5104 21.5729 33.4688 21.5938C33.0938 21.8438 32.7188 22.0625 32.3438 22.25C31.4896 22.7292 31.0521 22.9792 31.0312 23C31.0104 23 30.9792 23.0104 30.9375 23.0312C30.9167 23.0312 30.8854 23.0417 30.8438 23.0625L28.9375 24.1875C28.1458 24.625 27.3646 25.0833 26.5938 25.5625L26.375 25.6562L25.9375 25.9375L25.7188 26.0312C25.4688 26.1979 25.1979 26.3646 24.9062 26.5312C24.4479 26.8021 24 27.0833 23.5625 27.375C23.4167 27.4167 23.3021 27.4688 23.2188 27.5312C20.7604 29.0104 18.8542 30.2083 17.5 31.125C17.4583 31.1458 17.4062 31.1667 17.3438 31.1875C17.2812 31.1875 17.1667 31.25 17 31.375C16.8542 31.5 16.75 31.5729 16.6875 31.5938C16.6458 31.6146 16.3333 31.8333 15.75 32.25C15.5 32.375 14.9583 32.7292 14.125 33.3125C13.8333 33.5 13.5833 33.6458 13.375 33.75C13.1042 33.9167 12.8438 34.0938 12.5938 34.2812C12.1354 34.6146 11.8854 34.7812 11.8438 34.7812C11.8229 34.7812 11.8021 34.7917 11.7812 34.8125C10.9062 35.4375 9.48958 36.4271 7.53125 37.7812L6.0625 38.9062L4.9375 39.75C4.70833 40.0208 4.44792 40.2396 4.15625 40.4062L3.375 41.125C3.3125 41.1875 3.25 41.2396 3.1875 41.2812C3.14583 41.3021 3.11458 41.3333 3.09375 41.375C3.09375 41.3958 3.07292 41.4271 3.03125 41.4688C2.98958 41.4896 2.84375 41.625 2.59375 41.875C2.21875 42.25 1.88542 42.6562 1.59375 43.0938C1.32292 43.3854 1.1875 43.7292 1.1875 44.125C1.25 44.3958 1.47917 44.6146 1.875 44.7812C2.4375 45.0312 2.86458 45.1771 3.15625 45.2188C3.23958 45.2188 3.33333 45.2396 3.4375 45.2812C3.6875 45.3438 3.94792 45.3854 4.21875 45.4062C4.48958 45.4271 4.73958 45.4688 4.96875 45.5312L5.84375 45.625H6.0625C6.1875 45.6667 6.44792 45.6875 6.84375 45.6875C7.05208 45.6875 7.26042 45.7083 7.46875 45.75L8.25 45.7812C8.72917 45.7812 9.09375 45.8021 9.34375 45.8438C9.90625 45.8438 10.5 45.8646 11.125 45.9062H12.1562L12.4062 45.875C12.4688 45.875 12.5417 45.8854 12.625 45.9062C12.7292 45.9271 13.0521 45.9375 13.5938 45.9375H14.7188C14.8438 45.9583 15.0417 45.9688 15.3125 45.9688H19.0938ZM61.0938 44.3438C61.1562 44.3438 61.2188 44.2812 61.2812 44.1562L61.375 43.9375C61.5625 43.6667 61.6771 43.4167 61.7188 43.1875L61.6562 43.1562L61.2188 43.1875H61.0938C60.9688 43.1875 60.8542 43.1979 60.75 43.2188C60.5208 43.2604 60.2604 43.2812 59.9688 43.2812C59.6979 43.2812 59.4375 43.3021 59.1875 43.3438V43.4062C59.4375 43.5729 59.7083 43.7083 60 43.8125C60.2083 43.8958 60.4062 43.9896 60.5938 44.0938L60.9375 44.2812C60.9792 44.3229 61.0208 44.3438 61.0625 44.3438H61.0938ZM49.5625 73.0625C49.5833 73.0417 49.5938 73 49.5938 72.9375C49.6146 72.8958 49.6354 72.8646 49.6562 72.8438C49.6979 72.8438 49.7292 72.8333 49.75 72.8125C49.7708 72.7917 49.7812 72.7604 49.7812 72.7188C49.8021 72.6979 49.8229 72.6771 49.8438 72.6562V72.625C49.9062 72.5625 49.9375 72.5104 49.9375 72.4688C49.9583 72.4271 49.9792 72.3958 50 72.375L50.3125 71.8125C50.7708 71.0833 51.1875 70.3542 51.5625 69.625L52.5 67.9688C52.6042 67.8229 52.6875 67.6667 52.75 67.5C53.1667 66.7708 53.4896 66.1771 53.7188 65.7188C53.9688 65.2812 54.2188 64.8542 54.4688 64.4375L55.2188 63C55.2396 62.9167 55.2708 62.8438 55.3125 62.7812L55.875 61.8125L56.0312 61.4062L56.5938 60.4375L56.625 60.2812C56.9167 59.7812 57.1771 59.2812 57.4062 58.7812C57.6562 58.2812 57.9167 57.8021 58.1875 57.3438C58.2083 57.3229 58.2188 57.2917 58.2188 57.25C58.2188 57.2083 58.3333 57 58.5625 56.625L58.7188 56.2188C59.0312 55.6771 59.3229 55.1146 59.5938 54.5312C59.6562 54.3646 59.7083 54.25 59.75 54.1875C59.8125 54.1458 59.8438 54.0938 59.8438 54.0312C59.8646 53.9896 59.875 53.9583 59.875 53.9375C59.9167 53.8333 59.9688 53.7396 60.0312 53.6562C60.0938 53.5938 60.125 53.5312 60.125 53.4688C60.1458 53.4271 60.1562 53.3854 60.1562 53.3438C60.2812 53.1562 60.3542 53.0312 60.375 52.9688C60.6875 52.2812 61.0312 51.5833 61.4062 50.875C61.7812 50.1458 62.1458 49.3854 62.5 48.5938C62.5208 48.5104 62.5625 48.4375 62.625 48.375C62.7292 48.1667 62.7917 48.0208 62.8125 47.9375C62.8542 47.8333 62.9062 47.7188 62.9688 47.5938L63 47.5312C63.0833 47.3854 63.125 47.2812 63.125 47.2188C63.125 47.1562 62.9896 47.0521 62.7188 46.9062C62.6771 46.9062 62.5729 46.8438 62.4062 46.7188C62.1146 46.5521 61.8542 46.4688 61.625 46.4688L61.1875 46.5H60.8438C60.8438 46.5208 60.8333 46.5417 60.8125 46.5625C60.7917 46.5625 60.7708 46.5625 60.75 46.5625C60.75 46.6875 60.6771 46.8438 60.5312 47.0312L60.4375 47.2812C60.2292 47.6562 60.0312 48.0521 59.8438 48.4688C59.8021 48.5729 59.7396 48.6771 59.6562 48.7812C59.5938 48.8854 59.5417 48.9896 59.5 49.0938C59.1458 49.8854 58.7812 50.6458 58.4062 51.375L58 52.25C57.8542 52.5208 57.1146 54.1458 55.7812 57.125C55.5104 57.7292 55.3229 58.1562 55.2188 58.4062C55.1354 58.6562 55.0729 58.7917 55.0312 58.8125C55.0104 58.8542 54.9896 58.8854 54.9688 58.9062C54.9688 58.9479 54.9688 58.9896 54.9688 59.0312L54.5 60C54.4583 60.2083 54.4062 60.3646 54.3438 60.4688C54.0312 61.1771 53.875 61.5417 53.875 61.5625C53.875 61.5833 53.8646 61.6042 53.8438 61.625C53.8438 61.6458 53.8333 61.6667 53.8125 61.6875C53.7917 61.7083 53.7708 61.7396 53.75 61.7812L53.0312 63.5312L53 63.7188C52.6875 64.3854 52.4062 65.0833 52.1562 65.8125C51.9896 66.2083 51.8333 66.6042 51.6875 67C51.5417 67.3958 51.3958 67.7708 51.25 68.125C51.1667 68.3333 51.0833 68.5417 51 68.75C50.9375 68.9792 50.8542 69.1979 50.75 69.4062L50.6875 69.6875L50.375 70.4688L50.2188 71C49.9688 71.6667 49.8021 72.1458 49.7188 72.4375L49.6875 72.5625C49.5833 72.7708 49.5312 72.9375 49.5312 73.0625H49.5625ZM63.75 45.7812C63.9375 45.5729 64.0833 45.3021 64.1875 44.9688C64.2292 44.9271 64.2604 44.8854 64.2812 44.8438C64.3229 44.7812 64.3958 44.625 64.5 44.375L65.125 43.0312C65.125 42.9271 65.1146 42.8646 65.0938 42.8438C65.0729 42.8229 65.0208 42.8125 64.9375 42.8125C64.8542 42.8542 64.75 42.875 64.625 42.875C64.5 42.875 64.25 42.8958 63.875 42.9375C63.6042 43 63.3333 43.0312 63.0625 43.0312C62.7917 43.0312 62.625 43.0625 62.5625 43.125C62.5208 43.1875 62.4792 43.2604 62.4375 43.3438C62.4167 43.4062 62.3958 43.4583 62.375 43.5L61.9688 44.2812C61.9479 44.3021 61.9271 44.3333 61.9062 44.375C61.8854 44.4167 61.8542 44.4688 61.8125 44.5312C61.7917 44.5729 61.7812 44.6146 61.7812 44.6562C61.7812 44.7188 61.8125 44.7708 61.875 44.8125C61.9375 44.8333 62.0521 44.8958 62.2188 45C62.3854 45.0833 62.5625 45.1771 62.75 45.2812C63.0833 45.4271 63.3021 45.5521 63.4062 45.6562C63.5729 45.7396 63.6875 45.7812 63.75 45.7812ZM63.5625 41.7812L64 41.75C64.2083 41.7083 64.4167 41.6875 64.625 41.6875C64.8542 41.6667 65.0625 41.6458 65.25 41.625L65.4375 41.5938H65.5312C65.5938 41.5938 65.6458 41.5833 65.6875 41.5625C65.8125 41.4792 65.9271 41.2708 66.0312 40.9375L66.0938 40.7812C66.4896 39.9688 66.7917 39.2917 67 38.75L67.875 36.7188C68 36.5521 68.0729 36.4062 68.0938 36.2812L68.125 36.2188V36.125L68.5625 35.1875C68.6875 34.8125 68.7812 34.5625 68.8438 34.4375C68.8438 34.3958 68.8542 34.3646 68.875 34.3438C68.9167 34.3021 68.9375 34.25 68.9375 34.1875C68.9583 34.125 68.9688 34.0729 68.9688 34.0312C68.9896 33.9896 69.0208 33.9375 69.0625 33.875C69.1042 33.8125 69.125 33.7604 69.125 33.7188C69.1458 33.6562 69.1667 33.5938 69.1875 33.5312C69.2917 33.3854 69.3646 33.2188 69.4062 33.0312C69.4479 32.9479 69.4688 32.8854 69.4688 32.8438L69.8125 31.9688L70.375 30.4688C70.5208 30.2188 70.6146 29.9479 70.6562 29.6562L70.5938 29.625C70.4896 29.75 70.4062 29.875 70.3438 30C70.2188 30.1875 70.125 30.3125 70.0625 30.375C69.8542 30.6667 69.75 30.8438 69.75 30.9062C69.75 30.9479 69.6979 31.0208 69.5938 31.125C69.5104 31.2083 69.375 31.4062 69.1875 31.7188C69 32.0312 68.8125 32.3333 68.625 32.625L68.25 33.1562C67.9792 33.6979 67.7917 34.0208 67.6875 34.125C67.5833 34.2292 67.4896 34.3854 67.4062 34.5938C67.2396 34.9271 66.9271 35.4271 66.4688 36.0938L66.3125 36.4375C65.5 37.7917 65.0833 38.5104 65.0625 38.5938C65.0417 38.6562 65.0104 38.7188 64.9688 38.7812C64.6562 39.3021 64.3542 39.8333 64.0625 40.375C63.875 40.75 63.7188 41.0208 63.5938 41.1875C63.5729 41.2083 63.5521 41.2396 63.5312 41.2812C63.5312 41.3021 63.5208 41.3333 63.5 41.375C63.5 41.3958 63.4896 41.4167 63.4688 41.4375C63.4479 41.4583 63.4271 41.4896 63.4062 41.5312C63.4062 41.5521 63.3958 41.5729 63.375 41.5938C63.375 41.6146 63.375 41.6354 63.375 41.6562V41.75C63.4167 41.7708 63.4792 41.7812 63.5625 41.7812ZM66.9688 41.4375L67.2812 41.4062C67.7188 41.3229 68.0417 41.2708 68.25 41.25L69.5312 41.0938C69.8854 41.0104 70.25 40.9479 70.625 40.9062C71 40.8646 71.3542 40.8021 71.6875 40.7188C71.75 40.6979 71.8125 40.6875 71.875 40.6875C71.9375 40.6875 71.9896 40.6771 72.0312 40.6562C72.5521 40.5729 73.0417 40.4688 73.5 40.3438C73.6458 40.3438 73.7812 40.3229 73.9062 40.2812L75.4375 39.9062C76.25 39.7396 77.0312 39.5312 77.7812 39.2812L79.375 38.8438C81.1875 38.2604 83.0833 37.5417 85.0625 36.6875C85.2917 36.5625 85.5312 36.4479 85.7812 36.3438C85.8438 36.3229 85.9688 36.25 86.1562 36.125C87.3854 35.5833 88.5417 34.9688 89.625 34.2812C89.7083 34.2188 89.8021 34.1667 89.9062 34.125C90.1562 34 90.9792 33.4792 92.375 32.5625C92.8333 32.2292 93.2812 31.8854 93.7188 31.5312C94.0938 31.2396 94.4583 30.9688 94.8125 30.7188L95 30.5312L95.6562 30L95.9688 29.7188C96.1771 29.5312 96.3854 29.3333 96.5938 29.125C96.8021 28.8958 97.0208 28.6875 97.25 28.5C97.2708 28.4792 97.2917 28.4583 97.3125 28.4375C97.3333 28.4167 97.3438 28.4062 97.3438 28.4062C97.3646 28.3854 97.3958 28.3646 97.4375 28.3438C97.4792 28.3021 97.5104 28.2708 97.5312 28.25C97.5521 28.2292 97.5625 28.2188 97.5625 28.2188C97.5625 28.1979 97.5729 28.1771 97.5938 28.1562C97.8021 27.9896 97.9896 27.8021 98.1562 27.5938C98.1771 27.5521 98.2083 27.5104 98.25 27.4688C98.3125 27.4271 98.4479 27.2812 98.6562 27.0312C98.7396 26.9479 98.8021 26.8958 98.8438 26.875C98.9896 26.6667 99.1458 26.4688 99.3125 26.2812C99.5 26.0729 99.6667 25.8646 99.8125 25.6562L100.344 25.0312C100.927 24.2812 101.469 23.4583 101.969 22.5625C102.094 22.3125 102.229 22.0729 102.375 21.8438L103 20.5C103.188 20.125 103.344 19.7188 103.469 19.2812C103.531 19.0729 103.594 18.8854 103.656 18.7188C103.719 18.5521 103.76 18.3958 103.781 18.25C103.823 18.1042 103.854 17.9896 103.875 17.9062C103.917 17.8021 103.938 17.7188 103.938 17.6562C103.938 17.5729 103.948 17.5 103.969 17.4375C104.01 17.2708 104.042 17.0938 104.062 16.9062C104.083 16.7188 104.115 16.5312 104.156 16.3438L104.188 16.0312L104.219 15.1875C104.219 14.9583 104.208 14.7812 104.188 14.6562V14.375C104.167 14.2917 104.146 14.2083 104.125 14.125C104.125 14.0208 104.115 13.9271 104.094 13.8438C104.073 13.7396 104.052 13.6354 104.031 13.5312C104.031 13.4062 104.01 13.2812 103.969 13.1562C103.802 12.5938 103.583 12.0833 103.312 11.625C103.292 11.5833 103.281 11.5521 103.281 11.5312C103.281 11.4896 103.271 11.4583 103.25 11.4375C102.062 9.45833 99.9271 8.45833 96.8438 8.4375C96.8229 8.45833 96.7708 8.46875 96.6875 8.46875L95.7812 8.5C95.6771 8.5 95.5625 8.52083 95.4375 8.5625C94.8958 8.625 94.5 8.69792 94.25 8.78125C94 8.84375 93.6562 8.92708 93.2188 9.03125C91.9271 9.42708 90.7292 9.92708 89.625 10.5312C89.5625 10.5729 89.5104 10.6042 89.4688 10.625C89.4479 10.625 89.4167 10.625 89.375 10.625C89.25 10.7083 89.1667 10.7604 89.125 10.7812C89.0833 10.8021 89.0417 10.8229 89 10.8438C88.9792 10.8438 88.9479 10.8542 88.9062 10.875L88.1875 11.3125C87.1667 11.8958 86.2292 12.5208 85.375 13.1875C84.9375 13.5 84.7083 13.6771 84.6875 13.7188C84.5625 13.8438 84.3646 13.9896 84.0938 14.1562C83.9896 14.2604 83.875 14.3542 83.75 14.4375C83.375 14.8125 82.9688 15.1562 82.5312 15.4688L82.3438 15.6875L81.375 16.5C81.3333 16.5833 81.2812 16.6562 81.2188 16.7188C80.8021 17.0521 80.4271 17.4167 80.0938 17.8125L79.3438 18.5625C78.7396 19.1458 78.1667 19.7812 77.625 20.4688C77.5833 20.4896 77.5417 20.5208 77.5 20.5625C77.4792 20.6042 77.4479 20.6354 77.4062 20.6562C77.3021 20.8021 77.1875 20.9479 77.0625 21.0938C76.9375 21.2188 76.8229 21.3438 76.7188 21.4688C76.6146 21.5938 76.5417 21.6667 76.5 21.6875C76.4167 21.8125 76.3229 21.9375 76.2188 22.0625C76.1354 22.1667 76.0521 22.2708 75.9688 22.375L75.375 23.0938L74.9688 23.6562C74.9271 23.6771 74.8854 23.7083 74.8438 23.75C74.8229 23.7708 74.8021 23.7917 74.7812 23.8125C74.5729 24.125 74.2188 24.6146 73.7188 25.2812L73.5625 25.4062L72.9375 26.3125C72.7917 26.4167 72.6771 26.625 72.5938 26.9375L72.5 27.25C72.4167 27.4583 72.3333 27.6771 72.25 27.9062C72.1875 28.1354 72.1042 28.3542 72 28.5625L71.9688 28.75C71.7188 29.3542 71.4792 29.9688 71.25 30.5938L70.4375 32.6875C70.3958 32.7708 70.3125 33 70.1875 33.375L67.875 38.7812C67.7917 38.8646 67.5417 39.4271 67.125 40.4688L66.9688 40.75C66.8438 40.9583 66.7604 41.1667 66.7188 41.375H66.75V41.4062C66.7917 41.4271 66.8646 41.4375 66.9688 41.4375ZM95.8125 52.375L95.6562 52.3438C95.4479 52.2812 95.2812 52.2083 95.1562 52.125C95.0312 52.0417 94.9375 51.9062 94.875 51.7188C94.7917 51.5104 94.75 51.2917 94.75 51.0625C94.7917 50.7917 94.8125 50.5312 94.8125 50.2812C95.1042 49.1562 95.5312 47.9167 96.0938 46.5625C96.3438 46.0208 96.625 45.75 96.9375 45.75C97.0417 45.75 97.1562 45.8021 97.2812 45.9062C97.4062 46.0104 97.4688 46.1354 97.4688 46.2812C97.4688 46.5312 97.3333 46.8542 97.0625 47.25L97.0312 47.3438C96.7812 47.6979 96.625 47.9375 96.5625 48.0625C96.5208 48.1875 96.4583 48.3125 96.375 48.4375C96.375 48.4583 96.3646 48.4792 96.3438 48.5C96.3229 48.5208 96.3021 48.5417 96.2812 48.5625C96.0312 49.1667 95.8854 49.5625 95.8438 49.75C95.6771 50.125 95.5938 50.5521 95.5938 51.0312L95.625 51.375C95.6667 51.4167 95.7396 51.4375 95.8438 51.4375C95.9062 51.3958 95.9896 51.3646 96.0938 51.3438C96.1979 51.3021 96.3438 51.1979 96.5312 51.0312L96.6875 50.9062C96.8958 50.7604 97.0625 50.5833 97.1875 50.375C97.25 50.2917 97.3333 50.2188 97.4375 50.1562C97.5417 50.0729 97.625 49.9896 97.6875 49.9062C97.7708 49.8021 97.8542 49.6875 97.9375 49.5625C98.2917 49.1042 98.5 48.8021 98.5625 48.6562C98.5625 48.6354 98.5625 48.6146 98.5625 48.5938C98.5833 48.5729 98.6146 48.5417 98.6562 48.5C98.7188 48.4583 98.8229 48.2708 98.9688 47.9375C98.9896 47.875 99.0208 47.8021 99.0625 47.7188C99.125 47.6354 99.1771 47.5312 99.2188 47.4062L98.8125 47.1875C98.5208 46.9583 98.3333 46.7917 98.25 46.6875C97.75 46.1875 97.5 45.5625 97.5 44.8125C97.5 44.2708 97.5938 43.9062 97.7812 43.7188L97.8438 43.5312C97.9062 43.3854 97.9688 43.2917 98.0312 43.25C98.1146 43.2083 98.1875 43.1354 98.25 43.0312C98.3333 42.9271 98.4271 42.8542 98.5312 42.8125C98.6562 42.7708 98.7396 42.7396 98.7812 42.7188C98.8854 42.6146 99.0104 42.5625 99.1562 42.5625C99.3229 42.5417 99.4479 42.5104 99.5312 42.4688C99.6979 42.4688 99.8333 42.4896 99.9375 42.5312C100.042 42.5729 100.125 42.6042 100.188 42.625C100.271 42.625 100.354 42.6458 100.438 42.6875C100.958 43.0625 101.219 43.5938 101.219 44.2812C101.219 44.4896 101.188 44.6979 101.125 44.9062C101.125 45.0104 101.115 45.0938 101.094 45.1562C100.969 45.7396 100.854 46.1354 100.75 46.3438C100.708 46.4062 100.688 46.4792 100.688 46.5625C100.792 46.6042 100.906 46.625 101.031 46.625C101.385 46.625 101.74 46.5521 102.094 46.4062C102.177 46.3646 102.281 46.3333 102.406 46.3125C102.594 46.3125 102.74 46.3854 102.844 46.5312C102.969 46.6562 103.042 46.8021 103.062 46.9688C103.062 47.0938 103.01 47.2188 102.906 47.3438C102.802 47.4479 102.708 47.5104 102.625 47.5312C102.542 47.5521 102.448 47.5625 102.344 47.5625C101.948 47.6667 101.552 47.7188 101.156 47.7188L100.938 47.75C100.688 47.7083 100.448 47.6875 100.219 47.6875L99.9062 48.25C99.1979 49.6458 98.2812 50.8125 97.1562 51.75C96.9062 51.9167 96.6354 52.0833 96.3438 52.25C96.2812 52.25 96.1979 52.2708 96.0938 52.3125C95.9896 52.3542 95.8958 52.375 95.8125 52.375ZM99.6562 46.2812C99.8438 45.9271 99.9375 45.4583 99.9375 44.875C99.9375 44.5625 99.875 44.3125 99.75 44.125H99.625C99.6042 44.1667 99.5521 44.1979 99.4688 44.2188C99.3854 44.2396 99.2917 44.3021 99.1875 44.4062C99 44.6146 98.9062 44.8646 98.9062 45.1562C98.9062 45.5312 99.0521 45.8333 99.3438 46.0625C99.3854 46.0833 99.4167 46.1146 99.4375 46.1562C99.4792 46.1979 99.5521 46.2396 99.6562 46.2812ZM99.8125 55.0625C99.4375 55.0625 99.1042 54.9583 98.8125 54.75C98.5208 54.5625 98.375 54.2917 98.375 53.9375C98.375 53.7708 98.4062 53.6042 98.4688 53.4375L98.5 53.2188C98.9792 52.3854 99.5833 51.6875 100.312 51.125C100.354 51.0417 100.479 50.9271 100.688 50.7812L101.375 50.1875C101.583 50 101.76 49.875 101.906 49.8125C102.031 49.7292 102.104 49.6354 102.125 49.5312C102.083 49.5104 102.031 49.3958 101.969 49.1875C101.927 49.0833 101.906 48.9688 101.906 48.8438C101.823 48.5729 101.781 48.3021 101.781 48.0312C101.781 47.6354 101.854 47.2604 102 46.9062C102.292 46.1771 102.708 45.5833 103.25 45.125C103.812 44.6458 104.417 44.2292 105.062 43.875C105.167 43.8333 105.292 43.7812 105.438 43.7188C105.583 43.6354 105.719 43.5833 105.844 43.5625C105.99 43.5417 106.104 43.5104 106.188 43.4688C106.396 43.4688 106.594 43.5417 106.781 43.6875C106.969 43.8125 107.062 43.9688 107.062 44.1562C107.062 44.4271 106.917 44.6042 106.625 44.6875L106.344 44.7812C106.135 44.8854 105.906 44.9792 105.656 45.0625C105.594 45.125 105.542 45.1667 105.5 45.1875C105.479 45.1875 105.438 45.1979 105.375 45.2188C105.312 45.2396 105.26 45.2604 105.219 45.2812C105.094 45.4062 104.948 45.5 104.781 45.5625C104.302 45.8542 103.906 46.2083 103.594 46.625C103.302 47.0208 103.156 47.3958 103.156 47.75C103.156 47.8542 103.156 47.9479 103.156 48.0312C103.177 48.0938 103.188 48.1667 103.188 48.25C103.208 48.3333 103.229 48.4271 103.25 48.5312C103.271 48.6146 103.344 48.6562 103.469 48.6562C103.531 48.5938 103.604 48.5417 103.688 48.5C103.771 48.4583 103.885 48.3854 104.031 48.2812C104.323 48.0521 104.51 47.9271 104.594 47.9062C104.677 47.8646 104.74 47.8229 104.781 47.7812C105.51 47.3021 105.917 47.0521 106 47.0312C106.312 46.8229 106.531 46.6979 106.656 46.6562C106.823 46.5104 107.104 46.3333 107.5 46.125C107.729 46.0208 107.854 45.9583 107.875 45.9375C107.917 45.9167 107.969 45.8854 108.031 45.8438C108.115 45.7812 108.219 45.75 108.344 45.75C108.469 45.7708 108.552 45.8125 108.594 45.875C108.635 45.9375 108.677 45.9896 108.719 46.0312V46.3125C108.677 46.4167 108.573 46.4896 108.406 46.5312C108.344 46.5729 108.281 46.6042 108.219 46.625C108.156 46.6458 108.104 46.6667 108.062 46.6875C108.021 46.7083 107.99 46.7292 107.969 46.75C107.948 46.7708 107.896 46.7917 107.812 46.8125C107.729 46.8333 107.677 46.8646 107.656 46.9062C107.635 46.9271 107.573 46.9375 107.469 46.9375C106.573 47.3958 105.729 47.8958 104.938 48.4375C104.896 48.4583 104.844 48.4792 104.781 48.5C104.719 48.5208 104.594 48.6146 104.406 48.7812C104.385 48.8021 104.344 48.8125 104.281 48.8125C104.219 48.8542 104.156 48.9062 104.094 48.9688C104.052 49.0312 104.01 49.0729 103.969 49.0938C103.76 49.1562 103.656 49.2396 103.656 49.3438C103.656 49.4062 103.677 49.4688 103.719 49.5312C103.781 49.5938 103.812 49.6771 103.812 49.7812C104.104 50.2604 104.25 50.7396 104.25 51.2188L104.219 51.8125C104.052 52.5625 103.708 53.1562 103.188 53.5938C103.146 53.6146 103.104 53.6562 103.062 53.7188C103.021 53.7812 102.969 53.8229 102.906 53.8438C102.844 53.8854 102.781 53.9375 102.719 54C102.677 54.0625 102.573 54.1354 102.406 54.2188C102.323 54.2604 102.188 54.3438 102 54.4688C101.792 54.5938 101.594 54.6771 101.406 54.7188L101.156 54.8125C100.74 54.9792 100.292 55.0625 99.8125 55.0625ZM99.625 53.9062L99.875 53.875C100.208 53.7708 100.531 53.6562 100.844 53.5312C101.594 53.2188 102.146 52.7083 102.5 52L102.562 51.875C102.625 51.7292 102.656 51.5625 102.656 51.375C102.635 51.2292 102.615 51.0833 102.594 50.9375C102.573 50.7917 102.531 50.6458 102.469 50.5L102.406 50.3125H102.312L102.094 50.4375L101.156 51.2812C100.719 51.6354 100.344 52.0417 100.031 52.5L99.875 52.7188C99.5208 53.1146 99.3438 53.4792 99.3438 53.8125C99.3646 53.8333 99.4062 53.8438 99.4688 53.8438C99.5104 53.8646 99.5625 53.8854 99.625 53.9062ZM110.094 51.9688L109.031 51.9062C108.823 51.8854 108.646 51.8438 108.5 51.7812C107.896 51.5938 107.458 51.0729 107.188 50.2188L107.031 49.2188L107.156 48.3438C107.302 47.6771 107.552 47.0625 107.906 46.5C108.844 45.2708 109.781 44.4688 110.719 44.0938C111.073 43.9688 111.365 43.9062 111.594 43.9062C111.635 43.8854 111.667 43.8646 111.688 43.8438C111.729 43.8021 111.76 43.7812 111.781 43.7812C112.052 43.7188 112.219 43.6875 112.281 43.6875L112.656 43.7188H112.812C112.917 43.7188 113.01 43.7396 113.094 43.7812C113.177 43.8229 113.271 43.9375 113.375 44.125C113.667 44.375 113.812 44.6875 113.812 45.0625C113.812 45.1458 113.802 45.2188 113.781 45.2812C113.76 45.3229 113.74 45.3958 113.719 45.5C113.698 45.5833 113.667 45.6771 113.625 45.7812C113.521 45.9688 113.375 46.1562 113.188 46.3438C113.104 46.3646 113.042 46.3854 113 46.4062C112.958 46.4271 112.917 46.4583 112.875 46.5C112.854 46.5417 112.823 46.5729 112.781 46.5938C112.76 46.6146 112.719 46.6458 112.656 46.6875C112.615 46.7292 112.552 46.7604 112.469 46.7812C112.385 46.8021 112.292 46.8646 112.188 46.9688C112 47.0938 111.854 47.1771 111.75 47.2188C111.667 47.2396 111.562 47.2812 111.438 47.3438C111.062 47.5312 110.583 47.625 110 47.625C109.812 47.625 109.615 47.6354 109.406 47.6562C109.219 47.6771 109.062 47.7083 108.938 47.75C108.667 47.8333 108.479 48.1771 108.375 48.7812C108.354 48.8438 108.333 48.8958 108.312 48.9375C108.312 48.9583 108.302 48.9896 108.281 49.0312C108.281 49.0521 108.281 49.0833 108.281 49.125C108.281 50.1458 108.51 50.6875 108.969 50.75L109.281 50.7812C109.906 50.7812 110.562 50.5417 111.25 50.0625C111.958 49.5833 112.479 49.1875 112.812 48.875C113.146 48.5625 113.448 48.2292 113.719 47.875C114.177 47.4167 114.479 47.0625 114.625 46.8125C114.896 46.4583 115.104 46.25 115.25 46.1875C115.292 46.1667 115.323 46.1458 115.344 46.125C115.385 46.1042 115.458 46.0938 115.562 46.0938C115.875 46.1562 116.083 46.3021 116.188 46.5312L116.156 46.875C116.135 46.8958 116.115 46.9271 116.094 46.9688C116.073 47.0104 116.052 47.0521 116.031 47.0938C116.01 47.1354 115.99 47.1667 115.969 47.1875C115.948 47.1875 115.688 47.5104 115.188 48.1562C114.688 48.7812 113.99 49.4688 113.094 50.2188C112.219 50.9688 111.219 51.5521 110.094 51.9688ZM109.75 46.3438L110.938 46.1562C111.438 45.9688 111.771 45.7917 111.938 45.625C112.104 45.4375 112.219 45.2604 112.281 45.0938L112.25 45.0625C112.188 45.0833 112.073 45.1042 111.906 45.125C111.74 45.1458 111.521 45.1875 111.25 45.25C110.979 45.3125 110.667 45.4583 110.312 45.6875L109.75 46.3438ZM112.625 55.0625C112.25 55.0625 111.917 54.9583 111.625 54.75C111.333 54.5625 111.188 54.2917 111.188 53.9375C111.188 53.7708 111.219 53.6042 111.281 53.4375L111.312 53.2188C111.792 52.3854 112.396 51.6875 113.125 51.125C113.167 51.0417 113.292 50.9271 113.5 50.7812L114.188 50.1875C114.396 50 114.573 49.875 114.719 49.8125C114.844 49.7292 114.917 49.6354 114.938 49.5312C114.896 49.5104 114.844 49.3958 114.781 49.1875C114.74 49.0833 114.719 48.9688 114.719 48.8438C114.635 48.5729 114.594 48.3021 114.594 48.0312C114.594 47.6354 114.667 47.2604 114.812 46.9062C115.104 46.1771 115.521 45.5833 116.062 45.125C116.625 44.6458 117.229 44.2292 117.875 43.875C117.979 43.8333 118.104 43.7812 118.25 43.7188C118.396 43.6354 118.531 43.5833 118.656 43.5625C118.802 43.5417 118.917 43.5104 119 43.4688C119.208 43.4688 119.406 43.5417 119.594 43.6875C119.781 43.8125 119.875 43.9688 119.875 44.1562C119.875 44.4271 119.729 44.6042 119.438 44.6875L119.156 44.7812C118.948 44.8854 118.719 44.9792 118.469 45.0625C118.406 45.125 118.354 45.1667 118.312 45.1875C118.292 45.1875 118.25 45.1979 118.188 45.2188C118.125 45.2396 118.073 45.2604 118.031 45.2812C117.906 45.4062 117.76 45.5 117.594 45.5625C117.115 45.8542 116.719 46.2083 116.406 46.625C116.115 47.0208 115.969 47.3958 115.969 47.75C115.969 47.8542 115.969 47.9479 115.969 48.0312C115.99 48.0938 116 48.1667 116 48.25C116.021 48.3333 116.042 48.4271 116.062 48.5312C116.083 48.6146 116.156 48.6562 116.281 48.6562C116.344 48.5938 116.417 48.5417 116.5 48.5C116.583 48.4583 116.698 48.3854 116.844 48.2812C117.135 48.0521 117.323 47.9271 117.406 47.9062C117.49 47.8646 117.552 47.8229 117.594 47.7812C118.323 47.3021 118.729 47.0521 118.812 47.0312C119.125 46.8229 119.344 46.6979 119.469 46.6562C119.635 46.5104 119.917 46.3333 120.312 46.125C120.542 46.0208 120.667 45.9583 120.688 45.9375C120.729 45.9167 120.781 45.8854 120.844 45.8438C120.927 45.7812 121.031 45.75 121.156 45.75C121.281 45.7708 121.365 45.8125 121.406 45.875C121.448 45.9375 121.49 45.9896 121.531 46.0312V46.3125C121.49 46.4167 121.385 46.4896 121.219 46.5312C121.156 46.5729 121.094 46.6042 121.031 46.625C120.969 46.6458 120.917 46.6667 120.875 46.6875C120.833 46.7083 120.802 46.7292 120.781 46.75C120.76 46.7708 120.708 46.7917 120.625 46.8125C120.542 46.8333 120.49 46.8646 120.469 46.9062C120.448 46.9271 120.385 46.9375 120.281 46.9375C119.385 47.3958 118.542 47.8958 117.75 48.4375C117.708 48.4583 117.656 48.4792 117.594 48.5C117.531 48.5208 117.406 48.6146 117.219 48.7812C117.198 48.8021 117.156 48.8125 117.094 48.8125C117.031 48.8542 116.969 48.9062 116.906 48.9688C116.865 49.0312 116.823 49.0729 116.781 49.0938C116.573 49.1562 116.469 49.2396 116.469 49.3438C116.469 49.4062 116.49 49.4688 116.531 49.5312C116.594 49.5938 116.625 49.6771 116.625 49.7812C116.917 50.2604 117.062 50.7396 117.062 51.2188L117.031 51.8125C116.865 52.5625 116.521 53.1562 116 53.5938C115.958 53.6146 115.917 53.6562 115.875 53.7188C115.833 53.7812 115.781 53.8229 115.719 53.8438C115.656 53.8854 115.594 53.9375 115.531 54C115.49 54.0625 115.385 54.1354 115.219 54.2188C115.135 54.2604 115 54.3438 114.812 54.4688C114.604 54.5938 114.406 54.6771 114.219 54.7188L113.969 54.8125C113.552 54.9792 113.104 55.0625 112.625 55.0625ZM112.438 53.9062L112.688 53.875C113.021 53.7708 113.344 53.6562 113.656 53.5312C114.406 53.2188 114.958 52.7083 115.312 52L115.375 51.875C115.438 51.7292 115.469 51.5625 115.469 51.375C115.448 51.2292 115.427 51.0833 115.406 50.9375C115.385 50.7917 115.344 50.6458 115.281 50.5L115.219 50.3125H115.125L114.906 50.4375L113.969 51.2812C113.531 51.6354 113.156 52.0417 112.844 52.5L112.688 52.7188C112.333 53.1146 112.156 53.4792 112.156 53.8125C112.177 53.8333 112.219 53.8438 112.281 53.8438C112.323 53.8646 112.375 53.8854 112.438 53.9062Z" fill="#FFFBFB"/>
</svg>
