<svg width="52" height="43" viewBox="0 0 52 43" fill="none" xmlns="http://www.w3.org/2000/svg">
<path d="M14.4629 3.13281C16.2007 2.77796 17.5844 3.33414 15.3668 5.97147C14.5076 6.00092 13.8107 5.90514 13.5061 5.71408C13.3952 6.04565 13.3082 6.34639 13.2408 6.61882C13.6822 6.72331 14.2077 6.81417 14.8276 6.88776C19.0851 7.39315 18.7501 2.82437 14.8276 2.10269C21.6805 -2.0625 19.5367 9.11815 17.4426 11.2886C16.542 12.2221 15.4821 12.7138 14.396 12.8798C14.9437 14.0059 15.3256 15.3921 15.3668 17.0921C15.4355 19.9279 15.4169 23.1414 15.3531 26.1762C15.5824 26.9645 15.7967 27.7989 15.9901 28.6691C16.5895 31.3656 16.989 34.405 17.0178 37.4762C17.0986 46.122 15.5914 41.0786 14.8276 37.4762C14.9429 36.6025 15.1001 34.0014 15.2223 30.6966C11.5258 37.1349 0.616065 25.1307 0.825162 20.0454C0.0634865 19.6366 -0.021015 19.2717 1.05621 19.0514C1.47335 18.2009 2.47138 17.7594 4.2349 17.9822C15.9588 14.2903 15.9318 17.9897 12.4819 19.8552C13.4515 20.9792 14.5053 23.2622 15.3531 26.1762C15.4169 23.1414 15.4355 19.9279 15.3668 17.0921C15.3256 15.3921 14.9437 14.0059 14.396 12.8798C11.8369 13.2711 9.13308 11.8537 8.0283 10.1457C4.59495 4.83754 16.7677 -4.4961 14.4629 3.13281Z" fill="#F0DDDD" fill-opacity="0.51"/>
<path d="M45.8209 30.3941C66.4826 11.618 21.9452 37.4762 15.8237 17.0921C21.4725 55.4677 -14.9397 8.98277 9.14816 19.5237C23.073 25.6173 -4.965 20.1897 1.13086 19.0368C20.6676 11.964 14.9056 21.4652 8.0283 20.7522C1.84071 20.1107 7.90874 18.2643 11.7724 19.2364C13.9177 20.4372 16.9369 28.8305 17.0178 37.4762C17.0986 46.122 15.5914 41.0786 14.8276 37.4762C15.086 35.5178 15.5554 24.8802 15.3668 17.0921C15.1781 9.30409 7.83945 8.1034 10.1688 8.3131C15.8237 8.82215 11.3077 10.875 13.9474 4.54613C18.1513 -5.53305 4.40646 4.54613 8.0283 10.1457C9.60191 12.5786 14.4198 14.4217 17.4426 11.2886C19.5367 9.11815 21.6805 -2.0625 14.8276 2.10269C18.7501 2.82437 19.0851 7.39315 14.8276 6.88776C4.342 5.64302 20.8457 -0.544364 15.3668 5.97147C13.3866 6.03935 12.2686 5.44206 14.8276 4.54613" stroke="white" stroke-width="0.5"/>
</svg>
